<svg width="325" height="201" viewBox="0 0 325 201" fill="none" xmlns="http://www.w3.org/2000/svg">
<path d="M15.5898 198.654C16.4193 198.654 17.2402 198.544 18.0527 198.324C18.8652 198.087 19.5931 197.749 20.2363 197.309C20.8796 196.852 21.3958 196.301 21.7852 195.658C22.1745 194.998 22.3691 194.236 22.3691 193.373C22.3691 192.34 22.0983 191.426 21.5566 190.631C21.0319 189.818 20.3379 189.082 19.4746 188.422C18.6113 187.745 17.6211 187.11 16.5039 186.518C15.4036 185.925 14.278 185.333 13.127 184.74C11.9759 184.148 10.8418 183.53 9.72461 182.887C8.62435 182.227 7.64258 181.499 6.7793 180.703C5.91602 179.891 5.21354 178.993 4.67188 178.012C4.14714 177.013 3.88477 175.87 3.88477 174.584C3.88477 173.298 4.12174 172.104 4.5957 171.004C5.08659 169.904 5.79753 168.956 6.72852 168.16C7.65951 167.348 8.80208 166.713 10.1562 166.256C11.5273 165.799 13.0931 165.57 14.8535 165.57C16.4447 165.57 17.8665 165.74 19.1191 166.078C20.3717 166.417 21.472 166.916 22.4199 167.576C23.3678 168.236 24.1719 169.049 24.832 170.014C25.4922 170.979 26.0254 172.096 26.4316 173.365L23.5371 174.686C23.1986 173.653 22.7669 172.714 22.2422 171.867C21.7174 171.004 21.0911 170.268 20.3633 169.658C19.6354 169.049 18.7891 168.583 17.8242 168.262C16.8763 167.923 15.8014 167.754 14.5996 167.754C13.5332 167.754 12.6022 167.906 11.8066 168.211C11.0111 168.499 10.3424 168.888 9.80078 169.379C9.27604 169.853 8.87826 170.395 8.60742 171.004C8.35352 171.596 8.22656 172.206 8.22656 172.832C8.22656 173.712 8.4974 174.525 9.03906 175.27C9.58073 175.997 10.3001 176.691 11.1973 177.352C12.0944 177.995 13.11 178.621 14.2441 179.23C15.3952 179.84 16.5632 180.458 17.748 181.084C18.9329 181.71 20.0924 182.362 21.2266 183.039C22.3776 183.716 23.4017 184.461 24.2988 185.273C25.196 186.069 25.9154 186.949 26.457 187.914C26.9987 188.862 27.2695 189.928 27.2695 191.113C27.2695 192.451 27.0156 193.712 26.5078 194.896C26 196.064 25.2383 197.089 24.2227 197.969C23.207 198.832 21.946 199.518 20.4395 200.025C18.9329 200.533 17.181 200.787 15.1836 200.787C13.5586 200.787 12.1113 200.609 10.8418 200.254C9.57227 199.898 8.44661 199.382 7.46484 198.705C6.5 198.028 5.67057 197.207 4.97656 196.242C4.28255 195.26 3.71549 194.143 3.27539 192.891L6.29688 191.646C6.65234 192.747 7.1263 193.729 7.71875 194.592C8.32812 195.455 9.0306 196.191 9.82617 196.801C10.6217 197.393 11.502 197.85 12.4668 198.172C13.4486 198.493 14.4896 198.654 15.5898 198.654ZM47.1748 200.559C45.4143 200.559 43.7555 200.229 42.1982 199.568C40.6578 198.908 39.3121 198.011 38.1611 196.877C37.0101 195.743 36.096 194.414 35.4189 192.891C34.7588 191.35 34.4287 189.717 34.4287 187.99C34.4287 185.908 34.7334 183.987 35.3427 182.227C35.9521 180.449 36.8154 178.917 37.9326 177.631C39.0498 176.344 40.387 175.337 41.9443 174.609C43.5185 173.882 45.2705 173.518 47.2002 173.518C48.8929 173.518 50.4502 173.822 51.872 174.432C53.2939 175.024 54.5127 175.828 55.5283 176.844C56.5608 177.842 57.3564 179.002 57.915 180.322C58.4905 181.643 58.7783 183.022 58.7783 184.461H39.4052C39.4052 186.204 39.6253 187.821 40.0654 189.311C40.5224 190.8 41.1572 192.087 41.9697 193.17C42.7822 194.253 43.747 195.1 44.8642 195.709C45.9814 196.318 47.2086 196.623 48.5459 196.623C49.663 196.623 50.7379 196.445 51.7705 196.09C52.803 195.717 53.734 195.235 54.5634 194.643C55.4098 194.05 56.1292 193.373 56.7216 192.611C57.3141 191.85 57.7288 191.062 57.9658 190.25L59.4638 190.91C59.0914 192.247 58.4905 193.5 57.6611 194.668C56.8317 195.836 55.8584 196.86 54.7412 197.74C53.6409 198.604 52.4391 199.289 51.1357 199.797C49.8323 200.305 48.512 200.559 47.1748 200.559ZM52.3037 182.379C52.3037 181.397 52.1259 180.483 51.7705 179.637C51.4319 178.79 50.958 178.062 50.3486 177.453C49.7392 176.827 49.0283 176.336 48.2158 175.98C47.4033 175.625 46.5315 175.447 45.6005 175.447C44.8219 175.447 44.0771 175.625 43.3662 175.98C42.6552 176.319 42.0205 176.801 41.4619 177.428C40.9033 178.037 40.4378 178.765 40.0654 179.611C39.7099 180.458 39.4983 181.372 39.4306 182.354L52.3037 182.379ZM71.5234 173.518H72.3105L72.996 178.824C73.4023 178.046 73.9101 177.335 74.5195 176.691C75.1288 176.048 75.7974 175.49 76.5253 175.016C77.2701 174.542 78.0488 174.178 78.8613 173.924C79.6907 173.653 80.5286 173.518 81.3749 173.518C82.1366 173.518 82.8814 173.619 83.6093 173.822C84.3541 174.025 85.0481 174.347 85.6913 174.787L84.0663 179.129C83.7278 178.757 83.3723 178.46 82.9999 178.24C82.6275 178.003 82.2467 177.826 81.8573 177.707C81.468 177.572 81.0702 177.487 80.664 177.453C80.2577 177.419 79.8515 177.402 79.4452 177.402C78.802 177.402 78.1672 177.495 77.5409 177.682C76.9316 177.868 76.3476 178.147 75.789 178.52C75.2304 178.875 74.7141 179.34 74.2402 179.916C73.7662 180.475 73.3515 181.135 72.996 181.896V200H67.8417V174.939L71.5234 173.518ZM92.5204 174L101.712 193.678L110.522 174H112.858L101.153 200.279H99.3759L87.1122 174H92.5204ZM119.281 174.99L122.912 173.518H124.41V200H119.281V174.99ZM118.875 164.047C118.875 163.641 118.951 163.26 119.103 162.904C119.256 162.549 119.467 162.236 119.738 161.965C120.009 161.694 120.322 161.482 120.678 161.33C121.033 161.178 121.414 161.102 121.82 161.102C122.226 161.102 122.607 161.178 122.963 161.33C123.318 161.482 123.631 161.694 123.902 161.965C124.173 162.236 124.385 162.549 124.537 162.904C124.689 163.26 124.765 163.641 124.765 164.047C124.765 164.453 124.689 164.834 124.537 165.189C124.385 165.545 124.173 165.858 123.902 166.129C123.631 166.4 123.318 166.611 122.963 166.764C122.607 166.916 122.226 166.992 121.82 166.992C121.414 166.992 121.033 166.916 120.678 166.764C120.322 166.611 120.009 166.4 119.738 166.129C119.467 165.858 119.256 165.545 119.103 165.189C118.951 164.834 118.875 164.453 118.875 164.047ZM152.009 181.312C151.822 180.635 151.568 179.95 151.247 179.256C150.925 178.562 150.511 177.936 150.003 177.377C149.512 176.801 148.928 176.336 148.251 175.98C147.574 175.625 146.778 175.447 145.864 175.447C144.696 175.447 143.647 175.684 142.716 176.158C141.785 176.632 140.998 177.275 140.354 178.088C139.711 178.9 139.22 179.848 138.882 180.932C138.543 182.015 138.374 183.166 138.374 184.385C138.374 186.044 138.585 187.618 139.009 189.107C139.449 190.58 140.058 191.875 140.837 192.992C141.632 194.109 142.58 194.998 143.68 195.658C144.798 196.301 146.042 196.623 147.413 196.623C148.615 196.623 149.656 196.437 150.536 196.064C151.433 195.675 152.203 195.159 152.846 194.516C153.507 193.872 154.074 193.128 154.548 192.281C155.022 191.418 155.445 190.512 155.817 189.564L157.366 190.199C156.926 191.824 156.333 193.28 155.589 194.566C154.844 195.853 153.964 196.945 152.948 197.842C151.949 198.722 150.815 199.399 149.546 199.873C148.293 200.33 146.93 200.559 145.458 200.559C143.748 200.559 142.149 200.229 140.659 199.568C139.169 198.891 137.874 197.969 136.774 196.801C135.674 195.633 134.802 194.27 134.159 192.713C133.516 191.156 133.194 189.488 133.194 187.711C133.194 186.408 133.355 185.155 133.677 183.953C133.998 182.734 134.447 181.6 135.022 180.551C135.615 179.501 136.317 178.545 137.13 177.682C137.959 176.818 138.873 176.082 139.872 175.473C140.871 174.846 141.937 174.364 143.071 174.025C144.222 173.687 145.415 173.518 146.651 173.518C147.684 173.518 148.674 173.636 149.622 173.873C150.57 174.11 151.442 174.449 152.237 174.889C153.033 175.312 153.735 175.845 154.345 176.488C154.954 177.115 155.428 177.817 155.766 178.596L152.009 181.312ZM176.738 200.559C174.978 200.559 173.319 200.229 171.761 199.568C170.221 198.908 168.875 198.011 167.724 196.877C166.573 195.743 165.659 194.414 164.982 192.891C164.322 191.35 163.992 189.717 163.992 187.99C163.992 185.908 164.297 183.987 164.906 182.227C165.515 180.449 166.379 178.917 167.496 177.631C168.613 176.344 169.95 175.337 171.508 174.609C173.082 173.882 174.834 173.518 176.763 173.518C178.456 173.518 180.013 173.822 181.435 174.432C182.857 175.024 184.076 175.828 185.092 176.844C186.124 177.842 186.92 179.002 187.478 180.322C188.054 181.643 188.342 183.022 188.342 184.461H168.969C168.969 186.204 169.189 187.821 169.629 189.311C170.086 190.8 170.72 192.087 171.533 193.17C172.345 194.253 173.31 195.1 174.428 195.709C175.545 196.318 176.772 196.623 178.109 196.623C179.226 196.623 180.301 196.445 181.334 196.09C182.366 195.717 183.297 195.235 184.127 194.643C184.973 194.05 185.692 193.373 186.285 192.611C186.877 191.85 187.292 191.062 187.529 190.25L189.027 190.91C188.655 192.247 188.054 193.5 187.224 194.668C186.395 195.836 185.422 196.86 184.304 197.74C183.204 198.604 182.002 199.289 180.699 199.797C179.396 200.305 178.075 200.559 176.738 200.559ZM181.867 182.379C181.867 181.397 181.689 180.483 181.334 179.637C180.995 178.79 180.521 178.062 179.912 177.453C179.303 176.827 178.592 176.336 177.779 175.98C176.967 175.625 176.095 175.447 175.164 175.447C174.385 175.447 173.64 175.625 172.929 175.98C172.219 176.319 171.584 176.801 171.025 177.428C170.467 178.037 170.001 178.765 169.629 179.611C169.273 180.458 169.062 181.372 168.994 182.354L181.867 182.379Z" fill="#0477BF"/>
<path d="M197.405 166.332H203.067V181.262L220.79 166.332H224.471L207.663 180.5L228.991 200H221.78L203.067 182.912V200H197.405V166.332ZM246.687 200.559C244.69 200.559 242.853 200.212 241.177 199.518C239.502 198.824 238.054 197.884 236.836 196.699C235.617 195.497 234.661 194.101 233.966 192.51C233.289 190.902 232.951 189.184 232.951 187.355C232.951 185.443 233.289 183.648 233.966 181.973C234.661 180.28 235.617 178.807 236.836 177.555C238.054 176.302 239.502 175.32 241.177 174.609C242.853 173.882 244.69 173.518 246.687 173.518C248.668 173.518 250.487 173.848 252.146 174.508C253.822 175.168 255.269 176.074 256.488 177.225C257.707 178.376 258.655 179.73 259.332 181.287C260.026 182.827 260.373 184.486 260.373 186.264C260.373 188.227 260.026 190.081 259.332 191.824C258.655 193.551 257.707 195.066 256.488 196.369C255.269 197.656 253.822 198.68 252.146 199.441C250.487 200.186 248.668 200.559 246.687 200.559ZM247.677 198.654C248.693 198.654 249.624 198.392 250.47 197.867C251.317 197.342 252.045 196.64 252.654 195.76C253.263 194.863 253.737 193.83 254.076 192.662C254.414 191.494 254.584 190.258 254.584 188.955C254.584 187.076 254.423 185.316 254.101 183.674C253.78 182.032 253.255 180.602 252.527 179.383C251.799 178.164 250.851 177.208 249.683 176.514C248.515 175.803 247.093 175.447 245.418 175.447C244.554 175.447 243.716 175.701 242.904 176.209C242.091 176.7 241.372 177.377 240.746 178.24C240.136 179.104 239.646 180.119 239.273 181.287C238.901 182.438 238.715 183.665 238.715 184.969C238.715 186.865 238.909 188.642 239.299 190.301C239.705 191.96 240.289 193.407 241.05 194.643C241.829 195.878 242.769 196.86 243.869 197.588C244.986 198.299 246.256 198.654 247.677 198.654ZM272.458 173.518H273.93V178.9C274.59 178.189 275.335 177.512 276.165 176.869C276.994 176.209 277.849 175.633 278.729 175.143C279.609 174.635 280.49 174.237 281.37 173.949C282.25 173.661 283.088 173.518 283.883 173.518C284.645 173.518 285.415 173.653 286.194 173.924C286.99 174.195 287.717 174.576 288.378 175.066C289.055 175.557 289.63 176.141 290.104 176.818C290.595 177.479 290.917 178.206 291.069 179.002C291.492 178.24 292.076 177.529 292.821 176.869C293.583 176.192 294.421 175.608 295.335 175.117C296.249 174.626 297.214 174.237 298.229 173.949C299.262 173.661 300.269 173.518 301.251 173.518C302.232 173.518 303.146 173.738 303.993 174.178C304.856 174.601 305.609 175.185 306.253 175.93C306.896 176.658 307.404 177.521 307.776 178.52C308.148 179.501 308.335 180.551 308.335 181.668V200H303.18V182.379C303.18 181.651 303.053 180.965 302.799 180.322C302.562 179.662 302.232 179.087 301.809 178.596C301.386 178.105 300.887 177.715 300.311 177.428C299.753 177.14 299.16 176.996 298.534 176.996C297.823 176.996 297.095 177.098 296.35 177.301C295.622 177.487 294.928 177.749 294.268 178.088C293.608 178.426 293.007 178.824 292.465 179.281C291.924 179.721 291.492 180.195 291.171 180.703V200H286.016V182.379C286.016 181.651 285.889 180.965 285.635 180.322C285.381 179.662 285.043 179.087 284.62 178.596C284.197 178.105 283.697 177.715 283.122 177.428C282.546 177.14 281.945 176.996 281.319 176.996C280.659 176.996 279.973 177.098 279.262 177.301C278.568 177.504 277.883 177.775 277.206 178.113C276.546 178.452 275.928 178.85 275.352 179.307C274.777 179.747 274.303 180.212 273.93 180.703V200H268.751V174.965L272.458 173.518Z" fill="#ED7631"/>
<path d="M136.753 112.195C135.951 112.997 135.951 114.298 136.753 115.1L149.823 128.17C150.625 128.972 151.926 128.972 152.728 128.17C153.53 127.368 153.53 126.068 152.728 125.266L141.11 113.648L152.728 102.03C153.53 101.228 153.53 99.9273 152.728 99.1252C151.926 98.3232 150.625 98.3232 149.823 99.1252L136.753 112.195ZM142.103 111.594H138.205V115.701H142.103V111.594Z" fill="#ED7631"/>
<path d="M122.022 48.078C119.834 48.0922 118.079 49.9444 118.101 52.2151C118.124 54.4858 119.916 56.3151 122.104 56.301L212.803 55.7155C231.371 55.5956 244.233 67.6759 244.383 82.7305C244.532 97.7818 231.916 110.025 213.355 110.15L213.343 110.15L147.027 110.15C144.839 110.15 140.46 111.672 140.469 113.943C140.478 116.214 144.871 118.373 147.059 118.373L213.4 118.373L213.425 118.373C235.167 118.232 252.512 103.429 252.307 82.6794C252.101 61.9297 234.464 47.3521 212.721 47.4925L122.022 48.078Z" fill="url(#paint0_linear_413_573)"/>
<path d="M122.022 48.078C119.834 48.0922 118.079 49.9444 118.101 52.2151C118.124 54.4858 119.916 56.3151 122.104 56.301L212.803 55.7155C231.371 55.5956 244.233 67.6759 244.383 82.7305C244.532 97.7818 231.916 110.025 213.355 110.15L213.343 110.15L147.027 110.15C144.839 110.15 140.46 111.672 140.469 113.943C140.478 116.214 144.871 118.373 147.059 118.373L213.4 118.373L213.425 118.373C235.167 118.232 252.512 103.429 252.307 82.6794C252.101 61.9297 234.464 47.3521 212.721 47.4925L122.022 48.078Z" fill="url(#paint1_linear_413_573)"/>
<path d="M122.022 48.078C119.834 48.0922 118.079 49.9444 118.101 52.2151C118.124 54.4858 119.916 56.3151 122.104 56.301L212.803 55.7155C231.371 55.5956 244.233 67.6759 244.383 82.7305C244.532 97.7818 231.916 110.025 213.355 110.15L213.343 110.15L147.027 110.15C144.839 110.15 140.46 111.672 140.469 113.943C140.478 116.214 144.871 118.373 147.059 118.373L213.4 118.373L213.425 118.373C235.167 118.232 252.512 103.429 252.307 82.6794C252.101 61.9297 234.464 47.3521 212.721 47.4925L122.022 48.078Z" fill="url(#paint2_linear_413_573)"/>
<path d="M215.687 0.589142C217.916 0.603325 219.704 2.46357 219.681 4.74409C219.658 7.02461 217.832 8.86179 215.604 8.8476L123.233 8.25956C104.323 8.13917 91.2239 20.2717 91.0718 35.3914C90.9198 50.5077 103.768 62.8035 122.671 62.9292L122.684 62.9293L192.945 62.9292C195.174 62.9292 197.21 64.2432 197.21 66.6226C197.201 68.9032 195.141 71.1878 192.912 71.1878L122.626 71.1879L122.601 71.1878C100.457 71.0468 82.7922 56.1794 83.0018 35.34C83.2115 14.5006 101.173 -0.139954 123.317 0.00102234L215.687 0.589142Z" fill="url(#paint3_linear_413_573)"/>
<path d="M215.687 0.589142C217.916 0.603325 219.704 2.46357 219.681 4.74409C219.658 7.02461 217.832 8.86179 215.604 8.8476L123.233 8.25956C104.323 8.13917 91.2239 20.2717 91.0718 35.3914C90.9198 50.5077 103.768 62.8035 122.671 62.9292L122.684 62.9293L192.945 62.9292C195.174 62.9292 197.21 64.2432 197.21 66.6226C197.201 68.9032 195.141 71.1878 192.912 71.1878L122.626 71.1879L122.601 71.1878C100.457 71.0468 82.7922 56.1794 83.0018 35.34C83.2115 14.5006 101.173 -0.139954 123.317 0.00102234L215.687 0.589142Z" fill="url(#paint4_linear_413_573)"/>
<path d="M215.687 0.589142C217.916 0.603325 219.704 2.46357 219.681 4.74409C219.658 7.02461 217.832 8.86179 215.604 8.8476L123.233 8.25956C104.323 8.13917 91.2239 20.2717 91.0718 35.3914C90.9198 50.5077 103.768 62.8035 122.671 62.9292L122.684 62.9293L192.945 62.9292C195.174 62.9292 197.21 64.2432 197.21 66.6226C197.201 68.9032 195.141 71.1878 192.912 71.1878L122.626 71.1879L122.601 71.1878C100.457 71.0468 82.7922 56.1794 83.0018 35.34C83.2115 14.5006 101.173 -0.139954 123.317 0.00102234L215.687 0.589142Z" fill="url(#paint5_linear_413_573)"/>
<line x1="122.653" y1="86.2196" x2="122.653" y2="139.5" stroke="#0477BF" stroke-width="5" stroke-linecap="round"/>
<defs>
<linearGradient id="paint0_linear_413_573" x1="139.983" y1="59.2601" x2="148.322" y2="113.392" gradientUnits="userSpaceOnUse">
<stop offset="0.388356" stop-color="#ED7631"/>
<stop offset="1" stop-color="#ED7631"/>
</linearGradient>
<linearGradient id="paint1_linear_413_573" x1="139.983" y1="59.2601" x2="148.322" y2="113.392" gradientUnits="userSpaceOnUse">
<stop offset="0.388356" stop-color="#ED7631"/>
<stop offset="1" stop-color="#ED7631"/>
</linearGradient>
<linearGradient id="paint2_linear_413_573" x1="139.983" y1="59.2601" x2="148.322" y2="113.392" gradientUnits="userSpaceOnUse">
<stop offset="0.388356" stop-color="#ED7631"/>
<stop offset="1" stop-color="#ED7631"/>
</linearGradient>
<linearGradient id="paint3_linear_413_573" x1="197.396" y1="11.8195" x2="189.131" y2="66.2206" gradientUnits="userSpaceOnUse">
<stop offset="0.388356" stop-color="#0477BF"/>
<stop offset="1" stop-color="#0477BF"/>
</linearGradient>
<linearGradient id="paint4_linear_413_573" x1="197.396" y1="11.8195" x2="189.131" y2="66.2206" gradientUnits="userSpaceOnUse">
<stop offset="0.388356" stop-color="#0477BF"/>
<stop offset="1" stop-color="#0477BF"/>
</linearGradient>
<linearGradient id="paint5_linear_413_573" x1="197.396" y1="11.8195" x2="189.131" y2="66.2206" gradientUnits="userSpaceOnUse">
<stop offset="0.388356" stop-color="#0477BF"/>
<stop offset="1" stop-color="#0477BF"/>
</linearGradient>
</defs>
</svg>
