<svg width="428" height="518" viewBox="0 0 428 518" fill="none" xmlns="http://www.w3.org/2000/svg">
<path d="M355.154 36.5752C344.158 34.2058 332.706 35.1504 322.246 39.2896C311.786 43.4287 302.789 50.5766 296.392 59.8292C289.995 69.0819 286.485 80.0237 286.306 91.2711C286.128 102.519 289.288 113.566 295.389 123.017C301.489 132.468 310.255 139.898 320.577 144.368C330.9 148.837 342.317 150.145 353.383 148.125C364.449 146.106 374.668 140.851 382.747 133.024C390.827 125.197 396.404 115.151 398.773 104.154C401.92 89.411 399.097 74.0215 390.922 61.3554C382.746 48.6893 369.885 39.7789 355.154 36.5752V36.5752ZM372.191 102.902L342.253 96.451C341.118 96.2066 340.128 95.5216 339.498 94.5467C338.869 93.5718 338.653 92.3869 338.897 91.2526L345.348 61.3147C345.592 60.1804 346.277 59.1897 347.252 58.5604C348.227 57.9312 349.412 57.715 350.546 57.9594C351.681 58.2038 352.671 58.8888 353.301 59.8637C353.93 60.8386 354.146 62.0235 353.902 63.1578L348.373 88.8188L374.034 94.3481C375.168 94.5925 376.159 95.2775 376.788 96.2524C377.417 97.2272 377.633 98.4122 377.389 99.5465C377.144 100.681 376.459 101.671 375.485 102.301C374.51 102.93 373.325 103.146 372.191 102.902Z" fill="#F8F8F8"/>
<path d="M1 398.916H170.602C173.941 398.916 177.246 398.329 180.326 397.189C183.405 396.048 186.198 394.378 188.541 392.274C191.778 389.369 194.053 385.734 195.115 381.764C196.177 377.794 195.987 373.643 194.564 369.762L187.193 349.609C182.943 337.996 182.418 325.567 185.674 313.704C188.931 301.842 195.842 291.011 205.64 282.415V282.415C219.62 270.151 238.514 263.272 258.203 263.277H371L285.644 278.828C275.009 281.121 265.51 286.422 258.591 293.926V293.926C252.963 300.029 249.269 307.345 247.885 315.126C246.501 322.906 247.478 330.873 250.715 338.21L276.525 396.662C280.952 406.688 282.115 417.612 279.881 428.193C277.646 438.774 272.105 448.59 263.885 456.527C257.786 462.419 250.369 467.124 242.104 470.344C233.84 473.564 224.908 475.228 215.877 475.229H1V398.916Z" fill="#DCEBF4"/>
<path d="M216.294 476.18H2.12058C1.82338 476.18 1.53835 476.075 1.32821 475.889C1.11806 475.702 1 475.449 1 475.186C1 474.922 1.11806 474.669 1.32821 474.483C1.53835 474.296 1.82338 474.191 2.12058 474.191H216.294C226.672 474.192 236.894 471.945 246.071 467.646C255.249 463.346 263.105 457.125 268.958 449.521C274.811 441.918 278.484 433.161 279.658 424.013C280.832 414.864 279.472 405.599 275.695 397.023L249.966 338.595C247.308 332.559 246.136 326.089 246.527 319.618C246.919 313.148 248.865 306.826 252.236 301.077C255.607 295.329 260.324 290.286 266.071 286.287C271.818 282.288 278.462 279.425 285.558 277.891L359.886 264.3H258.431C246.879 264.302 235.492 266.728 225.198 271.379C214.905 276.031 205.997 282.776 199.203 291.065C192.408 299.354 187.919 308.951 186.103 319.073C184.287 329.194 185.194 339.553 188.752 349.304L196.111 369.473C197.385 372.963 197.71 376.672 197.06 380.295C196.409 383.919 194.802 387.354 192.369 390.321C189.936 393.288 186.747 395.702 183.061 397.366C179.376 399.031 175.299 399.898 171.163 399.897H2.12058C1.82338 399.897 1.53835 399.792 1.32821 399.606C1.11806 399.419 1 399.166 1 398.903C1 398.639 1.11806 398.386 1.32821 398.199C1.53835 398.013 1.82338 397.908 2.12058 397.908H171.168C174.949 397.909 178.677 397.115 182.047 395.593C185.417 394.071 188.333 391.863 190.557 389.15C192.782 386.436 194.251 383.295 194.846 379.981C195.44 376.668 195.143 373.277 193.978 370.085L186.619 349.917C182.955 339.867 182.023 329.192 183.897 318.761C185.771 308.331 190.399 298.442 197.402 289.901C204.406 281.36 213.587 274.41 224.195 269.618C234.804 264.826 246.539 262.327 258.444 262.327H370.871C371.15 262.324 371.42 262.415 371.628 262.58C371.835 262.745 371.966 262.973 371.994 263.219C372.022 263.465 371.946 263.712 371.78 263.91C371.613 264.109 371.37 264.246 371.096 264.293L286.049 279.842C279.267 281.313 272.919 284.053 267.428 287.878C261.937 291.703 257.431 296.525 254.212 302.021C250.992 307.517 249.134 313.56 248.761 319.745C248.388 325.93 249.509 332.114 252.049 337.883L277.774 396.315C281.68 405.191 283.085 414.779 281.868 424.247C280.652 433.714 276.85 442.775 270.792 450.644C264.735 458.513 256.605 464.951 247.108 469.401C237.611 473.851 227.034 476.178 216.294 476.18Z" fill="#262424"/>
<path d="M342.677 279.287C337.979 279.289 333.34 280.312 329.098 282.28C324.855 284.249 321.115 287.114 318.15 290.668C315.184 294.222 313.067 298.375 311.952 302.826C310.838 307.277 310.753 311.915 311.705 316.402C311.804 317.001 316.466 343.845 342.673 361.42C353.534 354.111 362.248 344.163 367.955 332.56C372.409 323.576 373.6 316.716 373.645 316.417C374.6 311.929 374.517 307.29 373.404 302.837C372.291 298.384 370.174 294.229 367.209 290.674C364.243 287.118 360.503 284.252 356.26 282.282C352.016 280.312 347.377 279.289 342.677 279.287ZM342.677 328.845C338.883 328.845 335.174 327.748 332.019 325.692C328.864 323.636 326.405 320.713 324.953 317.294C323.501 313.875 323.121 310.113 323.861 306.484C324.601 302.854 326.428 299.52 329.111 296.903C331.794 294.287 335.213 292.505 338.934 291.783C342.656 291.061 346.513 291.431 350.019 292.847C353.525 294.264 356.521 296.662 358.629 299.739C360.737 302.816 361.862 306.433 361.862 310.134C361.862 312.591 361.366 315.025 360.401 317.295C359.437 319.566 358.024 321.628 356.242 323.366C354.46 325.103 352.344 326.482 350.016 327.422C347.688 328.362 345.193 328.845 342.673 328.845H342.677Z" fill="#ED7631"/>
<path d="M342.677 322.714C349.801 322.714 355.576 317.082 355.576 310.134C355.576 303.186 349.801 297.554 342.677 297.554C335.553 297.554 329.778 303.186 329.778 310.134C329.778 317.082 335.553 322.714 342.677 322.714Z" fill="#ED7631"/>
<path d="M381.768 162.326C376.674 162.327 371.644 163.435 367.044 165.568C362.443 167.701 358.387 170.807 355.171 174.659C351.955 178.512 349.658 183.015 348.449 187.841C347.239 192.667 347.147 197.695 348.178 202.56C348.284 203.211 353.341 232.312 381.753 251.367C393.528 243.439 402.975 232.649 409.159 220.065C413.988 210.323 415.278 202.89 415.331 202.56C416.362 197.697 416.27 192.671 415.062 187.847C413.854 183.023 411.56 178.521 408.347 174.669C405.133 170.817 401.081 167.711 396.484 165.576C391.887 163.441 386.86 162.331 381.768 162.326V162.326ZM381.768 216.05C377.655 216.05 373.635 214.86 370.215 212.631C366.796 210.401 364.13 207.234 362.557 203.527C360.983 199.821 360.572 195.743 361.374 191.809C362.177 187.875 364.158 184.261 367.066 181.424C369.974 178.588 373.68 176.656 377.713 175.874C381.747 175.091 385.929 175.492 389.729 177.027C393.529 178.562 396.777 181.161 399.063 184.496C401.348 187.831 402.568 191.752 402.569 195.763C402.569 198.428 402.031 201.066 400.985 203.528C399.94 205.989 398.407 208.226 396.475 210.11C394.543 211.994 392.25 213.488 389.726 214.507C387.201 215.527 384.496 216.051 381.764 216.05H381.768Z" fill="#D9E8F5"/>
<path d="M381.764 209.405C389.487 209.405 395.748 203.299 395.748 195.767C395.748 188.235 389.487 182.129 381.764 182.129C374.041 182.129 367.781 188.235 367.781 195.767C367.781 203.299 374.041 209.405 381.764 209.405Z" fill="#91BED4"/>
<path d="M235.162 182.78C231.238 182.781 227.364 183.635 223.82 185.279C220.276 186.923 217.152 189.316 214.675 192.284C212.198 195.252 210.43 198.721 209.499 202.439C208.568 206.157 208.497 210.031 209.293 213.779C209.376 214.278 213.269 236.696 235.159 251.378C244.229 245.271 251.507 236.959 256.271 227.265C259.989 219.761 260.986 214.034 261.028 213.782C261.824 210.035 261.754 206.161 260.824 202.443C259.893 198.725 258.126 195.255 255.649 192.287C253.172 189.318 250.048 186.925 246.505 185.28C242.961 183.636 239.087 182.782 235.162 182.78V182.78ZM235.162 224.168C231.994 224.167 228.897 223.251 226.263 221.533C223.629 219.816 221.576 217.376 220.364 214.521C219.152 211.666 218.835 208.524 219.453 205.494C220.071 202.463 221.597 199.679 223.838 197.494C226.078 195.309 228.932 193.821 232.04 193.218C235.147 192.615 238.368 192.925 241.295 194.107C244.223 195.289 246.725 197.291 248.486 199.86C250.246 202.429 251.186 205.449 251.187 208.539C251.185 212.684 249.495 216.658 246.49 219.587C243.484 222.517 239.408 224.162 235.159 224.161L235.162 224.168Z" fill="#ED7631"/>
<path d="M235.158 219.04C241.109 219.04 245.933 214.335 245.933 208.532C245.933 202.729 241.109 198.024 235.158 198.024C229.208 198.024 224.384 202.729 224.384 208.532C224.384 214.335 229.208 219.04 235.158 219.04Z" fill="#ED7631"/>
<path d="M157.14 390.901L159.439 409.364H172.459V389.728L157.14 390.901Z" fill="white"/>
<path d="M172.459 410.36H159.435C159.186 410.36 158.945 410.27 158.758 410.109C158.571 409.947 158.452 409.724 158.422 409.483L156.123 391.02C156.107 390.887 156.118 390.752 156.157 390.623C156.196 390.494 156.26 390.375 156.347 390.271C156.435 390.167 156.542 390.082 156.664 390.02C156.786 389.958 156.919 389.92 157.057 389.91L172.376 388.737C172.516 388.726 172.658 388.744 172.791 388.789C172.924 388.834 173.046 388.906 173.149 388.999C173.253 389.093 173.335 389.206 173.391 389.332C173.448 389.459 173.476 389.595 173.476 389.732V409.368C173.475 409.631 173.367 409.882 173.177 410.068C172.987 410.254 172.728 410.359 172.459 410.36V410.36ZM160.342 408.365H171.435V390.805L158.282 391.83L160.342 408.365Z" fill="#262424"/>
<path d="M178.154 318.278C178.078 319.928 177.983 321.715 177.88 323.602C176.742 344.951 174.367 379.231 174.367 379.231H150.467L144.351 312.38C144.351 312.38 102.142 249.783 99.6875 240.811C97.9651 234.521 98.6632 217.049 99.2247 207.17C99.604 200.329 102.806 193.85 108.25 189.521C111.615 186.843 115.936 184.771 121.149 184.993C135.049 185.592 141.927 201.139 141.927 201.139C141.927 201.139 166.306 271.906 175.183 297.743C175.289 298.046 175.392 298.346 175.49 298.634C177.175 303.522 178.233 306.604 178.37 306.996C178.598 307.566 178.457 311.936 178.154 318.278Z" fill="#ED7631"/>
<path d="M178.154 318.278C178.078 319.928 177.983 321.715 177.88 323.602C173.943 321.382 171.021 317.053 170.464 311.84C169.898 306.497 171.958 301.565 175.509 298.638C177.194 303.526 178.252 306.608 178.389 307C178.598 307.566 178.457 311.936 178.154 318.278Z" fill="white"/>
<path d="M106.163 215.34H120.811C121.39 215.34 121.944 215.564 122.354 215.963C122.763 216.362 122.992 216.903 122.992 217.468V229.8C122.992 230.394 122.82 230.976 122.494 231.478C122.168 231.981 121.703 232.383 121.152 232.638L114.741 235.598C114.289 235.806 113.794 235.91 113.294 235.899C112.794 235.889 112.304 235.765 111.862 235.538L105.7 232.36C105.182 232.093 104.748 231.694 104.445 231.204C104.142 230.714 103.982 230.153 103.982 229.581V217.46C103.984 216.897 104.215 216.358 104.624 215.961C105.032 215.563 105.586 215.34 106.163 215.34V215.34Z" fill="white"/>
<path d="M164.8 378.366C164.529 378.366 164.269 378.261 164.078 378.074C163.887 377.888 163.779 377.634 163.779 377.37V309.02L128.346 237.98C128.227 237.743 128.21 237.469 128.298 237.219C128.386 236.969 128.572 236.764 128.816 236.648C129.059 236.532 129.34 236.516 129.596 236.602C129.852 236.688 130.063 236.87 130.182 237.107L165.699 308.354C165.766 308.49 165.802 308.64 165.801 308.791V377.367C165.802 377.628 165.698 377.879 165.51 378.066C165.323 378.253 165.068 378.361 164.8 378.366Z" fill="#262424"/>
<path d="M173.942 394.612H150.326C149.808 394.611 149.308 394.421 148.926 394.079C148.544 393.736 148.307 393.267 148.263 392.762L146.813 377.77C146.785 377.489 146.818 377.206 146.909 376.938C147 376.67 147.147 376.423 147.341 376.214C147.536 376.005 147.773 375.838 148.037 375.724C148.302 375.609 148.588 375.55 148.877 375.55H175.392C175.681 375.55 175.967 375.609 176.232 375.724C176.496 375.838 176.733 376.005 176.927 376.214C177.122 376.423 177.269 376.67 177.36 376.938C177.451 377.206 177.484 377.489 177.455 377.77L176.006 392.762C175.962 393.267 175.725 393.736 175.343 394.079C174.961 394.421 174.461 394.611 173.942 394.612V394.612Z" fill="#91BED4"/>
<path d="M206.796 442.357H154.572C154.572 442.357 154.192 440.023 153.953 435.779C153.469 425.971 153.915 416.14 155.285 406.412H176.53C176.53 406.412 181.841 419.832 190.225 425.015C196.948 429.17 204.319 428.908 206.349 435.779C206.869 437.477 207.051 439.612 206.796 442.357Z" fill="#ED7631"/>
<path d="M206.796 442.357H154.572C154.572 442.357 154.192 440.023 153.953 435.779H206.364C206.868 437.477 207.051 439.612 206.796 442.357Z" fill="white"/>
<path d="M206.797 443.353H154.572C154.329 443.354 154.094 443.271 153.908 443.118C153.722 442.966 153.599 442.754 153.559 442.52C153.559 442.424 153.179 440.085 152.933 435.86C152.925 435.724 152.945 435.589 152.992 435.461C153.04 435.333 153.114 435.216 153.209 435.118C153.305 435.019 153.42 434.94 153.548 434.886C153.676 434.833 153.814 434.805 153.953 434.806H206.364C206.586 434.805 206.802 434.875 206.979 435.006C207.157 435.136 207.286 435.319 207.347 435.527C207.908 437.418 208.06 439.69 207.817 442.468C207.789 442.713 207.669 442.938 207.481 443.101C207.292 443.265 207.049 443.354 206.797 443.353V443.353ZM155.456 441.362H205.844C205.96 439.829 205.867 438.287 205.567 436.778H155.042C155.186 438.92 155.357 440.478 155.456 441.362Z" fill="#262424"/>
<path d="M184.11 207.163C184.11 207.163 182.885 243.053 178.385 259.392C175.214 270.921 161.158 309.831 153.153 331.757C149.811 340.911 147.519 347.108 147.519 347.108L143.278 353.439L117.067 392.57L97.0358 379.213L114.616 338.143L130.963 248.64C130.963 248.64 119.313 215.747 138.118 194.416C156.924 173.086 183.086 176.261 184.11 207.163Z" fill="#ED7631"/>
<path d="M153.153 331.757C149.81 340.911 147.519 347.108 147.519 347.108L143.278 353.439C140.372 350.442 139.454 345.328 141.32 340.415C143.429 334.85 148.407 331.365 153.153 331.757Z" fill="white"/>
<path d="M149.807 341.88C149.643 341.88 149.482 341.841 149.337 341.767C149.191 341.694 149.066 341.587 148.972 341.457C148.878 341.326 148.817 341.176 148.794 341.018C148.772 340.86 148.789 340.699 148.843 340.548C153.18 328.786 161.42 306.182 168.104 287.12C168.192 286.87 168.378 286.664 168.621 286.547C168.864 286.431 169.145 286.413 169.402 286.498C169.658 286.584 169.869 286.765 169.989 287.002C170.108 287.24 170.126 287.514 170.039 287.764C163.347 306.841 155.076 329.452 150.77 341.232C150.697 341.424 150.566 341.588 150.393 341.704C150.221 341.82 150.016 341.881 149.807 341.88V341.88Z" fill="#262424"/>
<path d="M125.595 279.021C125.534 279.026 125.473 279.026 125.413 279.021C125.281 278.998 125.155 278.95 125.042 278.88C124.929 278.809 124.831 278.718 124.754 278.611C124.677 278.503 124.623 278.383 124.594 278.255C124.565 278.127 124.562 277.995 124.586 277.866L129.897 248.721C127.934 242.508 126.777 236.079 126.452 229.585C125.694 215.077 129.465 202.693 137.329 193.773C137.416 193.674 137.523 193.592 137.643 193.533C137.762 193.474 137.893 193.439 138.027 193.429C138.16 193.419 138.295 193.435 138.422 193.476C138.549 193.517 138.667 193.582 138.769 193.667C138.87 193.753 138.954 193.856 139.014 193.973C139.075 194.09 139.111 194.217 139.121 194.347C139.131 194.478 139.115 194.609 139.073 194.733C139.031 194.857 138.964 194.972 138.877 195.071C129.393 205.827 127.996 219.691 128.49 229.43C128.808 235.842 129.955 242.19 131.904 248.322C131.961 248.482 131.976 248.654 131.946 248.821L126.574 278.218C126.528 278.44 126.406 278.641 126.229 278.787C126.051 278.932 125.827 279.015 125.595 279.021V279.021Z" fill="#262424"/>
<path d="M137.625 215.34H152.273C152.851 215.34 153.406 215.564 153.815 215.963C154.224 216.362 154.454 216.903 154.454 217.468V229.8C154.454 230.394 154.281 230.976 153.955 231.478C153.63 231.981 153.165 232.383 152.614 232.638L146.203 235.598C145.751 235.806 145.256 235.91 144.756 235.899C144.256 235.889 143.766 235.765 143.323 235.538L137.177 232.36C136.659 232.093 136.224 231.694 135.922 231.204C135.619 230.714 135.459 230.153 135.459 229.581V217.46C135.461 216.9 135.689 216.363 136.095 215.966C136.501 215.569 137.05 215.344 137.625 215.34V215.34Z" fill="white"/>
<path d="M169.929 228.497H169.568C169.434 228.494 169.302 228.464 169.179 228.411C169.057 228.357 168.946 228.281 168.854 228.185C168.761 228.09 168.689 227.978 168.641 227.856C168.593 227.734 168.571 227.603 168.574 227.472C168.578 227.341 168.608 227.212 168.663 227.093C168.718 226.973 168.796 226.865 168.894 226.775C168.992 226.685 169.106 226.615 169.232 226.568C169.357 226.521 169.491 226.499 169.625 226.503C171.981 226.566 173.943 225.889 175.445 224.494C178.768 221.408 178.931 215.836 178.931 215.78C178.937 215.52 179.047 215.273 179.238 215.091C179.429 214.909 179.685 214.807 179.952 214.807H179.975C180.109 214.81 180.241 214.839 180.363 214.891C180.486 214.944 180.597 215.02 180.69 215.114C180.782 215.209 180.855 215.32 180.903 215.442C180.952 215.564 180.975 215.694 180.972 215.825C180.972 216.087 180.783 222.289 176.849 225.937C175.02 227.635 172.691 228.497 169.929 228.497Z" fill="#262424"/>
<path d="M112.362 386.65C112.185 386.649 112.011 386.604 111.857 386.517C111.703 386.431 111.575 386.307 111.485 386.157C111.395 386.008 111.347 385.838 111.346 385.665C111.344 385.492 111.388 385.321 111.475 385.17C111.725 384.741 136.566 342.076 138.714 338.147C140.793 334.347 158.384 279.705 162.872 259.707C167.171 240.574 170.46 214.474 170.486 214.197C170.519 213.934 170.657 213.695 170.871 213.532C171.084 213.369 171.355 213.295 171.625 213.327C171.894 213.359 172.139 213.494 172.306 213.702C172.473 213.91 172.549 214.175 172.516 214.437C172.482 214.7 169.189 240.889 164.868 260.114C160.664 278.862 142.936 334.624 140.52 339.068C138.357 343.023 114.278 384.378 113.254 386.139C113.165 386.294 113.036 386.423 112.879 386.513C112.723 386.603 112.544 386.65 112.362 386.65V386.65Z" fill="#262424"/>
<path d="M98.978 370.74C104.562 370.518 120.193 371.258 124.825 385.854C124.972 386.308 125.007 386.789 124.928 387.258C124.849 387.727 124.657 388.172 124.37 388.555L113.501 402.9C113.181 403.323 112.754 403.656 112.261 403.866C111.769 404.076 111.228 404.157 110.693 404.099C106.198 403.611 94.4293 401.48 89.2167 392.389C88.9891 391.993 88.8559 391.552 88.827 391.099C88.7981 390.646 88.8743 390.193 89.0498 389.773L96.2579 372.597C96.4817 372.066 96.8569 371.609 97.339 371.28C97.8211 370.951 98.39 370.763 98.978 370.74V370.74Z" fill="#91BED4"/>
<path d="M94.3762 390.528L86.8798 407.807L97.6464 414.585L109.092 398.49C109.092 398.49 104.323 387.427 94.3762 390.528Z" fill="white"/>
<path d="M97.6465 415.577C97.45 415.577 97.2576 415.522 97.0926 415.418L86.3259 408.639C86.1252 408.511 85.9771 408.318 85.9077 408.094C85.8384 407.87 85.8521 407.63 85.9465 407.414L93.443 390.135C93.5001 390.003 93.5859 389.884 93.6947 389.787C93.8034 389.69 93.9324 389.617 94.0728 389.573C104.786 386.243 110.007 397.991 110.044 398.113C110.111 398.267 110.137 398.436 110.119 398.603C110.101 398.77 110.04 398.929 109.942 399.067L98.4849 415.14C98.3919 415.274 98.2671 415.383 98.121 415.459C97.9749 415.535 97.8121 415.576 97.6465 415.577V415.577ZM88.1621 407.437L97.3771 413.238L107.928 398.416C106.93 396.433 102.753 389.307 95.1388 391.364L88.1621 407.437Z" fill="#262424"/>
<path d="M122.602 459.958C122.507 462.315 122.374 464.339 122.374 464.339H86.5005C86.5005 464.339 67.2852 431.039 67.2852 428.256C67.2852 427.146 69.6714 423.25 72.5547 418.94C76.9516 412.365 82.5133 404.836 82.5133 404.836C82.5133 404.836 99.3765 397.066 104.282 415.799L107.757 443.608C107.757 443.608 121.657 451.981 122.37 452.776C122.78 453.228 122.727 456.88 122.602 459.958Z" fill="#ED7631"/>
<path d="M122.602 459.958C122.507 462.315 122.374 464.339 122.374 464.339H86.5005C86.5005 464.339 67.2852 431.039 67.2852 428.257C67.2852 427.147 69.6714 423.25 72.5547 418.94C74.9903 418.374 77.5586 418.422 79.9563 419.68C88.2077 424.027 94.972 439.012 104.502 457.05L106.292 459.936H122.606L122.602 459.958Z" fill="white"/>
<path d="M122.374 465.334H86.5004C86.319 465.335 86.1408 465.288 85.9841 465.199C85.8274 465.11 85.6979 464.981 85.6089 464.827C81.0564 456.965 66.2607 431.087 66.2607 428.256C66.2607 427.694 66.2607 426.521 71.6972 418.392C71.8398 418.178 72.0611 418.026 72.3156 417.967C75.324 417.267 78.0593 417.549 80.4418 418.807C87.7903 422.677 93.8261 434.317 101.467 449.054C102.73 451.489 104.035 454.005 105.393 456.584L106.869 458.959H122.602C122.739 458.96 122.875 458.987 123.001 459.04C123.128 459.092 123.242 459.169 123.337 459.266C123.433 459.363 123.507 459.477 123.556 459.602C123.605 459.728 123.627 459.861 123.622 459.995C123.527 462.337 123.395 464.383 123.391 464.402C123.374 464.654 123.26 464.891 123.071 465.064C122.883 465.237 122.633 465.334 122.374 465.334ZM87.0922 463.34H121.407C121.441 462.741 121.49 461.897 121.532 460.953H106.296C106.12 460.954 105.947 460.91 105.793 460.825C105.639 460.741 105.511 460.62 105.42 460.472L103.629 457.586L103.595 457.527C102.224 454.932 100.908 452.409 99.6457 449.957C92.1645 435.527 86.2576 424.135 79.4744 420.564C77.6496 419.602 75.5327 419.354 73.1843 419.824C68.7343 426.51 68.3245 427.964 68.3094 428.264C68.4953 430.391 79.8082 450.69 87.0998 463.34H87.0922Z" fill="#262424"/>
<path d="M102.787 464.35H86.5005C86.5005 464.35 67.2852 431.05 67.2852 428.268C67.2852 428.268 69.33 422.584 75.3582 424.083C81.3865 425.581 85.1689 433.055 90.7912 443.119C95.0516 450.738 100.446 460.202 102.787 464.35Z" fill="white"/>
<path d="M102.787 465.334H86.5004C86.3191 465.334 86.141 465.287 85.9844 465.198C85.8278 465.109 85.6982 464.981 85.6089 464.827C81.0564 456.965 66.2607 431.087 66.2607 428.257C66.2606 428.144 66.2798 428.033 66.3176 427.927C67.1333 425.663 70.1114 421.745 75.6085 423.117C81.6785 424.619 85.4078 431.35 90.5825 440.663L91.6865 442.646C96 450.371 101.508 460.062 103.679 463.869C103.761 464.02 103.803 464.189 103.799 464.361C103.795 464.532 103.746 464.699 103.657 464.847C103.567 464.994 103.44 465.116 103.287 465.202C103.135 465.287 102.963 465.333 102.787 465.334V465.334ZM87.096 463.34H101.053C98.5114 458.874 93.7313 450.453 89.8958 443.582L88.7918 441.595C83.86 432.715 80.3052 426.321 75.1116 425.034C70.5591 423.924 68.7229 427.483 68.3321 428.39C68.905 431.128 79.941 450.919 87.0998 463.34H87.096Z" fill="#262424"/>
<path d="M68.7571 120.868C68.7571 120.868 76.3863 153.961 80.476 161.668C84.5656 169.375 98.8719 168.698 107.321 156.085L92.7412 142.528L77.2058 116.08L68.7571 120.868Z" fill="white"/>
<path d="M89.8731 167.68C89.6202 167.68 89.3787 167.68 89.1485 167.68C84.8123 167.466 81.322 165.46 79.5693 162.13C75.4683 154.397 68.0742 122.448 67.7594 121.09C67.7116 120.883 67.733 120.666 67.8204 120.472C67.9077 120.278 68.0565 120.116 68.245 120.01L76.6936 115.225C76.8103 115.159 76.9392 115.117 77.0729 115.099C77.2067 115.082 77.3425 115.091 77.4727 115.126C77.6029 115.16 77.7248 115.219 77.8313 115.3C77.9379 115.381 78.027 115.481 78.0935 115.595L93.5531 141.917L108.034 155.367C108.207 155.527 108.317 155.741 108.345 155.973C108.372 156.204 108.316 156.437 108.186 156.632C102.723 164.802 95.2792 167.68 89.8731 167.68ZM69.9218 121.36C71.0599 126.214 77.7331 154.323 81.3865 161.209C82.7978 163.866 85.6621 165.494 89.251 165.671C93.9894 165.908 100.803 163.525 105.993 156.229L92.0356 143.253C91.964 143.187 91.9026 143.111 91.8535 143.027L76.8302 117.449L69.9218 121.36Z" fill="#262424"/>
<path d="M120.037 122.618L107.415 132.752L91.1516 127.376L79.0609 139.268L63.1271 135.698L52.8005 148.056L35.7704 145.906L10.9441 76.9748L31.0889 79.513L43.3086 64.8943L62.1521 69.1197L76.4584 55.056L95.6927 61.4126L110.625 49.4246L120.037 122.618Z" fill="#ED7631"/>
<path d="M50.4788 141.71C50.2606 141.71 50.0482 141.642 49.8727 141.515C49.6972 141.389 49.5679 141.21 49.5038 141.007L32.432 87.1239C32.3924 86.9988 32.3784 86.8673 32.3909 86.7369C32.4034 86.6065 32.4421 86.4799 32.5048 86.3641C32.5675 86.2483 32.653 86.1457 32.7564 86.0621C32.8597 85.9785 32.979 85.9156 33.1073 85.877C33.2355 85.8384 33.3704 85.8248 33.5041 85.837C33.6377 85.8492 33.7676 85.8869 33.8864 85.9481C34.0051 86.0092 34.1103 86.0926 34.196 86.1934C34.2817 86.2942 34.3461 86.4105 34.3857 86.5356L51.4576 140.419C51.5045 140.568 51.5148 140.726 51.4877 140.88C51.4606 141.034 51.397 141.179 51.3018 141.305C51.2066 141.43 51.0826 141.532 50.9397 141.603C50.7968 141.673 50.6389 141.71 50.4788 141.71V141.71Z" fill="white"/>
<path d="M61.2417 129.959C61.0166 129.959 60.7978 129.886 60.6194 129.752C60.441 129.619 60.313 129.431 60.2553 129.219L44.2077 71.891C44.1724 71.7647 44.1629 71.6328 44.1798 71.5029C44.1966 71.373 44.2396 71.2476 44.3062 71.1338C44.3728 71.0201 44.4617 70.9203 44.5678 70.8401C44.6739 70.7599 44.7952 70.7008 44.9248 70.6663C45.0543 70.6318 45.1895 70.6226 45.3227 70.639C45.4559 70.6555 45.5845 70.6974 45.7011 70.7623C45.8177 70.8273 45.9201 70.914 46.0023 71.0175C46.0846 71.121 46.1451 71.2393 46.1805 71.3656L62.2318 128.697C62.2733 128.845 62.2791 129.001 62.2487 129.152C62.2184 129.303 62.1528 129.445 62.057 129.567C61.9612 129.689 61.8377 129.788 61.6963 129.856C61.5549 129.924 61.3993 129.959 61.2417 129.959Z" fill="white"/>
<path d="M77.5775 134.118C77.3471 134.118 77.1234 134.042 76.9429 133.902C76.7625 133.762 76.6358 133.567 76.5835 133.348L62.6415 75.48C62.6108 75.3524 62.6062 75.2203 62.628 75.091C62.6497 74.9617 62.6974 74.8379 62.7682 74.7266C62.839 74.6152 62.9316 74.5186 63.0407 74.4422C63.1498 74.3658 63.2732 74.3111 63.404 74.2812C63.5348 74.2513 63.6703 74.2468 63.8029 74.268C63.9354 74.2892 64.0624 74.3357 64.1765 74.4048C64.2907 74.4738 64.3897 74.5641 64.4681 74.6705C64.5465 74.7769 64.6026 74.8973 64.6332 75.0249L78.5752 132.878C78.6128 133.026 78.6153 133.179 78.5826 133.328C78.5499 133.477 78.483 133.616 78.3867 133.735C78.2905 133.855 78.1676 133.952 78.0274 134.018C77.8872 134.084 77.7333 134.118 77.5775 134.118V134.118Z" fill="white"/>
<path d="M89.6606 121.034C89.4243 121.034 89.1955 120.953 89.013 120.807C88.8305 120.661 88.7054 120.457 88.659 120.231L76.9477 62.5892C76.9228 62.4607 76.9241 62.3286 76.9515 62.2006C76.9789 62.0726 77.0319 61.951 77.1075 61.843C77.183 61.7349 77.2797 61.6425 77.3919 61.5708C77.5041 61.4992 77.6297 61.4498 77.7615 61.4255C77.8932 61.4012 78.0286 61.4025 78.1599 61.4292C78.2912 61.456 78.4158 61.5077 78.5266 61.5814C78.6374 61.6551 78.7322 61.7493 78.8056 61.8588C78.8791 61.9682 78.9297 62.0907 78.9546 62.2192L90.6621 119.843C90.6912 119.987 90.6872 120.136 90.6504 120.279C90.6135 120.422 90.5448 120.555 90.4491 120.669C90.3534 120.783 90.2331 120.874 90.0968 120.938C89.9605 121.001 89.8115 121.034 89.6606 121.034Z" fill="white"/>
<path d="M106.076 125.023C105.833 125.023 105.599 124.939 105.414 124.786C105.229 124.633 105.106 124.42 105.067 124.187L96.0075 69.56C95.9642 69.299 96.0291 69.0319 96.1877 68.8175C96.3464 68.6031 96.5859 68.4589 96.8535 68.4167C97.1211 68.3745 97.395 68.4377 97.6148 68.5925C97.8347 68.7472 97.9825 68.9808 98.0258 69.2418L107.089 123.883C107.11 124.025 107.099 124.169 107.058 124.306C107.016 124.443 106.945 124.57 106.849 124.678C106.753 124.786 106.634 124.873 106.501 124.933C106.368 124.992 106.223 125.023 106.076 125.023V125.023Z" fill="white"/>
<path d="M122.071 95.1862C122.071 95.1862 111.274 99.3376 103.508 110.63C95.742 121.922 85.1119 141.34 85.1119 141.34C85.1119 141.34 88.2456 163.137 110.731 157.82C110.731 157.82 128.717 124.327 132.261 111.17C135.804 98.013 129.874 91.9635 122.071 95.1862Z" fill="#91BED4"/>
<path d="M108.622 156.232C94.2548 156.232 87.5095 141.433 87.4412 141.266C87.3335 141.024 87.329 140.749 87.4286 140.504C87.5282 140.258 87.7238 140.061 87.9723 139.956C88.2209 139.851 88.502 139.847 88.7538 139.944C89.0057 140.041 89.2077 140.232 89.3153 140.474C89.3988 140.659 95.8444 154.719 109.324 154.227C109.594 154.217 109.858 154.313 110.056 154.492C110.255 154.672 110.372 154.921 110.382 155.185C110.392 155.449 110.294 155.706 110.11 155.9C109.926 156.094 109.67 156.208 109.399 156.218C109.141 156.229 108.88 156.232 108.622 156.232Z" fill="#262424"/>
<path d="M149.325 76.0461C149.325 76.0461 151.37 81.5295 159.75 84.4192C169.083 87.6382 173.65 74.7511 173.753 63.3884C173.855 52.0257 144.42 52.725 149.325 76.0461Z" fill="white"/>
<path d="M162.577 85.9251C161.495 85.9139 160.424 85.7224 159.409 85.359C150.683 82.3472 148.456 76.6307 148.365 76.3865C148.348 76.3407 148.334 76.2937 148.323 76.2459C146.142 65.8859 150.702 60.6726 153.635 58.4859C158.912 54.5306 165.93 54.5269 170.137 56.573C173.172 58.053 174.815 60.4654 174.792 63.3958C174.728 70.7662 172.694 80.7044 167.186 84.4858C165.843 85.4262 164.23 85.9298 162.577 85.9251V85.9251ZM150.311 75.7649C150.569 76.3754 152.698 80.9449 160.092 83.4794C162.311 84.2453 164.242 84.0344 165.995 82.8356C170.547 79.7202 172.664 70.818 172.729 63.381C172.755 60.5135 170.536 59.0039 169.208 58.3601C165.657 56.6359 159.424 56.6507 154.86 60.0695C151.78 62.382 148.49 66.97 150.311 75.7649V75.7649Z" fill="#262424"/>
<path d="M150.315 77.6075L147.455 89.836L160.945 90.8313L161.693 78.0071L150.315 77.6075Z" fill="white"/>
<path d="M160.945 91.8303H160.869L147.379 90.835C147.232 90.8243 147.089 90.7828 146.961 90.7132C146.832 90.6437 146.72 90.5478 146.633 90.4322C146.546 90.3166 146.485 90.1839 146.455 90.0433C146.426 89.9027 146.427 89.7575 146.461 89.6177L149.321 77.4077C149.375 77.1825 149.508 76.9825 149.696 76.8415C149.884 76.7006 150.116 76.6274 150.353 76.6344L161.734 77.034C161.87 77.0387 162.004 77.0699 162.128 77.1257C162.251 77.1816 162.362 77.261 162.453 77.3593C162.545 77.4575 162.616 77.5727 162.661 77.6979C162.706 77.8231 162.725 77.9559 162.717 78.0885L161.958 90.9127C161.938 91.1617 161.823 91.3943 161.635 91.5643C161.448 91.7342 161.201 91.8292 160.945 91.8303V91.8303ZM148.714 88.9295L159.982 89.762L160.611 78.9654L151.127 78.6324L148.714 88.9295Z" fill="#262424"/>
<path d="M156.973 47.3415C156.973 47.3415 150.023 43.6415 142.663 50.431C135.303 57.2205 142.356 73.6559 149.112 79.6351H161.784L170.062 65.083L173.996 68.9199C175.886 66.8413 177.149 64.293 177.645 61.5573C178.141 58.8216 177.851 56.0054 176.807 53.4206C173.241 44.252 159.853 46.3425 156.973 47.3415Z" fill="#262424"/>
<path d="M170.027 65.2199L170.073 65.083C170.073 65.083 173.138 59.903 177.736 62.9888C182.334 66.0746 176.818 77.9405 169.458 73.556C168.955 70.7733 169.15 67.913 170.027 65.2199V65.2199Z" fill="white"/>
<path d="M172.694 75.5059C171.357 75.4839 170.053 75.0995 168.927 74.3959C168.803 74.3224 168.697 74.224 168.615 74.1072C168.534 73.9904 168.478 73.858 168.453 73.7188C167.923 70.778 168.129 67.7559 169.052 64.9091L169.098 64.7722C169.12 64.704 169.149 64.6382 169.185 64.5761C169.254 64.4614 170.889 61.7419 173.692 61.124C175.232 60.7836 176.788 61.124 178.317 62.16C181.272 64.1432 180.847 68.7534 178.761 71.8873C177.19 74.2627 175.005 75.5059 172.694 75.5059ZM170.392 72.9159C174.015 74.7659 176.393 71.8059 177.05 70.7995C178.62 68.4389 179.041 65.0645 177.16 63.7991C176.109 63.0924 175.122 62.8519 174.147 63.0591C172.452 63.4291 171.264 65.0978 171.01 65.4826V65.5011C170.229 67.8985 170.017 70.438 170.392 72.927V72.9159Z" fill="#262424"/>
<path d="M142.003 93.61L143.9 86.6318C143.9 86.6318 152.417 83.176 164.341 87.2312L165.858 94.2612L142.003 93.61Z" fill="#ED7631"/>
<path d="M122.071 95.1862C122.071 95.1862 134.742 90.1024 154.367 91.4862C173.992 92.87 185.855 98.4644 185.855 98.4644C185.855 98.4644 192.908 130.825 193.044 139.997C193.181 149.169 181.724 156.88 181.724 156.88L186.564 209.316H95.6017C95.6017 209.316 97.0319 127.58 122.071 95.1862Z" fill="#91BED4"/>
<path d="M100.723 157.165C100.575 157.165 100.429 157.133 100.294 157.072C100.16 157.011 100.041 156.923 99.9448 156.813C99.8489 156.703 99.7786 156.574 99.7388 156.435C99.6989 156.295 99.6905 156.149 99.7141 156.007C104.468 127.598 111.714 106.93 121.259 94.5868C121.422 94.3758 121.664 94.2366 121.932 94.1998C122.201 94.1631 122.473 94.2317 122.689 94.3907C122.905 94.5496 123.048 94.7859 123.086 95.0475C123.124 95.3091 123.053 95.5746 122.89 95.7856C113.55 107.87 106.429 128.242 101.729 156.329C101.69 156.562 101.568 156.774 101.383 156.927C101.199 157.08 100.965 157.164 100.723 157.165V157.165Z" fill="#262424"/>
<path d="M184.11 204.529H98.5987C98.3276 204.529 98.0675 204.424 97.8757 204.237C97.684 204.05 97.5763 203.796 97.5763 203.531C97.5763 203.267 97.684 203.013 97.8757 202.826C98.0675 202.639 98.3276 202.534 98.5987 202.534H184.11C184.381 202.534 184.641 202.639 184.833 202.826C185.025 203.013 185.132 203.267 185.132 203.531C185.132 203.796 185.025 204.05 184.833 204.237C184.641 204.424 184.381 204.529 184.11 204.529V204.529Z" fill="#262424"/>
<path d="M137.591 53.8905L136.661 59.3036C136.591 59.7136 136.688 60.1341 136.931 60.4755C137.174 60.8169 137.544 61.0522 137.963 61.1314L142.352 61.9602C142.572 62.0014 142.797 61.9983 143.016 61.951C143.234 61.9037 143.44 61.8133 143.621 61.6854C143.802 61.5574 143.954 61.3946 144.068 61.2071C144.182 61.0195 144.255 60.8112 144.283 60.5949L145.015 54.9413C145.068 54.5269 144.953 54.1088 144.693 53.7767C144.433 53.4446 144.051 53.2251 143.627 53.1653L139.435 52.577C139.012 52.5182 138.583 52.6225 138.239 52.8679C137.894 53.1133 137.662 53.4803 137.591 53.8905V53.8905Z" fill="white"/>
<path d="M142.659 62.9851C142.491 62.9847 142.324 62.9686 142.159 62.937L137.769 62.1082C137.092 61.9795 136.492 61.5984 136.098 61.0459C135.703 60.4933 135.545 59.8127 135.656 59.1482L136.586 53.7351C136.7 53.068 137.078 52.4712 137.638 52.0723C138.198 51.6733 138.896 51.5039 139.583 51.6002L143.775 52.17C144.464 52.2665 145.088 52.6236 145.51 53.1641C145.932 53.7047 146.12 54.3855 146.032 55.0597L145.3 60.7133C145.22 61.3411 144.908 61.9188 144.421 62.3373C143.935 62.7559 143.308 62.9863 142.659 62.9851V62.9851ZM138.6 54.0533L137.671 59.4664C137.643 59.6198 137.678 59.7778 137.769 59.9059C137.86 60.0341 137.999 60.1221 138.156 60.1509L142.557 60.9797C142.639 60.9956 142.724 60.9947 142.806 60.9773C142.888 60.9598 142.965 60.9261 143.033 60.8782C143.101 60.8303 143.158 60.7692 143.201 60.6988C143.244 60.6285 143.271 60.5502 143.282 60.4691L144.014 54.8155C144.033 54.6603 143.99 54.5038 143.893 54.3794C143.796 54.2549 143.653 54.1724 143.494 54.1495L139.302 53.5612C139.144 53.5397 138.983 53.5791 138.855 53.6709C138.726 53.7627 138.638 53.8999 138.611 54.0533H138.6Z" fill="#262424"/>
<path d="M121.255 126.492C94.5356 138.806 86.766 110.445 94.1221 107.359C101.478 104.273 112.613 97.8909 107.021 85.9251C101.429 73.9593 97.8514 54.2272 112.666 46.3055C127.481 38.3838 140.125 54.4085 140.129 54.4159C140.178 54.5491 140.243 56.721 138.934 59.7994C132.921 60.7392 129.829 65.6935 133.429 77.3263C137.246 89.7546 147.974 114.178 121.255 126.492Z" fill="#262424"/>
<path d="M207.923 132.164L219.881 111.929L220.564 77.6149C220.573 77.1693 220.761 76.7449 221.087 76.4329C221.413 76.1209 221.852 75.9461 222.309 75.9462V75.9462C222.738 75.9463 223.151 76.1002 223.471 76.3786C223.791 76.657 223.994 77.0405 224.043 77.4558L225.913 93.6877C225.913 93.6877 237.154 93.8875 238.994 96.8771C240.61 99.5041 237.052 107.444 237.052 107.444C237.052 107.444 237.154 111.929 236.134 113.623C235.113 115.318 231.536 117.013 231.536 117.013C231.536 117.013 224.172 169.46 212.316 168.946C200.461 168.431 187.79 148.71 187.79 148.71L207.923 132.164Z" fill="white"/>
<path d="M212.491 169.945H212.275C200.025 169.43 187.452 150.068 186.925 149.243C186.794 149.04 186.743 148.797 186.781 148.559C186.82 148.322 186.945 148.106 187.134 147.952L207.13 131.52L218.868 111.659L219.544 77.6186C219.552 76.9304 219.83 76.2714 220.32 75.7765C220.811 75.2816 221.477 74.9883 222.182 74.9566C222.887 74.9249 223.577 75.1573 224.112 75.6061C224.647 76.0549 224.986 76.6862 225.06 77.3707L226.831 92.7405C229.961 92.8589 238.065 93.4472 239.874 96.3887C241.597 99.1896 238.861 105.887 238.08 107.666C238.08 108.695 238.049 112.439 237.018 114.152C236.081 115.706 233.573 117.112 232.465 117.69C232.086 120.254 230.284 131.935 227.359 143.431C222.818 161.257 217.95 169.945 212.491 169.945ZM189.14 148.903C191.542 152.418 202.419 167.529 212.362 167.947H212.487C220.397 167.947 227.738 136.693 230.519 116.887C230.542 116.724 230.605 116.57 230.704 116.437C230.802 116.304 230.933 116.197 231.084 116.125C232.363 115.518 234.62 114.167 235.257 113.128C235.895 112.088 236.073 109.098 236.035 107.474C236.031 107.329 236.06 107.185 236.118 107.052C237.507 103.948 239.047 98.9121 238.122 97.3988C237.056 95.6635 230.329 94.7718 225.898 94.6941C225.65 94.6902 225.412 94.5983 225.228 94.4355C225.045 94.2728 224.928 94.0503 224.9 93.8098L223.03 77.5779C223.021 77.3915 222.936 77.2162 222.795 77.0906C222.653 76.965 222.466 76.8994 222.275 76.9082C222.084 76.9171 221.904 76.9996 221.775 77.1377C221.647 77.2758 221.579 77.4581 221.588 77.6445L220.906 111.958C220.902 112.126 220.855 112.29 220.769 112.436L208.811 132.671C208.751 132.771 208.674 132.86 208.583 132.934L189.14 148.903Z" fill="#262424"/>
<path d="M185.847 98.4755L214.873 131.775C215.15 147.419 208.652 156.891 190.244 155.5C190.244 155.5 171.655 132.375 167.046 117.02C162.436 101.665 177.569 93.8912 185.847 98.4755Z" fill="#91BED4"/>
<path d="M185.84 150.727C185.677 150.727 185.517 150.69 185.373 150.618C185.228 150.546 185.104 150.441 185.009 150.312C179.318 142.609 169.291 128.079 166.059 117.294C162.91 106.786 168.453 99.5744 175.342 97.0917C175.468 97.0462 175.602 97.0254 175.736 97.0304C175.87 97.0354 176.002 97.066 176.124 97.1207C176.246 97.1753 176.355 97.2528 176.446 97.3488C176.538 97.4447 176.608 97.5573 176.655 97.68C176.702 97.8026 176.723 97.9331 176.718 98.0638C176.713 98.1946 176.681 98.323 176.625 98.4419C176.569 98.5608 176.49 98.6677 176.391 98.7567C176.293 98.8456 176.178 98.9147 176.052 98.9602C170.054 101.125 165.243 107.47 168.02 116.72C171.165 127.217 181.052 141.532 186.667 149.132C186.782 149.281 186.852 149.458 186.869 149.643C186.886 149.828 186.849 150.015 186.763 150.181C186.677 150.347 186.544 150.486 186.381 150.583C186.218 150.679 186.031 150.729 185.84 150.727Z" fill="#262424"/>
<path d="M194.008 151.833C192.671 151.838 191.336 151.714 190.024 151.463C189.893 151.436 189.769 151.383 189.658 151.308C189.548 151.234 189.453 151.139 189.381 151.029C189.234 150.806 189.183 150.536 189.241 150.277C189.298 150.019 189.458 149.793 189.686 149.65C189.914 149.506 190.192 149.457 190.457 149.513C190.559 149.536 198.386 151.097 204.148 146.757C208.041 143.823 210.173 138.861 210.48 132.005C210.486 131.874 210.518 131.746 210.575 131.627C210.632 131.509 210.712 131.402 210.811 131.314C210.91 131.226 211.026 131.157 211.152 131.113C211.278 131.068 211.412 131.048 211.546 131.054C211.68 131.06 211.812 131.091 211.933 131.147C212.055 131.202 212.164 131.28 212.254 131.377C212.345 131.473 212.415 131.586 212.461 131.709C212.507 131.832 212.527 131.963 212.521 132.094C212.183 139.571 209.782 145.044 205.381 148.348C201.584 151.215 197.137 151.833 194.008 151.833Z" fill="#262424"/>
<path d="M48.8171 213.723C45.0702 213.723 41.4767 215.175 38.8272 217.759C36.1777 220.343 34.6892 223.848 34.6892 227.502C34.6892 225.692 34.3238 223.901 33.6138 222.229C32.9038 220.557 31.8631 219.038 30.5512 217.759C29.2393 216.479 27.6819 215.464 25.9678 214.772C24.2537 214.08 22.4166 213.723 20.5613 213.723C22.4166 213.723 24.2537 213.367 25.9678 212.674C27.6819 211.982 29.2393 210.967 30.5512 209.687C31.8631 208.408 32.9038 206.889 33.6138 205.217C34.3238 203.545 34.6892 201.754 34.6892 199.944C34.6892 203.599 36.1777 207.103 38.8272 209.687C41.4767 212.271 45.0702 213.723 48.8171 213.723V213.723Z" fill="#ED7631"/>
<path d="M282.36 53.4761C279.716 53.4771 277.181 54.5018 275.312 56.3252C273.442 58.1485 272.391 60.6211 272.39 63.1997C272.389 60.6211 271.339 58.1485 269.469 56.3252C267.6 54.5018 265.064 53.4771 262.42 53.4761C265.064 53.4751 267.6 52.4504 269.469 50.627C271.339 48.8037 272.389 46.3311 272.39 43.7525C272.391 46.3311 273.442 48.8037 275.312 50.627C277.181 52.4504 279.716 53.4751 282.36 53.4761V53.4761Z" fill="#91BED4"/>
<path d="M299.982 172.176C302.228 172.176 304.049 170.4 304.049 168.209C304.049 166.019 302.228 164.243 299.982 164.243C297.736 164.243 295.916 166.019 295.916 168.209C295.916 170.4 297.736 172.176 299.982 172.176Z" fill="#91BED4"/>
<path d="M65.0771 320.49C68.3143 320.49 70.9385 317.931 70.9385 314.774C70.9385 311.617 68.3143 309.057 65.0771 309.057C61.84 309.057 59.2158 311.617 59.2158 314.774C59.2158 317.931 61.84 320.49 65.0771 320.49Z" fill="#91BED4"/>
</svg>
