<svg width="428" height="602" viewBox="0 0 428 602" fill="none" xmlns="http://www.w3.org/2000/svg">
<path d="M312.546 565.338H85.6087C85.3567 565.338 85.115 565.238 84.9368 565.06C84.7586 564.882 84.6584 564.64 84.6584 564.388C84.6584 564.136 84.7586 563.894 84.9368 563.716C85.115 563.538 85.3567 563.438 85.6087 563.438H312.546C312.798 563.438 313.039 563.538 313.217 563.716C313.396 563.894 313.496 564.136 313.496 564.388C313.496 564.64 313.396 564.882 313.217 565.06C313.039 565.238 312.798 565.338 312.546 565.338Z" fill="#262424"/>
<path d="M343.54 565.338H326.555C326.303 565.338 326.061 565.238 325.883 565.06C325.705 564.882 325.605 564.64 325.605 564.388C325.605 564.136 325.705 563.894 325.883 563.716C326.061 563.538 326.303 563.438 326.555 563.438H343.54C343.792 563.438 344.034 563.538 344.212 563.716C344.39 563.894 344.49 564.136 344.49 564.388C344.49 564.64 344.39 564.882 344.212 565.06C344.034 565.238 343.792 565.338 343.54 565.338Z" fill="#262424"/>
<path d="M191.948 274.138C255.047 274.138 306.199 222.986 306.199 159.887C306.199 96.7878 255.047 45.6359 191.948 45.6359C128.849 45.6359 77.6968 96.7878 77.6968 159.887C77.6968 222.986 128.849 274.138 191.948 274.138Z" fill="white"/>
<path d="M191.948 275.088C165.295 275.088 139.468 265.847 118.865 248.939C98.262 232.031 84.1593 208.503 78.9595 182.362C73.7597 156.222 77.7845 129.088 90.3483 105.582C102.912 82.0766 123.237 63.6547 147.861 53.4551C172.484 43.2555 199.883 41.9093 225.388 49.646C250.892 57.3826 272.926 73.7234 287.733 95.884C302.541 118.045 309.206 144.654 306.594 171.178C303.981 197.702 292.253 222.5 273.407 241.346C262.735 252.077 250.04 260.585 236.057 266.376C222.075 272.168 207.082 275.129 191.948 275.088ZM191.948 46.5862C129.473 46.5862 78.6601 97.4122 78.6601 159.887C78.6601 222.362 129.486 273.188 191.961 273.188C254.436 273.188 305.262 222.362 305.262 159.887C305.262 97.4122 254.423 46.5862 191.948 46.5862Z" fill="#262424"/>
<path d="M191.948 74.2825V159.887L117.79 117.08C125.303 104.062 136.113 93.2524 149.131 85.7393C162.149 78.2261 176.917 74.2747 191.948 74.2825Z" fill="#ED7631"/>
<path d="M144.158 78.0579C143.99 78.0582 143.826 78.0142 143.681 77.9303C143.536 77.8465 143.415 77.7259 143.332 77.5806L140.073 71.9304C139.947 71.712 139.912 71.4525 139.978 71.209C140.043 70.9655 140.202 70.7579 140.421 70.6318C140.639 70.5058 140.899 70.4717 141.142 70.537C141.386 70.6024 141.593 70.7617 141.719 70.9801L144.979 76.6303C145.063 76.7747 145.107 76.9387 145.107 77.1057C145.108 77.2726 145.064 77.4368 144.981 77.5815C144.898 77.7263 144.778 77.8465 144.633 77.9301C144.489 78.0138 144.325 78.0579 144.158 78.0579Z" fill="#262424"/>
<path d="M109.168 113.047C109.002 113.046 108.839 113.002 108.695 112.918L103.045 109.65C102.827 109.524 102.667 109.316 102.602 109.073C102.537 108.829 102.571 108.57 102.697 108.351C102.823 108.133 103.03 107.974 103.274 107.908C103.518 107.843 103.777 107.877 103.995 108.003L109.646 111.263C109.833 111.364 109.98 111.526 110.064 111.722C110.148 111.918 110.164 112.137 110.109 112.343C110.054 112.548 109.931 112.73 109.761 112.858C109.59 112.985 109.381 113.052 109.168 113.047Z" fill="#262424"/>
<path d="M103.522 211.891C103.312 211.893 103.107 211.824 102.94 211.697C102.773 211.57 102.653 211.39 102.598 211.187C102.543 210.984 102.558 210.769 102.639 210.575C102.72 210.381 102.863 210.219 103.045 210.115L108.695 206.856C108.914 206.73 109.173 206.696 109.417 206.761C109.66 206.826 109.868 206.986 109.994 207.204C110.12 207.422 110.154 207.682 110.089 207.926C110.023 208.169 109.864 208.377 109.646 208.503L103.995 211.762C103.852 211.846 103.689 211.89 103.522 211.891Z" fill="#262424"/>
<path d="M140.894 249.262C140.727 249.262 140.563 249.218 140.418 249.135C140.274 249.051 140.154 248.931 140.071 248.786C139.987 248.641 139.944 248.477 139.944 248.31C139.944 248.143 139.989 247.979 140.073 247.835L143.332 242.185C143.458 241.966 143.666 241.807 143.909 241.741C144.153 241.676 144.412 241.71 144.631 241.836C144.849 241.962 145.008 242.17 145.074 242.413C145.139 242.657 145.105 242.916 144.979 243.135L141.72 248.785C141.636 248.93 141.516 249.051 141.371 249.135C141.226 249.219 141.061 249.263 140.894 249.262Z" fill="#262424"/>
<path d="M243.002 249.262C242.834 249.263 242.67 249.219 242.525 249.135C242.38 249.051 242.26 248.93 242.176 248.785L238.917 243.135C238.791 242.916 238.757 242.657 238.822 242.413C238.887 242.17 239.047 241.962 239.265 241.836C239.483 241.71 239.743 241.676 239.987 241.741C240.23 241.807 240.438 241.966 240.564 242.185L243.823 247.835C243.907 247.979 243.951 248.143 243.952 248.31C243.952 248.477 243.908 248.641 243.825 248.786C243.742 248.931 243.622 249.051 243.477 249.135C243.333 249.218 243.169 249.262 243.002 249.262Z" fill="#262424"/>
<path d="M280.373 211.891C280.207 211.89 280.044 211.846 279.9 211.762L274.25 208.503C274.031 208.377 273.872 208.169 273.807 207.926C273.741 207.682 273.775 207.422 273.901 207.204C274.027 206.986 274.235 206.826 274.479 206.761C274.722 206.696 274.982 206.73 275.2 206.856L280.85 210.115C281.033 210.219 281.176 210.381 281.257 210.575C281.338 210.769 281.352 210.984 281.297 211.187C281.243 211.39 281.123 211.57 280.955 211.697C280.788 211.824 280.583 211.893 280.373 211.891Z" fill="#262424"/>
<path d="M274.74 113.047C274.53 113.048 274.325 112.98 274.158 112.853C273.99 112.726 273.87 112.546 273.816 112.343C273.761 112.14 273.775 111.925 273.856 111.731C273.937 111.537 274.08 111.375 274.263 111.271L279.9 108.007C280.008 107.945 280.128 107.904 280.251 107.888C280.375 107.872 280.501 107.88 280.621 107.913C280.742 107.945 280.855 108.001 280.954 108.077C281.053 108.153 281.136 108.248 281.199 108.356C281.261 108.464 281.302 108.583 281.318 108.707C281.334 108.831 281.326 108.957 281.293 109.077C281.261 109.198 281.205 109.311 281.129 109.41C281.053 109.509 280.958 109.592 280.85 109.654L275.2 112.914C275.061 112.997 274.902 113.043 274.74 113.047Z" fill="#262424"/>
<path d="M239.738 78.0579C239.571 78.0579 239.407 78.0138 239.262 77.9301C239.118 77.8465 238.998 77.7263 238.915 77.5815C238.831 77.4368 238.788 77.2726 238.788 77.1057C238.788 76.9387 238.833 76.7747 238.917 76.6303L242.176 70.9801C242.302 70.7617 242.51 70.6024 242.753 70.537C242.997 70.4717 243.256 70.5058 243.475 70.6318C243.693 70.7579 243.852 70.9655 243.918 71.209C243.983 71.4525 243.949 71.712 243.823 71.9304L240.564 77.5806C240.48 77.7259 240.36 77.8465 240.215 77.9303C240.07 78.0142 239.905 78.0582 239.738 78.0579Z" fill="#262424"/>
<path d="M191.948 75.3747C191.696 75.3747 191.454 75.2746 191.276 75.0964C191.098 74.9182 190.998 74.6765 190.998 74.4244V57.7834C190.998 57.5314 191.098 57.2897 191.276 57.1115C191.454 56.9333 191.696 56.8331 191.948 56.8331C192.2 56.8331 192.442 56.9333 192.62 57.1115C192.798 57.2897 192.898 57.5314 192.898 57.7834V74.4244C192.898 74.6765 192.798 74.9182 192.62 75.0964C192.442 75.2746 192.2 75.3747 191.948 75.3747Z" fill="#262424"/>
<path d="M294.051 160.82H277.41C277.158 160.82 276.917 160.72 276.738 160.542C276.56 160.363 276.46 160.122 276.46 159.87C276.46 159.618 276.56 159.376 276.738 159.198C276.917 159.02 277.158 158.919 277.41 158.919H294.051C294.303 158.919 294.545 159.02 294.723 159.198C294.901 159.376 295.002 159.618 295.002 159.87C295.002 160.122 294.901 160.363 294.723 160.542C294.545 160.72 294.303 160.82 294.051 160.82Z" fill="#262424"/>
<path d="M191.948 262.945C191.696 262.945 191.454 262.845 191.276 262.667C191.098 262.488 190.998 262.247 190.998 261.995V245.354C190.998 245.102 191.098 244.86 191.276 244.682C191.454 244.504 191.696 244.403 191.948 244.403C192.2 244.403 192.442 244.504 192.62 244.682C192.798 244.86 192.898 245.102 192.898 245.354V261.995C192.898 262.247 192.798 262.488 192.62 262.667C192.442 262.845 192.2 262.945 191.948 262.945Z" fill="#262424"/>
<path d="M106.485 160.82H89.8399C89.5879 160.82 89.3462 160.72 89.168 160.542C88.9898 160.363 88.8896 160.122 88.8896 159.87C88.8896 159.618 88.9898 159.376 89.168 159.198C89.3462 159.02 89.5879 158.919 89.8399 158.919H106.481C106.733 158.919 106.975 159.018 107.154 159.196C107.332 159.374 107.433 159.616 107.433 159.868C107.434 160.12 107.334 160.362 107.157 160.54C106.979 160.719 106.737 160.819 106.485 160.82Z" fill="#262424"/>
<path d="M204.065 492.677L200.604 520.352H212.24L218.844 492.677H204.065Z" fill="white"/>
<path d="M212.24 521.302H200.604C200.469 521.302 200.336 521.273 200.213 521.217C200.09 521.162 199.98 521.081 199.891 520.979C199.802 520.878 199.736 520.759 199.696 520.63C199.657 520.501 199.645 520.365 199.662 520.231L203.102 492.552C203.131 492.322 203.242 492.11 203.415 491.957C203.589 491.803 203.812 491.718 204.044 491.718H218.84C218.984 491.718 219.126 491.75 219.256 491.813C219.385 491.876 219.499 491.967 219.588 492.08C219.677 492.193 219.739 492.325 219.77 492.466C219.8 492.606 219.799 492.752 219.765 492.892L213.16 520.571C213.111 520.778 212.993 520.963 212.826 521.096C212.659 521.228 212.453 521.301 212.24 521.302ZM201.679 519.401H211.487L217.636 493.627H204.904L201.679 519.401Z" fill="#262424"/>
<path d="M219.476 564.388H168.208V558.441C168.207 557.589 168.269 556.738 168.392 555.895C168.91 552.287 170.511 548.92 172.985 546.242C177.715 541.129 185.455 531.751 194.003 517.363H217.748C217.748 517.363 218.935 540.265 219.343 555.895C219.425 559.125 219.476 562.049 219.476 564.388Z" fill="#91BED4"/>
<path d="M219.476 564.388H168.208V558.441C168.207 557.589 168.269 556.738 168.392 555.895H219.339C219.425 559.125 219.476 562.049 219.476 564.388Z" fill="white"/>
<path d="M219.477 565.338H168.208C168.083 565.338 167.959 565.314 167.844 565.266C167.729 565.218 167.624 565.148 167.536 565.06C167.447 564.972 167.377 564.867 167.33 564.752C167.282 564.636 167.257 564.513 167.257 564.388V558.441C167.257 557.543 167.322 556.646 167.451 555.758C167.484 555.532 167.597 555.325 167.77 555.176C167.943 555.027 168.164 554.945 168.393 554.945H219.339C219.587 554.945 219.824 555.042 220.002 555.214C220.179 555.387 220.283 555.622 220.289 555.87C220.38 559.331 220.427 562.199 220.427 564.388C220.427 564.513 220.402 564.636 220.355 564.752C220.307 564.867 220.237 564.972 220.149 565.06C220.06 565.148 219.956 565.218 219.84 565.266C219.725 565.314 219.601 565.338 219.477 565.338ZM169.167 563.438H218.531C218.531 561.623 218.483 559.413 218.419 556.846H169.235C169.184 557.375 169.158 557.908 169.158 558.441V563.433L169.167 563.438Z" fill="#262424"/>
<path d="M214.286 298.932L202.964 481.51L227.496 481.983L267.219 324.478C267.833 322.05 268.217 319.569 268.367 317.069C269.189 303.262 270.087 258.757 247.783 258.357C221.364 257.884 216.643 279.117 214.286 298.932Z" fill="#91BED4"/>
<path d="M221.992 479.631C221.926 479.637 221.86 479.637 221.794 479.631C221.672 479.605 221.556 479.556 221.453 479.485C221.349 479.415 221.261 479.325 221.193 479.22C221.125 479.115 221.078 478.998 221.055 478.875C221.032 478.752 221.033 478.626 221.059 478.504L252.638 329.354C252.664 329.232 252.714 329.116 252.785 329.013C252.855 328.91 252.946 328.822 253.051 328.754C253.155 328.686 253.273 328.639 253.395 328.616C253.518 328.593 253.645 328.595 253.767 328.621C253.889 328.647 254.005 328.697 254.108 328.768C254.211 328.838 254.299 328.929 254.367 329.034C254.435 329.138 254.482 329.256 254.505 329.378C254.528 329.501 254.526 329.628 254.5 329.75L222.925 478.878C222.88 479.092 222.762 479.283 222.592 479.42C222.422 479.557 222.21 479.631 221.992 479.631Z" fill="#262424"/>
<path d="M257.69 332.08C257.574 332.08 257.459 332.058 257.351 332.016L253.24 330.438C251.449 329.747 249.89 328.565 248.743 327.026C247.596 325.488 246.907 323.656 246.756 321.743L245.07 299.71C245.051 299.459 245.132 299.21 245.296 299.018C245.46 298.827 245.694 298.708 245.945 298.689C246.196 298.669 246.445 298.751 246.637 298.915C246.828 299.079 246.947 299.312 246.966 299.564L248.648 321.601C248.771 323.155 249.331 324.642 250.263 325.891C251.195 327.141 252.461 328.101 253.915 328.662L258.034 330.24C258.244 330.318 258.419 330.468 258.529 330.663C258.639 330.858 258.677 331.085 258.636 331.305C258.595 331.525 258.477 331.723 258.305 331.865C258.132 332.007 257.914 332.083 257.69 332.08Z" fill="#262424"/>
<path d="M231.439 410.473C232.221 402.172 228.387 395.021 222.876 394.502C217.364 393.983 212.263 400.292 211.481 408.593C210.699 416.895 214.533 424.045 220.045 424.564C225.556 425.083 230.658 418.774 231.439 410.473Z" fill="white"/>
<path d="M199.877 472.966L230.88 475.58C231.283 475.614 231.674 475.731 232.03 475.923C232.386 476.115 232.699 476.377 232.949 476.695C233.199 477.013 233.381 477.379 233.484 477.77C233.586 478.161 233.608 478.569 233.546 478.968L230.536 498.615C230.422 499.351 230.035 500.016 229.451 500.478C228.867 500.94 228.13 501.163 227.388 501.105L198.793 498.865C198.041 498.805 197.341 498.46 196.835 497.901C196.33 497.341 196.058 496.609 196.076 495.855L196.682 475.829C196.692 475.428 196.785 475.033 196.953 474.668C197.122 474.303 197.363 473.977 197.662 473.709C197.961 473.44 198.312 473.236 198.693 473.108C199.074 472.981 199.477 472.932 199.877 472.966Z" fill="#ED7631"/>
<path d="M386.243 385.972C384.287 391.412 381.04 391.644 377.317 389.021C366.82 381.638 352.514 351.581 352.514 351.581V341.82C356.885 338.093 361.858 335.137 367.22 333.078C368.688 332.507 370.185 332.015 371.705 331.603C371.705 331.603 393.721 365.208 386.243 385.972Z" fill="#91BED4"/>
<path d="M387.796 385.28C385.835 390.72 381.04 391.657 377.321 389.034C382.61 388.746 385.431 382.081 383.186 371.361C380.855 360.224 371.537 341.416 367.224 333.091C368.643 332.541 370.918 331.526 372.492 331.104C372.488 331.1 394.035 367.968 387.796 385.28Z" fill="white"/>
<path d="M381.483 391.373C379.781 391.349 378.129 390.798 376.753 389.795C376.594 389.681 376.474 389.52 376.41 389.335C376.346 389.15 376.341 388.949 376.395 388.761C376.449 388.572 376.56 388.406 376.713 388.283C376.865 388.16 377.052 388.087 377.248 388.075C377.978 388.04 378.691 387.841 379.333 387.493C379.976 387.144 380.531 386.656 380.959 386.063C383.109 383.259 383.577 377.966 382.249 371.546C379.914 360.366 370.368 341.231 366.373 333.517C366.311 333.398 366.276 333.268 366.268 333.135C366.26 333.001 366.28 332.868 366.327 332.743C366.374 332.618 366.447 332.504 366.541 332.41C366.635 332.315 366.747 332.241 366.872 332.192C367.25 332.046 367.685 331.865 368.162 331.676C369.493 331.1 370.855 330.599 372.243 330.175C372.444 330.12 372.657 330.132 372.851 330.209C373.044 330.287 373.207 330.426 373.313 330.605C374.203 332.128 395.011 368.067 388.69 385.585C387.68 388.385 385.852 390.315 383.53 391.059C382.868 391.267 382.178 391.373 381.483 391.373ZM380.034 389.275C380.996 389.545 382.015 389.535 382.971 389.245C384.726 388.69 386.084 387.202 386.901 384.945C392.491 369.495 374.861 337.215 372.041 332.222C371.047 332.549 369.891 333.031 368.884 333.435L368.553 333.572C372.819 341.876 381.823 360.19 384.119 371.154C385.598 378.219 385.022 383.925 382.49 387.219C381.838 388.083 380.999 388.786 380.034 389.275Z" fill="#262424"/>
<path d="M342.018 345.754L357.352 339.859C357.352 339.859 362.542 341.394 360.538 349.177L346.855 356.844L342.018 345.754Z" fill="white"/>
<path d="M346.855 357.794C346.672 357.792 346.493 357.737 346.341 357.635C346.188 357.534 346.068 357.391 345.995 357.222L341.149 346.15C341.097 346.032 341.07 345.905 341.069 345.777C341.068 345.649 341.093 345.521 341.142 345.403C341.192 345.284 341.265 345.177 341.357 345.087C341.449 344.998 341.558 344.928 341.678 344.881L357.012 338.986C357.207 338.911 357.422 338.902 357.622 338.96C357.683 338.96 363.668 340.852 361.458 349.427C361.426 349.551 361.369 349.668 361.291 349.77C361.213 349.872 361.114 349.957 361.002 350.02L347.32 357.687C347.176 357.762 347.017 357.799 346.855 357.794ZM343.291 346.288L347.307 355.498L359.712 348.545C361.002 343.05 358.259 341.295 357.351 340.874L343.291 346.288Z" fill="#262424"/>
<path d="M328.082 348.855L328.86 346.275C329.063 345.602 329.427 344.99 329.92 344.489C330.413 343.989 331.02 343.616 331.689 343.402L341.665 340.216C342.305 340.009 342.983 339.955 343.647 340.059C344.311 340.162 344.941 340.419 345.488 340.809C349.392 343.604 357.502 351.559 353.228 367.521C353.018 368.304 352.593 369.013 352.003 369.568L346.615 374.633C346.107 375.115 345.488 375.466 344.814 375.655C344.14 375.844 343.429 375.865 342.745 375.717C337.417 374.577 325.033 369.744 327.927 349.487C327.963 349.273 328.015 349.061 328.082 348.855Z" fill="#ED7631"/>
<path d="M342.25 372.294C337.119 378.564 331.521 384.437 325.506 389.864C319.056 395.587 311.664 400.906 305.016 402.57C302.496 403.198 300.024 402.768 297.616 401.534C284.389 394.731 273.132 363.518 267.275 349.418C260.365 332.743 255.648 307.88 253.567 291.402C251.486 274.925 255.833 260.989 267.279 256.314C282.691 250.019 297.16 260.245 301.563 279.272C305.967 298.3 318.23 351.142 318.23 351.142L332.029 346.662C348.231 349.16 342.25 372.294 342.25 372.294Z" fill="#91BED4"/>
<path d="M262.584 336.832C262.378 336.832 262.179 336.765 262.014 336.642C261.85 336.519 261.73 336.345 261.672 336.148C257.931 323.463 254.547 306.779 252.642 291.518C250.376 273.501 255.721 260.008 266.94 255.433C267.056 255.386 267.179 255.362 267.304 255.363C267.429 255.363 267.553 255.389 267.668 255.437C267.783 255.486 267.888 255.556 267.976 255.645C268.064 255.734 268.133 255.84 268.18 255.955C268.227 256.071 268.251 256.195 268.251 256.32C268.25 256.445 268.225 256.569 268.176 256.684C268.128 256.799 268.057 256.904 267.968 256.991C267.879 257.079 267.774 257.149 267.658 257.196C257.265 261.44 252.354 274.168 254.53 291.282C256.443 306.444 259.802 323.016 263.517 335.611C263.56 335.754 263.568 335.906 263.541 336.053C263.514 336.201 263.452 336.34 263.361 336.459C263.27 336.578 263.152 336.674 263.017 336.739C262.882 336.803 262.734 336.835 262.584 336.832Z" fill="#262424"/>
<path d="M325.514 389.86C319.064 395.583 311.673 400.902 305.025 402.566C302.505 403.194 300.033 402.764 297.625 401.53C293.832 395.94 298.227 388.587 311.948 386.91C318.776 386.088 323.223 387.499 325.514 389.86Z" fill="white"/>
<path d="M316.347 368.605C316.144 368.605 315.947 368.54 315.784 368.42C315.621 368.3 315.5 368.131 315.44 367.938C305.55 336.638 288.977 283.994 288.977 283.048C288.969 282.8 289.058 282.56 289.224 282.377C289.391 282.194 289.622 282.083 289.869 282.068C290.116 282.052 290.359 282.134 290.547 282.296C290.734 282.457 290.852 282.685 290.874 282.931C291.342 285.112 307.932 337.834 316.945 366.382L336.725 358.28C336.958 358.185 337.219 358.185 337.452 358.282C337.685 358.38 337.869 358.565 337.965 358.798C338.061 359.032 338.06 359.293 337.963 359.526C337.866 359.759 337.68 359.943 337.447 360.039L316.704 368.532C316.591 368.579 316.469 368.603 316.347 368.605ZM290.874 282.94C290.876 282.974 290.876 283.009 290.874 283.043C290.876 283.009 290.876 282.974 290.874 282.94Z" fill="#262424"/>
<path d="M312.546 381.023C312.38 381.023 312.218 380.979 312.075 380.897C311.931 380.815 311.812 380.697 311.728 380.555C311.644 380.412 311.599 380.25 311.597 380.085C311.595 379.92 311.636 379.757 311.716 379.613C316.446 371.034 316.493 357.291 316.493 357.154C316.492 357.029 316.517 356.905 316.564 356.789C316.612 356.673 316.682 356.568 316.77 356.479C316.858 356.39 316.963 356.32 317.079 356.272C317.194 356.224 317.318 356.199 317.443 356.199C317.568 356.199 317.692 356.224 317.807 356.271C317.922 356.319 318.027 356.389 318.115 356.477C318.204 356.566 318.274 356.67 318.321 356.786C318.369 356.901 318.394 357.025 318.394 357.149C318.394 357.734 318.359 371.529 313.38 380.533C313.297 380.682 313.177 380.806 313.03 380.892C312.883 380.978 312.716 381.023 312.546 381.023Z" fill="#262424"/>
<path d="M374.956 168.491L415.578 194.339L390.685 264.738L344.718 262.752L374.956 168.491Z" fill="#91BED4"/>
<path d="M349.874 167.459L374.956 168.491L344.718 262.752L324.409 247.022L349.874 167.459Z" fill="#ED7631"/>
<path d="M345.372 183.128L338.015 179.839C337.296 179.518 336.519 179.35 335.732 179.346C334.945 179.342 334.167 179.503 333.445 179.817C332.724 180.132 332.076 180.593 331.544 181.172C331.011 181.751 330.605 182.435 330.352 183.18L318.6 217.812C318.352 218.54 318.256 219.31 318.316 220.077C318.376 220.843 318.592 221.589 318.95 222.269C319.308 222.949 319.801 223.549 320.399 224.032C320.997 224.516 321.687 224.872 322.427 225.079L330.657 227.384C331.53 227.628 332.462 227.535 333.269 227.124C334.077 226.713 334.701 226.014 335.017 225.165C335.19 224.7 335.266 224.204 335.238 223.708C335.211 223.212 335.082 222.728 334.86 222.284C334.637 221.84 334.325 221.447 333.944 221.129C333.563 220.811 333.12 220.575 332.644 220.435L328.129 219.119L338.208 188.194L342.297 190.03C342.779 190.246 343.301 190.359 343.83 190.362C344.358 190.364 344.881 190.255 345.365 190.043C345.848 189.831 346.282 189.519 346.638 189.129C346.994 188.739 347.265 188.278 347.432 187.777C347.728 186.885 347.681 185.914 347.3 185.055C346.919 184.195 346.232 183.508 345.372 183.128Z" fill="white"/>
<path d="M331.595 228.463C331.185 228.463 330.777 228.407 330.382 228.296L322.152 225.991C321.287 225.749 320.481 225.333 319.782 224.769C319.084 224.204 318.508 223.504 318.089 222.709C317.67 221.915 317.418 221.043 317.348 220.148C317.278 219.253 317.391 218.353 317.68 217.503L329.453 182.875C329.749 182.005 330.223 181.206 330.845 180.53C331.467 179.853 332.223 179.314 333.065 178.947C333.907 178.579 334.817 178.392 335.736 178.396C336.655 178.4 337.563 178.595 338.402 178.97L345.759 182.26C346.904 182.773 347.798 183.72 348.245 184.893C348.692 186.065 348.654 187.367 348.141 188.512C347.628 189.657 346.681 190.551 345.508 190.998C344.336 191.445 343.034 191.407 341.889 190.894L338.767 189.492L329.307 218.474L332.876 219.515C333.936 219.818 334.85 220.495 335.449 221.42C336.049 222.346 336.293 223.457 336.136 224.548C335.98 225.639 335.434 226.637 334.599 227.357C333.764 228.076 332.697 228.469 331.595 228.463ZM335.705 180.303C334.723 180.307 333.766 180.617 332.968 181.19C332.17 181.762 331.569 182.569 331.251 183.498L319.477 218.126C319.272 218.731 319.192 219.372 319.242 220.009C319.293 220.647 319.473 221.267 319.771 221.832C320.069 222.398 320.479 222.896 320.977 223.298C321.474 223.699 322.048 223.995 322.663 224.168L330.894 226.472C331.536 226.648 332.222 226.578 332.816 226.276C333.41 225.974 333.87 225.461 334.106 224.838C334.234 224.495 334.29 224.13 334.27 223.764C334.251 223.398 334.156 223.04 333.991 222.713C333.827 222.386 333.597 222.096 333.316 221.861C333.034 221.627 332.707 221.453 332.356 221.351L327.841 220.035C327.718 220 327.605 219.94 327.506 219.859C327.407 219.778 327.326 219.679 327.266 219.566C327.207 219.453 327.171 219.33 327.16 219.203C327.15 219.076 327.165 218.948 327.204 218.827L337.288 187.91C337.329 187.784 337.397 187.667 337.486 187.569C337.575 187.47 337.684 187.391 337.806 187.337C337.927 187.283 338.059 187.256 338.192 187.256C338.325 187.256 338.456 187.284 338.578 187.338L342.667 189.174C343.008 189.343 343.38 189.441 343.76 189.462C344.139 189.484 344.52 189.429 344.878 189.3C345.236 189.171 345.564 188.971 345.843 188.713C346.122 188.454 346.346 188.142 346.502 187.795C346.658 187.448 346.742 187.073 346.749 186.692C346.756 186.312 346.687 185.934 346.545 185.581C346.403 185.228 346.191 184.907 345.922 184.638C345.654 184.369 345.333 184.157 344.981 184.014L337.623 180.725C337.023 180.448 336.371 180.302 335.71 180.295L335.705 180.303Z" fill="#262424"/>
<path d="M328.129 186.672C325.656 184.853 317.865 188.929 317.865 188.929C317.865 188.929 266.484 161.069 260.911 159.96C255.338 158.851 227.169 172.503 212.665 180.6C198.161 188.697 193.573 196.282 195.874 201.034C204.65 219.171 258.873 191.857 258.873 191.857L316.837 204.671C316.837 204.671 319.873 210.691 322.298 215.026C322.489 215.367 322.774 215.645 323.12 215.827C323.465 216.009 323.856 216.087 324.245 216.051C324.634 216.016 325.004 215.868 325.311 215.627C325.618 215.385 325.848 215.06 325.974 214.69L331.453 198.729C332.041 197.026 332.201 195.204 331.919 193.425C331.637 191.645 330.922 189.963 329.836 188.525C329.35 187.835 328.776 187.212 328.129 186.672Z" fill="white"/>
<path d="M324.044 216.999C323.517 217.001 322.999 216.862 322.545 216.595C322.091 216.327 321.718 215.943 321.464 215.482C319.417 211.831 316.91 206.92 316.187 205.493L258.997 192.846C255.523 194.566 227.534 208.189 209.393 208.189C206.819 208.243 204.253 207.88 201.795 207.114C198.6 206.03 196.321 204.104 195.022 201.438C192.137 195.478 198.565 187.377 212.222 179.761C222.972 173.741 254.547 157.698 261.122 159.023C266.553 160.115 312.541 184.956 317.882 187.858C319.954 186.822 326.12 184.014 328.696 185.91C329.417 186.499 330.055 187.184 330.592 187.944C331.774 189.505 332.553 191.333 332.86 193.267C333.167 195.2 332.992 197.18 332.351 199.03L326.869 215C326.686 215.546 326.347 216.027 325.893 216.382C325.44 216.737 324.893 216.952 324.319 216.999H324.044ZM258.868 190.894C258.938 190.894 259.007 190.901 259.075 190.916L317.039 203.73C317.177 203.76 317.307 203.821 317.418 203.908C317.53 203.995 317.621 204.106 317.684 204.233C317.714 204.293 320.737 210.296 323.123 214.553C323.225 214.733 323.376 214.881 323.559 214.977C323.743 215.073 323.95 215.114 324.156 215.095C324.362 215.076 324.558 214.997 324.721 214.869C324.883 214.741 325.005 214.568 325.071 214.372L330.549 198.411C331.089 196.856 331.236 195.192 330.979 193.567C330.722 191.941 330.068 190.405 329.075 189.092C328.647 188.476 328.14 187.919 327.565 187.437C326.194 186.426 321.326 188.194 318.307 189.772C318.17 189.845 318.016 189.883 317.86 189.883C317.704 189.883 317.551 189.845 317.413 189.772C299.68 180.17 265.017 161.749 260.722 160.884C255.876 159.913 229.293 172.396 213.125 181.421C198.213 189.742 194.876 196.789 196.725 200.608C197.808 202.848 199.662 204.388 202.397 205.312C218.737 210.842 258.047 191.195 258.443 190.997C258.575 190.93 258.72 190.895 258.868 190.894Z" fill="#262424"/>
<path d="M254.96 195.719L241.398 161.056C241.398 161.056 210.773 175.388 200.604 185.76C190.434 196.132 191.144 208.086 206.835 210.309C222.525 212.532 254.96 195.719 254.96 195.719Z" fill="#ED7631"/>
<path d="M247.194 196.51C247.009 196.506 246.829 196.449 246.676 196.344C246.523 196.239 246.404 196.092 246.334 195.921L235.042 168.603C234.995 168.487 234.97 168.364 234.97 168.239C234.97 168.114 234.995 167.99 235.043 167.875C235.091 167.759 235.161 167.655 235.249 167.566C235.338 167.478 235.443 167.408 235.558 167.36C235.674 167.313 235.798 167.288 235.922 167.288C236.047 167.288 236.171 167.313 236.287 167.361C236.402 167.409 236.507 167.479 236.595 167.567C236.683 167.656 236.753 167.761 236.801 167.876L248.08 195.19C248.141 195.335 248.166 195.493 248.151 195.65C248.135 195.807 248.082 195.958 247.994 196.089C247.906 196.22 247.787 196.327 247.647 196.401C247.507 196.474 247.352 196.512 247.194 196.51Z" fill="#262424"/>
<path d="M191.969 201.094C191.777 197.169 192.77 193.276 194.818 189.923C196.866 186.569 199.875 183.908 203.454 182.286C211.083 178.846 220.689 174.911 227.023 173.909C238.972 172.021 264.764 175.797 271.369 179.886C277.973 183.975 294.331 230.523 307.222 288.711C307.222 288.711 279.857 313.242 207.204 301.92L207.832 242.15C207.832 242.15 195.882 229.25 193.994 222.022C193.005 218.216 192.356 208.98 191.969 201.094Z" fill="#ED7631"/>
<path d="M209.07 180.776C208.85 180.777 208.637 180.702 208.466 180.563C208.295 180.424 208.178 180.23 208.135 180.014C208.091 179.799 208.124 179.575 208.227 179.38C208.33 179.186 208.497 179.033 208.701 178.949C216.509 175.655 222.624 173.643 226.877 172.972C231.951 172.172 239.91 172.318 248.712 173.376C248.962 173.406 249.19 173.535 249.346 173.733C249.502 173.931 249.572 174.183 249.542 174.434C249.512 174.684 249.383 174.912 249.185 175.068C248.987 175.223 248.734 175.294 248.484 175.264C239.85 174.223 232.08 174.073 227.169 174.834C223.067 175.483 217.103 177.448 209.436 180.686C209.321 180.74 209.197 180.771 209.07 180.776Z" fill="#262424"/>
<path d="M239.144 298.308C230.431 298.324 221.725 297.848 213.065 296.885C212.941 296.869 212.821 296.829 212.713 296.767C212.604 296.705 212.509 296.622 212.433 296.523C212.356 296.424 212.3 296.312 212.267 296.191C212.234 296.07 212.226 295.945 212.242 295.821C212.257 295.697 212.297 295.577 212.359 295.469C212.422 295.36 212.504 295.265 212.603 295.189C212.702 295.112 212.815 295.056 212.935 295.023C213.056 294.99 213.182 294.981 213.306 294.997C213.869 295.07 270.19 301.976 296.631 284.144C296.84 284.003 297.097 283.951 297.345 284C297.592 284.048 297.81 284.193 297.951 284.402C298.092 284.611 298.144 284.868 298.096 285.115C298.047 285.363 297.903 285.581 297.693 285.722C286.324 293.389 268.612 297.599 245.07 298.231C243.04 298.282 241.062 298.308 239.144 298.308Z" fill="#262424"/>
<path d="M222.383 169.394C213.783 172.464 209.892 179.77 210.193 184.762C210.494 189.755 214.708 193.221 218.105 193.268C218.105 193.268 219.678 183.171 222.142 182.466C224.606 181.761 228.321 191.87 228.321 191.87C228.321 191.87 239.987 188.538 241.29 177.5C242.193 169.889 232.411 165.817 222.383 169.394Z" fill="white"/>
<path d="M218.105 194.218C214.183 194.167 209.587 190.297 209.255 184.823C208.92 179.233 213.302 171.635 222.078 168.483C228.421 166.221 235.086 166.801 239.05 169.962C240.206 170.84 241.109 172.008 241.669 173.348C242.228 174.687 242.424 176.151 242.236 177.59C240.873 189.123 228.709 192.73 228.584 192.765C228.358 192.83 228.117 192.809 227.906 192.707C227.694 192.604 227.529 192.427 227.44 192.21C225.772 187.669 223.329 183.395 222.413 183.395C221.42 183.679 219.833 188.37 219.059 193.427C219.021 193.651 218.904 193.854 218.729 194C218.554 194.145 218.332 194.222 218.105 194.218ZM229.766 169.024C227.36 169.039 224.974 169.464 222.71 170.28C214.807 173.101 210.855 179.809 211.147 184.694C211.401 188.912 214.678 191.698 217.318 192.214C217.868 189.05 219.335 182.264 221.889 181.537C224.576 180.772 227.32 186.556 228.894 190.653C231.474 189.66 239.338 185.966 240.353 177.375C240.505 176.255 240.353 175.115 239.914 174.074C239.476 173.033 238.766 172.128 237.859 171.454C235.825 169.85 232.953 169.024 229.766 169.024Z" fill="#262424"/>
<path d="M217.417 176.227C217.417 176.227 218.277 179.237 222.327 179.981C224.281 179.621 226.141 178.871 227.798 177.776C229.455 176.681 230.875 175.264 231.972 173.608L227.44 154.525L224 155.931L215.551 159.371L217.116 173.402L217.417 176.227Z" fill="white"/>
<path d="M222.327 180.931C222.269 180.937 222.21 180.937 222.151 180.931C217.572 180.071 216.561 176.631 216.501 176.502C216.487 176.451 216.476 176.4 216.471 176.347L214.587 159.474C214.564 159.268 214.609 159.059 214.715 158.88C214.822 158.702 214.984 158.563 215.177 158.485L227.092 153.656C227.219 153.603 227.357 153.579 227.495 153.584C227.632 153.59 227.767 153.625 227.89 153.688C228.013 153.751 228.121 153.84 228.205 153.949C228.29 154.058 228.351 154.184 228.382 154.318L232.905 173.402C232.935 173.527 232.938 173.656 232.916 173.783C232.894 173.909 232.846 174.03 232.776 174.137C231.608 175.912 230.09 177.43 228.316 178.599C226.542 179.767 224.548 180.562 222.456 180.935L222.327 180.931ZM218.35 176.021C218.492 176.412 219.356 178.39 222.34 179.031C225.81 178.32 228.882 176.323 230.94 173.441L226.769 155.841L216.557 159.96L218.35 176.021Z" fill="#262424"/>
<path d="M217.099 173.38C227.419 170.452 225.896 156.886 225.896 156.886C225.278 156.527 224.638 156.208 223.979 155.931L215.529 159.371L217.099 173.38Z" fill="#262424"/>
<path d="M227.844 116.668C226.395 123.401 240.357 126.48 245.13 126.945C249.903 127.409 258.108 136.762 266.007 132.277C273.906 127.792 278.795 149.477 304.1 141.775C323.605 135.854 330.898 107.84 317.284 103.161C303.67 98.4829 285.92 113.236 273.519 108.79C265.628 105.969 257.841 96.5436 246.781 105.29C238.521 111.834 228.984 111.37 227.844 116.668Z" fill="#262424"/>
<path d="M205.832 147.589C205.832 147.589 201.102 142.734 197.46 145.331C193.818 147.929 197.542 161.005 207.049 157.419L205.832 147.589Z" fill="white"/>
<path d="M203.872 158.984C200.802 158.984 198.166 157.307 196.489 154.151C194.769 150.904 194.433 146.312 196.919 144.549C201.193 141.513 206.306 146.699 206.521 146.922C206.665 147.071 206.757 147.263 206.783 147.469L208.004 157.294C208.03 157.506 207.984 157.72 207.873 157.903C207.763 158.086 207.594 158.226 207.393 158.3C206.271 158.739 205.077 158.971 203.872 158.984ZM199.873 145.521C199.206 145.513 198.554 145.718 198.011 146.105C196.785 146.965 196.588 150.289 198.166 153.261C198.991 154.809 201.361 158.128 206.009 156.761L204.925 148.04C204.22 147.4 202.023 145.521 199.873 145.521Z" fill="#262424"/>
<path d="M228.975 117.295L231.056 115.808C231.382 115.573 231.765 115.429 232.165 115.392C232.565 115.355 232.968 115.426 233.331 115.597C234.38 116.064 235.31 116.764 236.049 117.644C236.752 118.646 237.082 119.863 236.982 121.084C236.967 121.378 236.894 121.666 236.767 121.932C236.64 122.197 236.462 122.435 236.242 122.632L234.092 124.597C233.845 124.819 233.552 124.983 233.234 125.079C232.916 125.175 232.58 125.199 232.252 125.15C231.923 125.101 231.61 124.98 231.333 124.796C231.057 124.612 230.824 124.369 230.652 124.085L228.386 120.301C228.088 119.818 227.984 119.24 228.093 118.683C228.202 118.126 228.517 117.631 228.975 117.295Z" fill="white"/>
<path d="M232.561 126.123C232.402 126.124 232.242 126.112 232.084 126.089C231.615 126.019 231.167 125.846 230.773 125.582C230.379 125.318 230.048 124.97 229.805 124.562L227.539 120.778C227.128 120.086 226.991 119.264 227.155 118.476C227.319 117.687 227.772 116.988 228.425 116.517L230.506 115.029C230.97 114.695 231.515 114.492 232.085 114.44C232.654 114.387 233.227 114.489 233.744 114.733C234.927 115.265 235.974 116.059 236.806 117.055C237.649 118.232 238.049 119.67 237.936 121.114C237.917 121.534 237.813 121.945 237.632 122.325C237.451 122.705 237.197 123.044 236.883 123.324L234.733 125.289C234.139 125.83 233.364 126.128 232.561 126.123ZM232.376 116.332C232.102 116.332 231.834 116.418 231.611 116.577L229.53 118.065C229.268 118.257 229.087 118.538 229.02 118.856C228.953 119.173 229.006 119.504 229.169 119.785L231.435 123.569C231.532 123.737 231.666 123.882 231.827 123.991C231.987 124.1 232.171 124.172 232.363 124.2C232.555 124.229 232.751 124.214 232.937 124.156C233.122 124.098 233.292 123.999 233.434 123.866L235.584 121.901C235.839 121.674 235.994 121.355 236.014 121.015C236.101 120.023 235.841 119.033 235.279 118.211C234.63 117.451 233.819 116.845 232.905 116.44C232.739 116.367 232.558 116.33 232.376 116.332Z" fill="#262424"/>
<path d="M203.721 150.229C205.656 158.399 211.031 167.236 220.947 165.176C228.257 163.662 234.754 153.381 233.37 142.145C231.985 130.909 228.334 121.729 215.065 124.808C213.652 125.158 212.265 125.602 210.911 126.136C203.455 129.249 200.612 130.479 202.788 145.86C202.977 147.215 203.36 148.694 203.721 150.229Z" fill="white"/>
<path d="M218.109 166.41C209.681 166.41 204.706 158.481 202.797 150.431L202.655 149.842C202.324 148.483 202.014 147.198 201.842 145.972C200.737 138.15 200.896 133.795 202.392 130.922C203.928 127.985 206.692 126.829 210.562 125.225C211.964 124.671 213.4 124.211 214.862 123.849C219.915 122.675 224.034 123.174 227.1 125.319C232.114 128.824 233.593 136.069 234.324 141.999C235.838 154.263 228.597 164.531 221.153 166.079C220.153 166.294 219.132 166.405 218.109 166.41ZM219.872 125.13C218.323 125.149 216.781 125.344 215.275 125.711C213.914 126.052 212.577 126.483 211.272 127.001C204.074 130.011 201.649 131.021 203.725 145.71C203.885 146.849 204.186 148.092 204.504 149.404L204.646 149.997C205.506 153.6 208.86 164.518 218.079 164.518C218.976 164.514 219.871 164.417 220.749 164.23C227.367 162.854 233.765 153.162 232.419 142.244C231.417 134.134 229.375 129.258 225.991 126.889C224.186 125.676 222.045 125.061 219.872 125.13Z" fill="#262424"/>
<path d="M229.964 141.788C228.542 141.514 227.22 140.86 226.139 139.895C225.058 138.931 224.258 137.692 223.824 136.31C223.51 135.381 223.187 134.108 222.701 132.995C218.143 139.875 208.18 145.366 203.781 147.537C203.099 147.89 202.322 148.019 201.562 147.906C200.801 147.792 200.096 147.442 199.546 146.905C192.718 139.913 196.403 123.492 206.791 121.931C217.06 111.697 231.835 115.132 235.571 124.696C239.729 135.312 233.52 142.571 229.964 141.788Z" fill="#262424"/>
<path d="M230.02 143.233C230.02 143.233 234.423 136.675 240.439 137.471C246.455 138.266 245.534 152.117 231.185 152.981L230.02 143.233Z" fill="white"/>
<path d="M231.194 153.94C230.942 153.947 230.697 153.854 230.514 153.681C230.33 153.508 230.223 153.27 230.216 153.018C230.208 152.766 230.301 152.521 230.474 152.338C230.647 152.154 230.886 152.047 231.138 152.039C239.071 151.562 242.843 146.832 242.993 142.64C243.062 140.726 242.262 138.679 240.323 138.421C234.952 137.712 230.863 143.71 230.82 143.771C230.679 143.98 230.461 144.125 230.213 144.173C229.966 144.221 229.709 144.169 229.5 144.029C229.29 143.888 229.146 143.669 229.097 143.422C229.049 143.174 229.101 142.918 229.242 142.708C229.435 142.42 234.049 135.674 240.572 136.534C243.277 136.891 245.01 139.372 244.872 142.704C244.692 147.731 240.349 153.385 231.228 153.931H231.172L231.194 153.94Z" fill="#262424"/>
<path d="M265.082 189.161C245.861 181.353 223.252 239.643 223.252 239.643L170.095 269.838C170.095 269.838 156.726 264.648 154.056 264.334C151.386 264.02 141.947 276.916 141.156 278.803C140.365 280.691 142.257 283.366 146.346 280.691C146.346 280.691 143.203 285.094 146.346 288.083C149.489 291.071 154.366 292.813 160.497 287.924C160.497 287.924 170.719 291.699 173.866 291.364C177.014 291.028 180.14 282.575 180.14 282.575C180.14 282.575 238.62 268.423 243.672 265.435C248.725 262.446 260.812 232.566 266.316 216.372C271.82 200.178 270.113 191.208 265.082 189.161Z" fill="white"/>
<path d="M173.484 292.348C170.207 292.348 162.815 289.768 160.67 288.994C153.54 294.378 148.243 291.187 145.693 288.766C143.753 286.926 143.766 284.544 144.355 282.63C142.635 283.06 141.578 282.42 141.118 282.041C140.61 281.609 140.252 281.027 140.098 280.378C139.943 279.729 139.999 279.048 140.258 278.434C140.774 277.195 150.449 262.954 154.142 263.384C156.675 263.68 167.434 267.795 169.992 268.784L222.452 238.981C224.125 234.737 239.88 195.71 256.332 188.611C259.514 187.239 262.567 187.127 265.405 188.28C271.704 190.86 272.375 201.455 267.206 216.66C263.126 228.661 250.084 262.709 244.146 266.235C239.274 269.18 186.904 281.917 180.871 283.37C180.011 285.576 177.233 291.97 173.965 292.318C173.815 292.344 173.656 292.348 173.484 292.348ZM160.502 286.969C160.615 286.969 160.727 286.99 160.833 287.029C163.619 288.057 171.381 290.676 173.776 290.435C175.539 290.259 178.05 285.541 179.267 282.265C179.321 282.119 179.41 281.989 179.526 281.885C179.643 281.782 179.782 281.708 179.934 281.671C200.118 276.787 239.321 266.944 243.204 264.635C247.586 262.033 259.299 234.139 265.435 216.079C271.098 199.412 268.78 191.711 264.721 190.06C262.339 189.092 259.853 189.2 257.119 190.374C240.813 197.413 224.301 239.574 224.133 240C224.051 240.206 223.898 240.376 223.703 240.482L170.564 270.663C170.441 270.733 170.305 270.775 170.164 270.785C170.024 270.796 169.883 270.775 169.751 270.724C166.066 269.292 156.039 265.525 153.944 265.276C153.471 265.276 151.502 266.566 147.529 271.476C144.708 274.946 142.369 278.403 142.038 279.165C141.932 279.401 141.905 279.665 141.959 279.919C142.013 280.172 142.146 280.402 142.339 280.575C143.014 281.134 144.317 280.876 145.83 279.887C146.016 279.767 146.238 279.715 146.458 279.74C146.678 279.766 146.882 279.868 147.035 280.028C147.187 280.188 147.28 280.396 147.295 280.617C147.311 280.838 147.249 281.057 147.12 281.237C147.013 281.388 144.502 285.008 147 287.386C149.627 289.88 154 291.871 159.9 287.175C160.071 287.04 160.284 286.967 160.502 286.969Z" fill="#262424"/>
<path d="M223.57 233.98L257.845 251.12C257.845 251.12 271.369 219.038 271.997 204.099C272.624 189.161 263.827 180.51 250.295 189.63C236.762 198.75 223.57 233.98 223.57 233.98Z" fill="#ED7631"/>
<path d="M257.845 252.075C257.696 252.076 257.549 252.042 257.415 251.976L223.14 234.832C222.929 234.726 222.765 234.547 222.679 234.328C222.594 234.108 222.592 233.865 222.676 233.645C223.217 232.196 236.147 198.028 249.766 188.843C257.506 183.631 262.752 184.573 265.805 186.263C270.638 188.963 273.308 195.641 272.951 204.121C272.323 219.059 259.277 250.157 258.722 251.473C258.653 251.649 258.532 251.801 258.376 251.908C258.22 252.015 258.035 252.073 257.845 252.075ZM224.761 233.516L257.359 249.83C259.574 244.438 270.496 217.257 271.051 204.078C271.377 196.338 269.068 190.318 264.876 187.962C261.165 185.889 256.31 186.745 250.832 190.438C238.831 198.518 226.821 228.248 224.761 233.516Z" fill="#262424"/>
<path d="M257.11 242.795C256.968 242.795 256.829 242.762 256.701 242.701L229.207 229.62C229.094 229.566 228.993 229.491 228.909 229.398C228.825 229.305 228.761 229.197 228.719 229.079C228.634 228.841 228.647 228.58 228.756 228.351C228.864 228.123 229.059 227.948 229.296 227.863C229.534 227.778 229.796 227.792 230.024 227.9L257.505 240.993C257.696 241.088 257.849 241.243 257.941 241.434C258.033 241.625 258.058 241.842 258.012 242.049C257.967 242.256 257.853 242.442 257.69 242.578C257.526 242.713 257.322 242.789 257.11 242.795Z" fill="#262424"/>
<path d="M336.067 52.7137C369.843 59.8216 372.802 93.1337 372.802 93.1337L345.312 107.263C345.312 107.263 343.325 84.9035 320.686 80.1735L336.067 52.7137Z" fill="white"/>
<path d="M345.312 108.227C345.074 108.228 344.845 108.14 344.67 107.981C344.494 107.822 344.384 107.603 344.361 107.367C343.822 103.345 342.553 99.4556 340.616 95.89C336.316 87.9823 329.565 82.99 320.488 81.0937C320.341 81.063 320.205 80.9982 320.088 80.9047C319.972 80.8111 319.879 80.6914 319.817 80.5553C319.756 80.4192 319.727 80.2704 319.734 80.1211C319.74 79.9719 319.782 79.8263 319.856 79.6962L335.237 52.2364C335.336 52.0602 335.488 51.9202 335.672 51.8367C335.856 51.7532 336.062 51.7305 336.26 51.772C354.066 55.5173 363.311 66.5425 367.938 75.1339C372.935 84.4176 373.722 92.7037 373.752 93.052C373.768 93.2401 373.729 93.429 373.638 93.5944C373.546 93.7598 373.408 93.8944 373.24 93.9808L345.75 108.111C345.616 108.184 345.465 108.224 345.312 108.227ZM322.135 79.55C333.37 82.3235 339.304 89.4701 342.345 95.0816C344.152 98.4447 345.415 102.073 346.086 105.832L371.795 92.6177C370.912 86.8005 369.034 81.1786 366.244 75.9982C359.902 64.2549 349.904 56.7944 336.574 53.8102L322.135 79.55Z" fill="#262424"/>
<path d="M349.018 94.0194C348.813 94.0214 348.612 93.9567 348.446 93.8351C348.281 93.7134 348.159 93.5414 348.099 93.3447C348.04 93.1481 348.046 92.9374 348.116 92.7443C348.186 92.5512 348.317 92.386 348.489 92.2736L361.277 83.7811C361.381 83.712 361.498 83.664 361.621 83.64C361.744 83.6159 361.87 83.6163 361.993 83.641C362.115 83.6658 362.232 83.7145 362.335 83.7842C362.439 83.854 362.528 83.9436 362.597 84.0477C362.667 84.1519 362.715 84.2687 362.739 84.3914C362.763 84.5142 362.762 84.6404 362.738 84.763C362.713 84.8856 362.664 85.0021 362.594 85.1059C362.525 85.2097 362.435 85.2987 362.331 85.3678L349.56 93.8603C349.4 93.9673 349.211 94.0228 349.018 94.0194Z" fill="#262424"/>
<path d="M343.239 84.9766C343.049 84.9771 342.863 84.9205 342.705 84.8142C342.548 84.708 342.426 84.5568 342.355 84.3804C342.284 84.204 342.268 84.0104 342.308 83.8246C342.348 83.6388 342.444 83.4694 342.581 83.3383L353.628 72.756C353.81 72.5815 354.055 72.4867 354.307 72.4923C354.559 72.4979 354.799 72.6036 354.974 72.7861C355.148 72.9686 355.243 73.2129 355.237 73.4653C355.232 73.7177 355.126 73.9575 354.944 74.132L343.897 84.71C343.72 84.8805 343.485 84.976 343.239 84.9766Z" fill="#262424"/>
<path d="M334.08 78.9523C333.904 78.9523 333.732 78.9036 333.582 78.8115C333.432 78.7195 333.311 78.5877 333.232 78.4308C333.152 78.274 333.118 78.0982 333.133 77.9231C333.147 77.7479 333.21 77.5802 333.314 77.4387L342.62 64.7709C342.769 64.5679 342.993 64.4326 343.242 64.3947C343.491 64.3568 343.745 64.4194 343.948 64.5688C344.151 64.7182 344.287 64.9421 344.324 65.1913C344.362 65.4405 344.3 65.6945 344.15 65.8975L334.845 78.5653C334.757 78.6853 334.642 78.7828 334.509 78.8501C334.376 78.9173 334.229 78.9523 334.08 78.9523Z" fill="#262424"/>
<path d="M91.388 320.303C56.902 318.897 48.4568 286.522 48.4568 286.522L73.2248 268.032C73.2248 268.032 78.8879 289.734 102.005 290.676L91.388 320.303Z" fill="white"/>
<path d="M91.3881 321.253H91.3494C73.169 320.509 62.2212 311.17 56.2399 303.468C49.7899 295.139 47.6399 287.098 47.5367 286.763C47.4891 286.58 47.4972 286.386 47.56 286.208C47.6228 286.029 47.7375 285.874 47.8893 285.761L72.6573 267.271C72.7821 267.178 72.9277 267.117 73.0816 267.093C73.2354 267.069 73.3927 267.084 73.5396 267.135C73.6866 267.187 73.8186 267.273 73.9242 267.388C74.0298 267.502 74.1056 267.641 74.1451 267.791C75.3434 271.662 77.2378 275.281 79.7351 278.472C85.2649 285.559 92.7684 289.347 102.035 289.725C102.187 289.73 102.335 289.77 102.468 289.844C102.601 289.918 102.714 290.022 102.798 290.148C102.882 290.274 102.935 290.419 102.952 290.57C102.969 290.721 102.949 290.874 102.895 291.015L92.2782 320.647C92.2086 320.826 92.0863 320.98 91.9274 321.088C91.7685 321.196 91.5804 321.254 91.3881 321.253ZM49.5534 286.887C51.3878 292.482 54.1719 297.718 57.7836 302.367C65.9837 312.894 77.0648 318.6 90.7302 319.331L100.676 291.54C89.1349 290.68 82.1001 284.604 78.1914 279.573C75.8524 276.562 74.0048 273.199 72.7175 269.61L49.5534 286.887Z" fill="#262424"/>
<path d="M60.7203 294.12C60.5291 294.121 60.3421 294.063 60.1839 293.956C60.0256 293.849 59.9034 293.696 59.8333 293.518C59.7632 293.34 59.7483 293.145 59.7908 292.959C59.8332 292.773 59.9308 292.603 60.071 292.473L71.2768 281.977C71.3658 281.881 71.4735 281.805 71.5933 281.753C71.7131 281.701 71.8423 281.674 71.9729 281.674C72.1036 281.674 72.2328 281.701 72.3525 281.753C72.4722 281.805 72.5799 281.882 72.6688 281.977C72.7577 282.073 72.8259 282.186 72.8691 282.309C72.9124 282.433 72.9298 282.564 72.9202 282.694C72.9107 282.824 72.8743 282.951 72.8135 283.067C72.7527 283.182 72.6687 283.284 72.5668 283.366L61.361 293.862C61.1876 294.026 60.9588 294.118 60.7203 294.12Z" fill="#262424"/>
<path d="M69.9783 303.834C69.8022 303.833 69.6296 303.784 69.4798 303.692C69.3299 303.599 69.2088 303.467 69.1299 303.309C69.0509 303.152 69.0173 302.976 69.0327 302.8C69.0481 302.625 69.112 302.457 69.2172 302.316L78.359 290.048C78.5095 289.845 78.7343 289.711 78.9839 289.674C79.2335 289.638 79.4874 289.702 79.6898 289.852C79.8923 290.003 80.0266 290.228 80.0633 290.477C80.1 290.727 80.036 290.981 79.8855 291.183L70.7437 303.451C70.6549 303.57 70.5394 303.667 70.4065 303.733C70.2736 303.8 70.1269 303.834 69.9783 303.834Z" fill="#262424"/>
<path d="M82.0701 310.03C81.9065 310.032 81.7452 309.992 81.6017 309.914C81.4582 309.835 81.3374 309.721 81.2509 309.582C81.1644 309.444 81.1152 309.285 81.1081 309.121C81.1009 308.958 81.1361 308.796 81.2101 308.65L88.2879 294.615C88.3443 294.502 88.4225 294.401 88.5179 294.318C88.6133 294.235 88.724 294.172 88.8438 294.132C88.9636 294.092 89.0901 294.076 89.216 294.085C89.342 294.094 89.4649 294.128 89.5779 294.185C89.6908 294.241 89.7915 294.319 89.8742 294.415C89.957 294.51 90.0201 294.621 90.06 294.74C90.1 294.86 90.1159 294.987 90.107 295.113C90.098 295.239 90.0643 295.362 90.0079 295.475L82.9172 309.501C82.839 309.659 82.7183 309.792 82.5687 309.886C82.4191 309.979 82.2464 310.029 82.0701 310.03Z" fill="#262424"/>
<path d="M327.505 519.1C327.277 519.1 327.058 519.01 326.897 518.848C326.736 518.687 326.645 518.468 326.645 518.24V512.405C326.645 512.177 326.736 511.958 326.897 511.797C327.058 511.636 327.277 511.545 327.505 511.545C327.733 511.545 327.952 511.636 328.113 511.797C328.275 511.958 328.365 512.177 328.365 512.405V518.24C328.365 518.468 328.275 518.687 328.113 518.848C327.952 519.01 327.733 519.1 327.505 519.1Z" fill="#262424"/>
<path d="M336.303 522.063H330.468C330.24 522.063 330.021 521.972 329.86 521.811C329.699 521.65 329.608 521.431 329.608 521.203C329.608 520.975 329.699 520.756 329.86 520.595C330.021 520.434 330.24 520.343 330.468 520.343H336.303C336.416 520.343 336.528 520.365 336.632 520.408C336.736 520.452 336.831 520.515 336.911 520.595C336.991 520.675 337.054 520.77 337.098 520.874C337.141 520.978 337.163 521.09 337.163 521.203C337.163 521.316 337.141 521.428 337.098 521.532C337.054 521.636 336.991 521.731 336.911 521.811C336.831 521.891 336.736 521.954 336.632 521.998C336.528 522.041 336.416 522.063 336.303 522.063Z" fill="#262424"/>
<path d="M327.505 530.865C327.277 530.865 327.058 530.775 326.897 530.613C326.736 530.452 326.645 530.233 326.645 530.005V524.17C326.645 523.942 326.736 523.723 326.897 523.562C327.058 523.401 327.277 523.31 327.505 523.31C327.733 523.31 327.952 523.401 328.113 523.562C328.275 523.723 328.365 523.942 328.365 524.17V530.005C328.365 530.233 328.275 530.452 328.113 530.613C327.952 530.775 327.733 530.865 327.505 530.865Z" fill="#262424"/>
<path d="M324.538 522.063H318.703C318.475 522.063 318.256 521.972 318.095 521.811C317.934 521.65 317.843 521.431 317.843 521.203C317.843 520.975 317.934 520.756 318.095 520.595C318.256 520.434 318.475 520.343 318.703 520.343H324.538C324.766 520.343 324.985 520.434 325.146 520.595C325.308 520.756 325.398 520.975 325.398 521.203C325.398 521.431 325.308 521.65 325.146 521.811C324.985 521.972 324.766 522.063 324.538 522.063Z" fill="#262424"/>
<path d="M63.2487 385.013C63.0206 385.013 62.8018 384.923 62.6406 384.762C62.4793 384.6 62.3887 384.381 62.3887 384.153V379.17C62.3887 378.942 62.4793 378.723 62.6406 378.562C62.8018 378.4 63.0206 378.31 63.2487 378.31C63.4768 378.31 63.6955 378.4 63.8568 378.562C64.0181 378.723 64.1087 378.942 64.1087 379.17V384.149C64.1092 384.262 64.0874 384.375 64.0445 384.48C64.0015 384.584 63.9382 384.68 63.8583 384.76C63.7784 384.84 63.6834 384.904 63.5788 384.948C63.4741 384.991 63.362 385.013 63.2487 385.013Z" fill="#262424"/>
<path d="M70.7567 387.546H65.7601C65.5321 387.546 65.3133 387.455 65.152 387.294C64.9908 387.133 64.9001 386.914 64.9001 386.686C64.9001 386.458 64.9908 386.239 65.152 386.078C65.3133 385.917 65.5321 385.826 65.7601 385.826H70.7395C70.9676 385.824 71.1873 385.912 71.3502 386.072C71.5131 386.232 71.6059 386.449 71.6081 386.677C71.6104 386.906 71.522 387.125 71.3623 387.288C71.2027 387.451 70.9848 387.544 70.7567 387.546Z" fill="#262424"/>
<path d="M63.2487 395.054C63.0206 395.054 62.8018 394.963 62.6406 394.802C62.4793 394.641 62.3887 394.422 62.3887 394.194V389.206C62.3887 388.978 62.4793 388.759 62.6406 388.598C62.8018 388.437 63.0206 388.346 63.2487 388.346C63.4768 388.346 63.6955 388.437 63.8568 388.598C64.0181 388.759 64.1087 388.978 64.1087 389.206V394.185C64.1098 394.299 64.0884 394.412 64.0457 394.517C64.003 394.622 63.9398 394.718 63.8598 394.799C63.7799 394.88 63.6847 394.944 63.5798 394.988C63.4749 395.031 63.3623 395.054 63.2487 395.054Z" fill="#262424"/>
<path d="M60.7204 387.546H55.7453C55.5172 387.546 55.2984 387.455 55.1371 387.294C54.9759 387.133 54.8853 386.914 54.8853 386.686C54.8853 386.458 54.9759 386.239 55.1371 386.078C55.2984 385.917 55.5172 385.826 55.7453 385.826H60.7247C60.9527 385.827 61.1713 385.918 61.3321 386.08C61.493 386.241 61.5831 386.46 61.5825 386.688C61.5819 386.916 61.4908 387.135 61.3291 387.296C61.1674 387.457 60.9484 387.547 60.7204 387.546Z" fill="#262424"/>
<path d="M93.5421 496.375C95.5869 496.375 97.2444 494.717 97.2444 492.672C97.2444 490.628 95.5869 488.97 93.5421 488.97C91.4974 488.97 89.8398 490.628 89.8398 492.672C89.8398 494.717 91.4974 496.375 93.5421 496.375Z" fill="#87BFC1"/>
<path d="M405.297 134.607C407.717 134.607 409.678 132.645 409.678 130.226C409.678 127.806 407.717 125.844 405.297 125.844C402.877 125.844 400.915 127.806 400.915 130.226C400.915 132.645 402.877 134.607 405.297 134.607Z" fill="#ED7631"/>
<path d="M326.568 308.061C326.42 308.06 326.275 308.026 326.143 307.96C326.011 307.894 325.896 307.798 325.807 307.68C325.718 307.562 325.658 307.425 325.631 307.28C325.604 307.135 325.611 306.986 325.652 306.844C325.798 306.332 329.397 294.322 340.513 291.867C342.495 291.437 343.953 291.587 345.015 292.004C348.223 290.517 353.727 289.321 361.088 292.718C361.211 292.764 361.323 292.834 361.417 292.925C361.511 293.016 361.585 293.126 361.635 293.247C361.685 293.368 361.709 293.498 361.706 293.629C361.704 293.76 361.674 293.889 361.619 294.008C361.564 294.126 361.485 294.233 361.387 294.319C361.289 294.406 361.174 294.472 361.05 294.512C360.925 294.553 360.794 294.567 360.664 294.554C360.533 294.542 360.407 294.502 360.293 294.438C354.342 291.69 349.792 292.219 346.855 293.29C347.037 293.501 347.2 293.729 347.341 293.97C348.919 296.679 347.849 300.875 345.853 303.098C344.301 304.818 342.349 305.339 340.491 304.509C339.837 304.23 339.273 303.777 338.86 303.199C338.446 302.622 338.2 301.941 338.148 301.232C337.898 298.717 339.627 295.642 342.474 293.492C341.952 293.517 341.434 293.587 340.926 293.703C330.924 295.909 327.514 307.235 327.479 307.351C327.427 307.553 327.309 307.732 327.144 307.86C326.979 307.989 326.777 308.059 326.568 308.061ZM344.993 294.15C344.6 294.366 344.22 294.605 343.854 294.864C341.012 296.889 339.885 299.491 340.04 301.056C340.062 301.429 340.189 301.789 340.407 302.093C340.624 302.397 340.923 302.634 341.27 302.776C342.637 303.387 343.746 302.6 344.439 301.834C346.116 299.968 346.718 296.674 345.699 294.954C345.523 294.64 345.284 294.365 344.998 294.146L344.993 294.15Z" fill="#262424"/>
<path d="M178.605 344.86C178.317 344.859 178.03 344.842 177.745 344.808C176.904 344.731 176.102 344.419 175.43 343.909C174.757 343.399 174.241 342.711 173.939 341.923C173.213 340.074 173.544 337.829 174.799 335.808C165.292 336.785 159.938 343.88 159.887 343.953C159.737 344.156 159.514 344.291 159.264 344.329C159.015 344.367 158.761 344.304 158.558 344.155C158.355 344.005 158.22 343.781 158.182 343.532C158.144 343.283 158.207 343.029 158.356 342.826C158.61 342.482 164.647 334.437 175.702 333.83C175.952 333.83 176.195 333.822 176.433 333.805C178.833 331.521 184.603 328.086 196.364 330.666C196.61 330.72 196.825 330.87 196.961 331.082C197.097 331.295 197.142 331.552 197.088 331.799C197.034 332.045 196.884 332.26 196.672 332.396C196.459 332.532 196.202 332.577 195.955 332.523C186.96 330.55 181.864 332.261 179.185 334.041C181.95 334.609 183.232 336.062 183.795 337.051C184.261 337.867 184.49 338.797 184.456 339.736C184.421 340.675 184.125 341.586 183.601 342.366C183.048 343.171 182.299 343.822 181.425 344.258C180.551 344.694 179.581 344.902 178.605 344.86ZM177.186 335.727L177.117 335.804C175.638 337.524 175.079 339.674 175.689 341.231C175.861 341.701 176.166 342.111 176.567 342.411C176.968 342.712 177.447 342.888 177.947 342.921C179.693 343.127 181.155 342.542 181.963 341.317C182.292 340.831 182.479 340.262 182.503 339.676C182.526 339.089 182.385 338.508 182.096 337.997C181.318 336.647 179.564 335.83 177.186 335.727Z" fill="#262424"/>
</svg>
