<svg width="310" height="283" viewBox="0 0 310 283" fill="none" xmlns="http://www.w3.org/2000/svg">
<path d="M66.8727 41.7001L75.2776 32.9635L79.3095 39.5695H147.444C151.846 39.5695 155.856 43.293 156.401 47.8857L173.799 194.419L181.867 207.639L174.044 215.784C172.78 217.316 170.884 218.266 168.659 218.266H93.151C88.749 218.266 84.7384 214.542 84.194 209.95L64.9507 47.8877C64.6698 45.4296 65.4293 43.2222 66.8727 41.7001Z" fill="#91BED4"/>
<path d="M101.153 209.927H176.663C181.065 209.927 184.192 206.204 183.638 201.611L164.395 39.5493C163.851 34.9566 159.84 31.2331 155.438 31.2331H79.9297C75.5277 31.2331 72.4006 34.9566 72.9547 39.5493L92.198 201.611C92.7405 206.204 96.7511 209.927 101.153 209.927Z" fill="white"/>
<path d="M101.153 210.534H176.663C178.949 210.534 180.997 209.604 182.427 207.906C183.857 206.208 184.51 203.936 184.223 201.526L164.98 39.4644C164.399 34.5867 160.123 30.6166 155.446 30.6166H79.9374C77.6511 30.6166 75.6032 31.5464 74.1733 33.2444C72.7434 34.9424 72.0905 37.2145 72.3773 39.6241L91.6205 201.686C92.1979 206.566 96.4759 210.534 101.153 210.534ZM155.444 31.8395C159.555 31.8395 163.316 35.3305 163.825 39.6241L183.069 201.686C183.313 203.744 182.776 205.67 181.555 207.112C180.335 208.553 178.612 209.319 176.663 209.319H101.155C97.0436 209.319 93.2829 205.828 92.7733 201.534L73.5301 39.4725C73.2859 37.4146 73.8226 35.4862 75.0433 34.0469C76.2639 32.6077 77.9863 31.8395 79.9354 31.8395H155.446H155.444Z" fill="#262424"/>
<path d="M100.771 204.164H175.559C175.92 204.17 176.278 204.095 176.609 203.944C176.94 203.793 177.236 203.57 177.477 203.289C177.717 203.002 177.895 202.664 177.998 202.298C178.102 201.932 178.129 201.548 178.078 201.171L158.924 39.8605C158.815 39.0773 158.444 38.3594 157.877 37.8342C157.309 37.3091 156.582 37.0108 155.824 36.9921H134.899C134.635 36.9878 134.374 37.0428 134.132 37.1534C133.891 37.264 133.675 37.4275 133.5 37.6329C133.324 37.8423 133.194 38.0886 133.119 38.3551C133.043 38.6216 133.023 38.902 133.06 39.1773C133.08 39.3095 133.074 39.4447 133.04 39.574C133.007 39.7033 132.947 39.8237 132.866 39.9272C132.781 40.0245 132.676 40.1016 132.56 40.1532C132.444 40.2048 132.318 40.2298 132.192 40.2264H105.454C105.146 40.2141 104.851 40.0902 104.621 39.8758C104.391 39.6615 104.24 39.3702 104.193 39.052C104.122 38.4874 103.857 37.969 103.447 37.5925C103.043 37.2088 102.517 36.9931 101.971 36.9861H81.0457C80.6845 36.9799 80.3263 37.0549 79.9954 37.2059C79.6644 37.357 79.3685 37.5805 79.1276 37.8613C78.8876 38.1488 78.7098 38.4868 78.6062 38.8523C78.5025 39.2179 78.4755 39.6024 78.527 39.9798L97.6811 201.29C97.7883 202.072 98.1573 202.79 98.7228 203.316C99.2884 203.842 100.014 204.143 100.771 204.164ZM155.827 38.0028C156.35 38.0179 156.85 38.2252 157.24 38.5881C157.63 38.951 157.885 39.4461 157.959 39.9859L177.113 201.296C177.147 201.531 177.132 201.771 177.069 202C177.006 202.229 176.897 202.441 176.749 202.622C176.599 202.795 176.415 202.933 176.209 203.025C176.003 203.117 175.781 203.162 175.557 203.156H100.769C100.247 203.141 99.7466 202.933 99.3566 202.57C98.9665 202.207 98.7121 201.712 98.6382 201.173L79.4841 39.8626C79.45 39.6272 79.4649 39.3869 79.5277 39.1581C79.5906 38.9293 79.6999 38.7173 79.8483 38.5365C79.9982 38.3631 80.1824 38.2255 80.3881 38.1334C80.5938 38.0413 80.8161 37.9968 81.0399 38.0028H101.965C102.273 38.0086 102.569 38.1315 102.796 38.3485C103.03 38.5609 103.183 38.8546 103.226 39.1753C103.298 39.7402 103.562 40.2593 103.971 40.6378C104.379 41.0163 104.904 41.229 105.45 41.2371H132.188C132.452 41.241 132.715 41.1854 132.957 41.0741C133.199 40.9629 133.415 40.7985 133.591 40.5923C133.764 40.3827 133.893 40.1368 133.968 39.8712C134.043 39.6056 134.063 39.3263 134.027 39.052C134.007 38.9187 134.015 38.7826 134.05 38.6529C134.085 38.5231 134.146 38.4028 134.23 38.3C134.315 38.2026 134.42 38.1255 134.536 38.0739C134.652 38.0222 134.778 37.9973 134.904 38.0008H155.829L155.827 38.0028Z" fill="#262424"/>
<path d="M79.0035 39.9252L81.0708 57.3318H160.508L158.441 39.9252C158.35 39.2641 158.037 38.658 157.559 38.2141C157.081 37.7701 156.467 37.517 155.827 37.4995H134.902C134.706 37.4946 134.511 37.5348 134.331 37.6173C134.151 37.6998 133.991 37.8225 133.861 37.9768C133.732 38.1311 133.637 38.3132 133.582 38.5101C133.528 38.7071 133.515 38.9142 133.546 39.1167C133.574 39.32 133.56 39.5271 133.505 39.7244C133.45 39.9216 133.356 40.1045 133.228 40.2608C133.097 40.4127 132.937 40.5336 132.757 40.6152C132.578 40.6968 132.384 40.7372 132.188 40.7338H105.45C105.023 40.723 104.614 40.5546 104.295 40.2585C103.975 39.9624 103.767 39.5578 103.707 39.1167C103.651 38.6749 103.444 38.2688 103.125 37.9725C102.809 37.6739 102.399 37.5058 101.973 37.4995H81.0476C80.7521 37.4907 80.4584 37.5499 80.1874 37.6729C79.9163 37.796 79.6746 37.9799 79.4795 38.2115C79.2843 38.4431 79.1404 38.7167 79.0582 39.0129C78.9759 39.3092 78.9573 39.6206 79.0035 39.9252Z" fill="#ED7631"/>
<path d="M81.0708 57.9382H160.508C160.591 57.9389 160.673 57.9211 160.749 57.886C160.824 57.851 160.892 57.7995 160.947 57.735C161.002 57.6705 161.043 57.5945 161.068 57.5121C161.092 57.4296 161.1 57.3427 161.09 57.257L159.022 39.8504C158.911 39.0442 158.529 38.3051 157.946 37.7639C157.362 37.2227 156.614 36.9143 155.833 36.8931H134.908C134.631 36.8888 134.356 36.9467 134.102 37.0628C133.848 37.1789 133.621 37.3506 133.436 37.5662C133.252 37.7856 133.116 38.0435 133.036 38.3224C132.956 38.6014 132.935 38.895 132.973 39.1834C132.99 39.302 132.983 39.4232 132.953 39.5389C132.922 39.6546 132.868 39.7622 132.794 39.8545C132.718 39.941 132.625 40.0094 132.521 40.0551C132.417 40.1008 132.304 40.1227 132.192 40.1193H105.454C105.17 40.1072 104.898 39.9923 104.686 39.7943C104.474 39.5962 104.335 39.3274 104.292 39.0338C104.214 38.4449 103.937 37.9046 103.51 37.5104C103.084 37.1163 102.536 36.8944 101.967 36.885H81.0417C80.6661 36.8791 80.2937 36.9579 79.95 37.1159C79.6063 37.2739 79.2993 37.5075 79.05 37.8007C78.8009 38.0988 78.6163 38.4493 78.5087 38.8285C78.401 39.2076 78.3729 39.6065 78.4261 39.998L80.4934 57.4086C80.5113 57.5551 80.5799 57.6897 80.6862 57.7872C80.7925 57.8847 80.9293 57.9384 81.0708 57.9382ZM159.851 56.7253H81.5765L79.5731 39.8504C79.5411 39.6295 79.5549 39.404 79.6138 39.1891C79.6726 38.9743 79.775 38.7752 79.9141 38.6052C80.0552 38.4432 80.2281 38.3148 80.421 38.2287C80.6139 38.1425 80.8223 38.1007 81.032 38.106H101.957C102.245 38.1094 102.521 38.2239 102.732 38.4274C102.948 38.6238 103.089 38.8951 103.129 39.1915C103.205 39.7812 103.482 40.3227 103.908 40.7173C104.335 41.1118 104.884 41.3329 105.454 41.3402H132.192C132.47 41.3446 132.746 41.2864 133.001 41.1695C133.255 41.0527 133.483 40.8799 133.668 40.6631C133.85 40.443 133.986 40.1849 134.065 39.9061C134.144 39.6273 134.165 39.334 134.127 39.0459C134.11 38.9271 134.117 38.8057 134.148 38.69C134.179 38.5742 134.233 38.4667 134.307 38.3748C134.384 38.2883 134.477 38.2199 134.58 38.1742C134.684 38.1285 134.796 38.1066 134.908 38.11H155.833C156.332 38.1243 156.81 38.3223 157.183 38.6689C157.556 39.0155 157.799 39.4885 157.869 40.0041L159.851 56.7253Z" fill="#ED7631"/>
<path d="M96.7181 189.107L98.1576 201.235C98.2489 201.896 98.5613 202.502 99.0396 202.946C99.5179 203.39 100.131 203.643 100.771 203.661H175.559C175.854 203.669 176.146 203.609 176.417 203.485C176.687 203.361 176.927 203.177 177.122 202.946C177.316 202.714 177.459 202.441 177.541 202.146C177.623 201.85 177.641 201.539 177.595 201.235L176.156 189.107H96.7181Z" fill="#ED7631"/>
<path d="M100.771 204.267H175.559C175.934 204.274 176.305 204.196 176.649 204.04C176.992 203.883 177.299 203.651 177.549 203.36C177.798 203.062 177.982 202.711 178.09 202.332C178.198 201.953 178.226 201.554 178.173 201.163L176.733 189.034C176.715 188.886 176.647 188.751 176.539 188.653C176.432 188.555 176.294 188.501 176.152 188.502H96.7143C96.6315 188.502 96.5496 188.519 96.4739 188.554C96.3983 188.589 96.3307 188.641 96.2757 188.705C96.2206 188.77 96.1795 188.846 96.1548 188.928C96.1302 189.011 96.1228 189.098 96.133 189.183L97.5726 201.312C97.685 202.12 98.068 202.86 98.6536 203.401C99.2391 203.942 99.9894 204.249 100.771 204.267ZM175.642 189.713L177.02 201.31C177.052 201.531 177.038 201.757 176.979 201.971C176.92 202.186 176.818 202.385 176.679 202.555C176.538 202.717 176.365 202.846 176.172 202.932C175.979 203.018 175.771 203.06 175.561 203.055H100.773C100.274 203.04 99.7962 202.842 99.4235 202.496C99.0508 202.149 98.8077 201.676 98.737 201.16L97.3808 189.713H175.656H175.642Z" fill="#ED7631"/>
<path d="M106.874 37.4995H129.995C130.191 37.5044 130.386 37.4642 130.566 37.3817C130.746 37.2992 130.906 37.1765 131.036 37.0222C131.165 36.8679 131.26 36.6859 131.315 36.4889C131.369 36.2919 131.382 36.0849 131.351 35.8824C131.291 35.4412 131.082 35.0366 130.763 34.7405C130.444 34.4445 130.034 34.2761 129.607 34.2652H106.487C106.291 34.2603 106.095 34.3006 105.916 34.383C105.736 34.4655 105.575 34.5882 105.446 34.7425C105.317 34.8968 105.221 35.0789 105.167 35.2759C105.112 35.4728 105.1 35.6799 105.131 35.8824C105.191 36.3236 105.399 36.7281 105.719 37.0242C106.038 37.3203 106.447 37.4887 106.874 37.4995Z" fill="#91BED4"/>
<path d="M142.921 158.81L142.123 160.313C142.068 160.412 141.977 160.485 141.871 160.516L140.259 161.021C139.93 161.124 139.847 161.555 140.1 161.848L141.339 163.283C141.421 163.377 141.472 163.496 141.484 163.623L141.643 165.442C141.653 165.529 141.681 165.613 141.725 165.688C141.769 165.762 141.828 165.826 141.898 165.875C141.968 165.923 142.047 165.956 142.13 165.969C142.213 165.983 142.298 165.977 142.379 165.953L143.944 165.337C144.055 165.295 144.177 165.295 144.287 165.337L145.996 165.959C146.07 165.993 146.152 166.004 146.232 165.993C146.312 165.982 146.387 165.948 146.45 165.896C146.513 165.843 146.561 165.774 146.59 165.695C146.618 165.616 146.625 165.531 146.61 165.448L146.339 163.629C146.32 163.511 146.343 163.39 146.405 163.289L147.304 161.854C147.343 161.777 147.365 161.691 147.368 161.603C147.371 161.516 147.354 161.429 147.32 161.349C147.285 161.27 147.234 161.199 147.169 161.143C147.105 161.087 147.029 161.048 146.948 161.027L145.215 160.522C145.097 160.488 144.992 160.418 144.913 160.32L143.751 158.816C143.518 158.5 143.084 158.5 142.921 158.81Z" fill="#ED7631"/>
<path d="M132.422 158.81L131.624 160.313C131.568 160.412 131.478 160.485 131.372 160.516L129.76 161.021C129.431 161.124 129.347 161.555 129.601 161.848L130.839 163.283C130.921 163.377 130.972 163.496 130.985 163.623L131.143 165.442C131.153 165.529 131.181 165.613 131.225 165.688C131.269 165.762 131.328 165.826 131.398 165.875C131.468 165.923 131.548 165.956 131.631 165.969C131.714 165.983 131.799 165.977 131.88 165.953L133.445 165.337C133.556 165.295 133.677 165.295 133.788 165.337L135.497 165.959C135.571 165.993 135.652 166.004 135.732 165.993C135.812 165.982 135.888 165.948 135.951 165.896C136.014 165.843 136.062 165.774 136.09 165.695C136.119 165.616 136.126 165.531 136.111 165.448L135.84 163.629C135.821 163.511 135.844 163.39 135.906 163.289L136.805 161.854C136.844 161.777 136.866 161.691 136.869 161.603C136.871 161.516 136.855 161.429 136.82 161.349C136.786 161.27 136.735 161.199 136.67 161.143C136.606 161.087 136.53 161.048 136.448 161.027L134.716 160.522C134.598 160.488 134.492 160.418 134.414 160.32L133.251 158.816C133.019 158.5 132.585 158.5 132.422 158.81Z" fill="#ED7631"/>
<path d="M121.923 158.81L121.125 160.313C121.069 160.412 120.979 160.485 120.873 160.516L119.261 161.021C118.932 161.124 118.848 161.555 119.102 161.848L120.34 163.283C120.422 163.377 120.473 163.496 120.486 163.623L120.644 165.442C120.654 165.529 120.682 165.613 120.726 165.688C120.77 165.762 120.83 165.826 120.9 165.875C120.97 165.923 121.049 165.956 121.132 165.969C121.215 165.983 121.3 165.977 121.381 165.953L122.946 165.337C123.057 165.295 123.178 165.295 123.289 165.337L124.998 165.959C125.072 165.993 125.154 166.004 125.233 165.993C125.313 165.982 125.389 165.948 125.452 165.896C125.515 165.843 125.563 165.774 125.591 165.695C125.62 165.616 125.627 165.531 125.612 165.448L125.341 163.629C125.322 163.511 125.345 163.39 125.407 163.289L126.306 161.854C126.345 161.776 126.366 161.689 126.368 161.601C126.371 161.513 126.353 161.426 126.317 161.346C126.282 161.266 126.229 161.195 126.163 161.14C126.097 161.085 126.02 161.046 125.938 161.027L124.206 160.522C124.087 160.488 123.982 160.418 123.903 160.32L122.741 158.816C122.52 158.5 122.086 158.5 121.923 158.81Z" fill="#ED7631"/>
<path d="M107.047 148.599H156.205C158.613 148.599 160.322 146.564 160.024 144.051L153.934 92.7634C153.636 90.2508 151.443 88.2152 149.034 88.2152H99.8761C97.4678 88.2152 95.7589 90.2508 96.0573 92.7634L102.147 144.051C102.445 146.554 104.638 148.599 107.047 148.599Z" fill="#91BED4"/>
<path d="M106.731 70.8632H138.062C138.308 70.8696 138.552 70.8196 138.777 70.7166C139.002 70.6137 139.203 70.4603 139.365 70.2674C139.527 70.0745 139.646 69.8468 139.714 69.6004C139.782 69.3541 139.798 69.0951 139.759 68.8418C139.684 68.2907 139.424 67.7852 139.025 67.4152C138.627 67.0451 138.115 66.8344 137.582 66.8204H106.25C106.005 66.814 105.761 66.864 105.535 66.967C105.31 67.0699 105.11 67.2233 104.948 67.4162C104.786 67.6091 104.667 67.8368 104.598 68.0832C104.53 68.3295 104.515 68.5885 104.553 68.8418C104.629 69.3929 104.889 69.8984 105.287 70.2684C105.686 70.6385 106.197 70.8492 106.731 70.8632Z" fill="#91BED4"/>
<path d="M117.248 81.9143H130.169C130.415 81.9208 130.659 81.8707 130.884 81.7677C131.109 81.6648 131.31 81.5114 131.472 81.3185C131.634 81.1256 131.753 80.8979 131.821 80.6516C131.889 80.4052 131.905 80.1462 131.866 79.8929C131.791 79.3418 131.531 78.8363 131.132 78.4663C130.733 78.0962 130.222 77.8855 129.689 77.8715H116.767C116.522 77.8651 116.278 77.9151 116.053 78.0181C115.827 78.1211 115.627 78.2744 115.465 78.4673C115.303 78.6602 115.184 78.8879 115.115 79.1343C115.047 79.3806 115.032 79.6396 115.07 79.8929C115.146 80.4441 115.406 80.9495 115.804 81.3196C116.203 81.6896 116.714 81.9003 117.248 81.9143Z" fill="#91BED4"/>
<path d="M141.079 46.505H152.252C152.484 46.5086 152.713 46.4603 152.924 46.3634C153.136 46.2664 153.325 46.123 153.479 45.943C153.633 45.7598 153.747 45.5442 153.814 45.3108C153.881 45.0775 153.898 44.8319 153.866 44.5907C153.804 44.0991 153.573 43.6475 153.217 43.3187C152.862 42.9898 152.404 42.8055 151.929 42.7997H140.759C140.528 42.796 140.299 42.8443 140.087 42.9413C139.876 43.0383 139.686 43.1816 139.533 43.3617C139.379 43.5451 139.264 43.7611 139.197 43.9948C139.131 44.2285 139.113 44.4745 139.145 44.716C139.208 45.2066 139.438 45.6571 139.793 45.9855C140.148 46.3139 140.604 46.4982 141.079 46.505ZM151.929 43.8104C152.166 43.8206 152.392 43.9163 152.568 44.0811C152.745 44.2459 152.861 44.4696 152.898 44.714C152.912 44.8132 152.907 44.9145 152.88 45.0111C152.854 45.1077 152.809 45.1974 152.746 45.2739C152.683 45.3458 152.606 45.4026 152.519 45.4407C152.433 45.4787 152.34 45.4969 152.247 45.4943H141.073C140.836 45.484 140.61 45.3884 140.433 45.2236C140.257 45.0588 140.14 44.8351 140.104 44.5907C140.09 44.4915 140.095 44.3902 140.122 44.2936C140.148 44.197 140.193 44.1074 140.255 44.0307C140.319 43.9589 140.396 43.902 140.482 43.864C140.569 43.826 140.662 43.8077 140.755 43.8104H151.933H151.929Z" fill="white"/>
<path d="M141.736 52.0316H152.907C153.139 52.0353 153.368 51.987 153.579 51.89C153.791 51.793 153.98 51.6497 154.134 51.4696C154.288 51.2862 154.402 51.0702 154.469 50.8365C154.536 50.6028 154.554 50.3568 154.521 50.1153C154.459 49.6237 154.228 49.1721 153.872 48.8433C153.517 48.5144 153.059 48.3301 152.584 48.3243H141.41C141.179 48.3206 140.95 48.3689 140.738 48.4659C140.527 48.5629 140.338 48.7062 140.184 48.8862C140.03 49.0695 139.916 49.2851 139.849 49.5184C139.782 49.7518 139.764 49.9974 139.796 50.2386C139.859 50.7309 140.089 51.1832 140.446 51.5125C140.802 51.8419 141.26 52.0262 141.736 52.0316ZM152.586 49.337C152.823 49.3472 153.049 49.4429 153.225 49.6077C153.402 49.7725 153.518 49.9962 153.555 50.2406C153.569 50.3398 153.563 50.4411 153.537 50.5377C153.511 50.6343 153.466 50.7239 153.403 50.8005C153.34 50.8724 153.263 50.9293 153.176 50.9673C153.09 51.0053 152.997 51.0236 152.904 51.0209H141.73C141.493 51.0107 141.267 50.915 141.09 50.7502C140.914 50.5854 140.797 50.3617 140.761 50.1173C140.746 50.0181 140.752 49.9168 140.778 49.8202C140.804 49.7235 140.85 49.6339 140.912 49.5574C140.976 49.4855 141.053 49.4286 141.139 49.3906C141.226 49.3526 141.319 49.3343 141.412 49.337H152.588H152.586Z" fill="white"/>
<path d="M120.363 181.83H150.782C153.349 181.83 155.174 179.656 154.851 176.978C154.533 174.3 152.193 172.127 149.62 172.127H119.201C116.634 172.127 114.808 174.3 115.132 176.978C115.456 179.656 117.8 181.83 120.363 181.83Z" fill="#91BED4"/>
<path d="M102.245 218.694C102.245 218.694 112.687 221.86 119.199 205.454C127.142 185.442 107.405 179.444 100.792 199.188C95.1736 215.965 102.245 218.694 102.245 218.694Z" fill="#ED7631"/>
<path d="M104.365 219.547C105.766 219.542 107.155 219.288 108.475 218.797C111.71 217.607 116.291 214.366 119.737 205.684C122.353 199.093 122.256 193.224 119.476 189.586C117.6 187.134 114.752 186.042 111.662 186.592C106.818 187.451 102.556 192.084 100.246 198.987C94.5053 216.131 101.736 219.143 102.046 219.262L102.085 219.276C102.83 219.47 103.597 219.561 104.365 219.547ZM113.198 187.667C114.231 187.653 115.254 187.887 116.186 188.351C117.118 188.815 117.936 189.497 118.575 190.344C121.094 193.627 121.121 199.05 118.672 205.221C116.089 211.728 112.456 216.02 108.167 217.629C105.113 218.773 102.707 218.189 102.441 218.118C102.248 218.029 100.81 217.31 99.9226 214.884C99.0352 212.458 98.5489 207.773 101.356 199.384C103.526 192.905 107.456 188.569 111.869 187.785C112.308 187.707 112.753 187.668 113.198 187.667Z" fill="#262424"/>
<path d="M94.3351 239.058C99.7155 216.717 113.968 195.347 113.968 195.347C113.968 195.347 100.987 217.583 96.9178 240.223L94.3351 239.058Z" fill="white"/>
<path d="M96.9175 240.829C97.0532 240.829 97.1846 240.78 97.289 240.689C97.3934 240.599 97.4642 240.473 97.4891 240.334C101.49 218.068 114.336 195.882 114.464 195.66C114.531 195.527 114.549 195.371 114.513 195.225C114.476 195.079 114.389 194.952 114.268 194.869C114.147 194.786 114 194.754 113.857 194.778C113.714 194.802 113.585 194.881 113.495 194.999C113.351 195.213 99.1204 216.719 93.7749 238.909C93.741 239.048 93.756 239.196 93.817 239.325C93.8781 239.455 93.9813 239.557 94.1081 239.614L96.6908 240.778C96.7624 240.811 96.8394 240.828 96.9175 240.829ZM104.803 212.856C101.573 220.538 98.2641 229.921 96.4854 239.367L95.0226 238.708C97.3108 229.432 101.137 220.303 104.803 212.856Z" fill="#262424"/>
<path d="M72.4955 222.951C72.4955 222.951 62.157 224.619 50.408 212.664C29.483 191.377 56.4782 185.982 69.2017 207.302C77.7403 221.593 72.4955 222.951 72.4955 222.951Z" fill="#ED7631"/>
<path d="M71.1063 223.639C71.6004 223.646 72.0944 223.617 72.5846 223.552L72.635 223.542C72.7512 223.511 73.782 223.208 74.3381 221.779C75.4366 218.949 73.875 213.976 69.6997 206.982C66.8864 202.27 63.1587 198.474 58.9175 196.004C55.2362 193.859 51.3051 192.846 48.1295 193.226C45.2058 193.574 43.185 195.025 42.4352 197.312C41.1526 201.225 43.8379 206.833 49.9914 213.099C56.1449 219.365 61.938 221.878 65.7065 222.881C67.4694 223.365 69.2832 223.62 71.1063 223.639ZM72.3676 222.357C72.0324 222.4 69.5757 222.666 65.9293 221.684C62.3159 220.712 56.7591 218.282 50.8168 212.23C45.0741 206.388 42.4313 201.098 43.5357 197.696C44.1324 195.876 45.8103 194.716 48.2632 194.423C54.095 193.73 62.9882 198.035 68.7135 207.615C73.8692 216.25 73.7897 219.871 73.2821 221.26C72.9857 222.078 72.4858 222.313 72.3676 222.357Z" fill="#262424"/>
<path d="M85.3567 239.289C74.5454 221.367 55.0968 204.221 55.0968 204.221C55.0968 204.221 73.4837 222.06 83.0569 240.223L85.3567 239.289Z" fill="white"/>
<path d="M83.0587 240.829C83.1309 240.829 83.2026 240.816 83.27 240.789L85.5698 239.855C85.6495 239.822 85.7213 239.772 85.7802 239.707C85.8391 239.642 85.8835 239.565 85.9104 239.48C85.9372 239.395 85.9458 239.305 85.9355 239.217C85.9251 239.128 85.8962 239.043 85.8507 238.967C75.115 221.179 55.6683 203.93 55.4745 203.758C55.4174 203.705 55.3508 203.664 55.2786 203.638C55.2063 203.612 55.1299 203.6 55.0535 203.605C54.9771 203.61 54.9024 203.63 54.8335 203.665C54.7646 203.699 54.703 203.748 54.6521 203.808C54.6012 203.867 54.562 203.937 54.5369 204.012C54.5117 204.087 54.5011 204.167 54.5055 204.247C54.5099 204.327 54.5293 204.405 54.5626 204.476C54.5959 204.548 54.6424 204.613 54.6995 204.666C54.8836 204.844 73.1291 222.656 82.5473 240.516C82.5977 240.611 82.6718 240.69 82.7618 240.745C82.8518 240.801 82.9544 240.829 83.0587 240.829ZM84.4886 238.992L83.3261 239.467C79.9432 233.148 75.4967 226.859 71.1567 221.363C75.8222 226.671 80.6718 232.788 84.4867 238.992H84.4886Z" fill="#262424"/>
<path d="M84.9745 171.763C84.9745 171.763 92.337 179.432 94.3365 199.62C96.336 219.808 88.8766 220.942 88.8766 220.942C88.8766 220.942 79.9195 222.41 75.9922 202.022C74.0547 191.995 72.0184 184.447 70.4549 179.398C70.1842 178.521 70.116 177.591 70.2558 176.681C70.3957 175.772 70.7396 174.911 71.2595 174.167C71.7793 173.423 72.4605 172.817 73.2473 172.4C74.0342 171.983 74.9043 171.766 75.7869 171.767H84.9745V171.763Z" fill="#ED7631"/>
<path d="M88.4816 221.569C88.6442 221.571 88.8067 221.561 88.9679 221.538C89.2876 221.49 96.9485 220.087 94.9141 199.557C92.9146 179.39 85.6916 171.662 85.3855 171.334C85.2766 171.22 85.1288 171.157 84.9747 171.156H75.7871C74.8131 171.156 73.8527 171.396 72.9844 171.856C72.116 172.316 71.3643 172.985 70.7906 173.806C70.2169 174.627 69.8375 175.578 69.6832 176.582C69.5289 177.585 69.6042 178.612 69.9029 179.58C71.3231 184.164 73.4331 191.799 75.4248 202.137C77.0833 210.74 79.8191 216.618 83.5623 219.606C85.7207 221.346 87.6194 221.569 88.4816 221.569ZM84.719 172.371C85.7846 173.629 91.9672 181.621 93.7574 199.683C95.6794 219.066 88.8633 220.33 88.7936 220.34C88.7238 220.35 86.6836 220.627 84.1668 218.567C81.7876 216.62 78.5364 212.147 76.5621 201.898C74.5607 191.504 72.4372 183.823 71.0073 179.208C70.7648 178.422 70.7036 177.588 70.8289 176.774C70.9542 175.959 71.2624 175.187 71.7282 174.52C72.1941 173.853 72.8044 173.311 73.5095 172.937C74.2146 172.563 74.9943 172.369 75.7852 172.369H84.7171L84.719 172.371Z" fill="#262424"/>
<path d="M89.8457 239.58C86.7941 196.523 75.0703 174.393 75.0703 174.393H77.0911C77.0911 174.393 88.4894 196.364 92.7209 239.363L89.8457 239.58Z" fill="white"/>
<path d="M89.8458 240.186H89.8884L92.7637 239.968C92.8414 239.962 92.9171 239.94 92.9865 239.903C93.0558 239.866 93.1174 239.815 93.1674 239.753C93.2175 239.691 93.255 239.619 93.2779 239.541C93.3007 239.463 93.3084 239.382 93.3004 239.301C91.1091 217.037 86.9648 200.51 83.8745 190.566C80.5187 179.77 77.6338 174.16 77.6047 174.104C77.5548 174.008 77.4809 173.927 77.3908 173.871C77.3008 173.816 77.198 173.786 77.0932 173.786H75.0724C74.9714 173.786 74.8722 173.814 74.7846 173.867C74.697 173.919 74.624 173.994 74.5727 174.085C74.5215 174.176 74.4938 174.279 74.4924 174.384C74.491 174.49 74.516 174.594 74.5648 174.686C74.5938 174.74 77.5175 180.322 80.7764 191.069C83.7834 200.991 87.6971 217.467 89.2685 239.624C89.2792 239.777 89.3446 239.919 89.4517 240.023C89.5587 240.127 89.6994 240.186 89.8458 240.186ZM92.0817 238.801L90.3825 238.931C88.7744 216.936 84.8723 200.558 81.8692 190.657C79.3252 182.272 76.975 176.99 76.0237 174.997H76.7386C77.3819 176.315 79.9026 181.714 82.7798 190.983C85.8197 200.77 89.8885 216.982 92.0798 238.801H92.0817Z" fill="#262424"/>
<path d="M84.9749 171.763H72.4257C71.0951 171.762 69.8079 172.256 68.7946 173.156C67.7814 174.056 67.1083 175.302 66.8961 176.673C65.4681 185.816 63.8154 204.48 74.3167 203.742C83.1187 203.117 78.771 171.763 84.9749 171.763Z" fill="#ED7631"/>
<path d="M73.7239 204.366C73.9318 204.366 74.143 204.359 74.3574 204.344C79.6216 203.974 80.5225 194.613 81.3944 185.561C82.0183 179.078 82.6635 172.373 84.9749 172.373C85.1291 172.373 85.2769 172.309 85.3859 172.196C85.4949 172.082 85.5562 171.928 85.5562 171.767C85.5562 171.606 85.4949 171.452 85.3859 171.338C85.2769 171.224 85.1291 171.16 84.9749 171.16H72.4257C70.9572 171.156 69.5354 171.699 68.4167 172.691C67.2979 173.684 66.556 175.061 66.3245 176.574C65.1892 183.851 63.9627 196.82 68.5197 202.044C69.8644 203.584 71.612 204.366 73.7239 204.366ZM82.8766 172.373C81.2782 174.625 80.786 179.743 80.2377 185.44C79.453 193.592 78.5637 202.824 74.2799 203.135C72.2281 203.281 70.6238 202.656 69.38 201.229C65.1504 196.378 66.3691 183.823 67.4715 176.77C67.6596 175.541 68.2621 174.424 69.1705 173.618C70.0789 172.812 71.2334 172.371 72.4257 172.375H82.8766V172.373Z" fill="#262424"/>
<path d="M76.2581 171.763C76.2581 171.763 72.3831 184.565 72.7066 198.648C72.7066 198.648 70.2518 186.182 73.6754 171.763H76.2581Z" fill="white"/>
<path d="M72.7065 199.254H72.7724C72.9165 199.237 73.0494 199.164 73.1447 199.05C73.2401 198.936 73.2911 198.789 73.2878 198.638C72.97 184.815 76.7753 172.076 76.8121 171.955C76.8394 171.864 76.846 171.768 76.8311 171.674C76.8162 171.58 76.7803 171.491 76.7263 171.414C76.6724 171.338 76.6019 171.275 76.5205 171.232C76.4391 171.189 76.3492 171.167 76.258 171.167H73.6753C73.5455 171.167 73.4194 171.212 73.3172 171.296C73.2151 171.379 73.1426 171.496 73.1114 171.627C69.6956 186.014 72.1136 198.654 72.1427 198.781C72.1716 198.915 72.2431 199.035 72.3455 199.12C72.4479 199.206 72.5751 199.254 72.7065 199.254ZM75.481 172.369C74.001 177.94 72.9909 183.635 72.4624 189.39C72.3238 183.665 72.8851 177.946 74.1325 172.369H75.4888H75.481Z" fill="#262424"/>
<path d="M70.2134 236.584C70.2134 236.584 70.6125 238.605 71.281 241.739C72.6895 248.343 75.2935 259.931 77.8995 268.219H104.151C104.486 267.154 104.821 266.034 105.152 264.878C105.927 262.206 106.675 259.333 107.384 256.483C109.891 246.41 111.841 236.584 111.841 236.584H70.2173H70.2134Z" fill="white"/>
<path d="M77.8989 268.826H104.15C104.272 268.826 104.392 268.786 104.491 268.711C104.59 268.636 104.664 268.531 104.702 268.409C105.032 267.364 105.371 266.234 105.708 265.052C106.423 262.561 107.176 259.729 107.946 256.634C110.428 246.663 112.384 236.804 112.402 236.705C112.419 236.617 112.418 236.526 112.397 236.438C112.377 236.351 112.338 236.269 112.284 236.199C112.229 236.129 112.16 236.073 112.082 236.034C112.004 235.995 111.919 235.975 111.832 235.975H70.209C70.1226 235.975 70.0373 235.995 69.9592 236.034C69.8812 236.073 69.8123 236.129 69.7578 236.199C69.7032 236.269 69.6643 236.351 69.6438 236.438C69.6233 236.526 69.6218 236.617 69.6394 236.705C69.6394 236.725 70.0462 238.759 70.7089 241.868C72.0651 248.181 74.7079 260.024 77.3429 268.405C77.3807 268.528 77.4551 268.635 77.555 268.71C77.655 268.786 77.7755 268.826 77.8989 268.826ZM103.728 267.613H78.3213C75.7444 259.309 73.1676 247.803 71.8481 241.607C71.4219 239.6 71.1022 238.045 70.9297 237.19H111.121C110.623 239.65 108.909 247.95 106.822 256.331C106.047 259.41 105.307 262.228 104.596 264.704C104.305 265.719 104.014 266.695 103.73 267.613H103.728Z" fill="#262424"/>
<path d="M84.3239 252.668C77.9088 262.024 90.644 266.01 105.152 264.878C105.927 262.206 106.675 259.333 107.384 256.483C100.915 258.064 90.1287 259.313 94.335 248.611C97.1734 241.387 89.1967 238.076 80.1912 236.584H70.217C70.217 236.584 70.6161 238.605 71.2845 241.739C78.492 242.444 89.7198 244.795 84.3239 252.668Z" fill="#91BED4"/>
<path d="M101.194 247.971C105.59 247.12 105.65 252.755 100.677 253.899C95.7029 255.044 94.9376 249.183 101.194 247.971Z" fill="#91BED4"/>
<path d="M209.887 231.427L210.393 243.93L204.966 244.854L203.17 231.427H209.887Z" fill="white"/>
<path d="M204.966 245.46C204.997 245.463 205.028 245.463 205.059 245.46L210.484 244.536C210.624 244.512 210.751 244.435 210.841 244.32C210.93 244.205 210.977 244.06 210.97 243.912L210.465 231.409C210.458 231.253 210.394 231.105 210.286 230.997C210.178 230.889 210.033 230.829 209.883 230.829H203.166C203.082 230.828 203 230.846 202.923 230.882C202.847 230.917 202.779 230.97 202.723 231.035C202.668 231.101 202.627 231.178 202.603 231.262C202.579 231.346 202.573 231.434 202.585 231.52L204.381 244.947C204.402 245.092 204.474 245.223 204.581 245.318C204.689 245.412 204.826 245.463 204.966 245.46ZM209.79 243.418L205.46 244.154L203.838 232.026H209.331L209.79 243.418Z" fill="#262424"/>
<path d="M186.581 158.927C187.271 162.238 200.144 234.005 200.144 234.005L213.125 232.994L212.774 197.13L212.677 187.211L212.197 138.185C212.197 121.623 186.269 123.74 185.18 138.993C184.71 145.413 185.882 155.614 186.581 158.927Z" fill="#91BED4"/>
<path d="M202.296 229.23C202.382 229.231 202.466 229.213 202.544 229.176C202.622 229.14 202.691 229.085 202.747 229.018C202.802 228.95 202.843 228.87 202.865 228.784C202.888 228.698 202.892 228.608 202.878 228.521L188.451 141.854C188.419 141.701 188.333 141.567 188.209 141.479C188.085 141.392 187.933 141.358 187.786 141.384C187.638 141.41 187.506 141.494 187.417 141.619C187.327 141.745 187.287 141.901 187.306 142.056L201.732 228.723C201.755 228.863 201.823 228.99 201.926 229.083C202.029 229.176 202.16 229.228 202.296 229.23Z" fill="#262424"/>
<path d="M189.681 153.426C191.154 153.426 192.32 152.871 193.149 151.775C195.682 148.429 194.045 141.11 193.973 140.799C193.937 140.642 193.843 140.507 193.712 140.422C193.581 140.338 193.423 140.312 193.272 140.349C193.122 140.386 192.993 140.484 192.912 140.621C192.831 140.758 192.806 140.923 192.841 141.08C192.857 141.15 194.419 148.138 192.235 151.023C191.619 151.809 190.79 152.214 189.681 152.214C189.527 152.214 189.379 152.277 189.27 152.391C189.161 152.505 189.1 152.659 189.1 152.82C189.1 152.981 189.161 153.135 189.27 153.249C189.379 153.363 189.527 153.426 189.681 153.426Z" fill="#262424"/>
<path d="M202.883 192.42C203.145 196.643 205.85 199.899 208.926 199.697C210.476 199.592 211.833 198.62 212.761 197.138L212.664 187.219C211.53 185.399 209.822 184.282 207.981 184.407C204.906 184.607 202.622 188.195 202.883 192.42Z" fill="white"/>
<path d="M200.826 231.826H200.876L211.552 230.865C211.706 230.851 211.849 230.774 211.948 230.651C212.048 230.527 212.096 230.367 212.083 230.206C212.069 230.046 211.995 229.897 211.877 229.793C211.758 229.689 211.605 229.639 211.451 229.653L200.776 230.613C200.621 230.62 200.476 230.69 200.372 230.809C200.268 230.928 200.213 231.085 200.219 231.245C200.226 231.406 200.294 231.558 200.408 231.667C200.521 231.775 200.672 231.833 200.826 231.826Z" fill="#262424"/>
<path d="M229.46 265.555V268.219H203.17C203.17 268.219 203.085 266.829 203.003 264.49C202.839 259.889 202.682 251.613 203.17 243.063L212.761 242.185C212.761 242.185 217.672 250.799 224.08 258.104C224.744 258.862 226.503 260.109 227.242 260.809C228.658 262.157 229.46 263.823 229.46 265.555Z" fill="#91BED4"/>
<path d="M215.702 258.713C215.808 258.712 215.912 258.682 216.003 258.625C216.093 258.567 216.167 258.485 216.216 258.387C216.265 258.289 216.288 258.179 216.281 258.068C216.274 257.958 216.239 257.851 216.179 257.76C211.608 250.888 209.068 243.319 209.043 243.245C209.017 243.169 208.978 243.1 208.927 243.041C208.876 242.981 208.814 242.933 208.745 242.899C208.676 242.864 208.601 242.844 208.525 242.84C208.448 242.836 208.372 242.847 208.3 242.874C208.228 242.9 208.161 242.941 208.104 242.995C208.047 243.048 208.001 243.112 207.968 243.184C207.935 243.256 207.916 243.334 207.912 243.414C207.908 243.494 207.919 243.574 207.944 243.649C207.969 243.726 210.564 251.456 215.223 258.46C215.278 258.539 215.35 258.603 215.433 258.647C215.516 258.691 215.609 258.714 215.702 258.713Z" fill="#262424"/>
<path d="M206.163 259.274C205.21 259.274 204.437 257.817 204.437 256.02C204.437 254.223 205.21 252.766 206.163 252.766C207.117 252.766 207.89 254.223 207.89 256.02C207.89 257.817 207.117 259.274 206.163 259.274Z" fill="white"/>
<path d="M206.163 259.881C207.458 259.881 208.471 258.185 208.471 256.02C208.471 253.855 207.458 252.159 206.163 252.159C204.869 252.159 203.856 253.855 203.856 256.02C203.856 258.185 204.869 259.881 206.163 259.881ZM206.163 253.37C206.63 253.37 207.308 254.401 207.308 256.018C207.308 257.635 206.63 258.666 206.163 258.666C205.634 258.666 205.018 257.51 205.018 256.018C205.018 254.526 205.633 253.372 206.163 253.372V253.37Z" fill="#262424"/>
<path d="M229.46 265.555V268.219H203.17C203.17 268.219 203.085 266.829 203.003 264.49H215.045C215.045 264.49 214.367 257.378 224.08 258.106C224.744 258.864 226.503 260.111 227.242 260.811C228.658 262.157 229.46 263.823 229.46 265.555Z" fill="white"/>
<path d="M203.17 268.826H229.46C229.614 268.826 229.762 268.762 229.871 268.648C229.98 268.534 230.041 268.38 230.041 268.219V265.555C230.041 263.683 229.187 261.84 227.633 260.364C227.311 260.059 226.825 259.671 226.312 259.258C225.633 258.717 224.866 258.104 224.51 257.698C224.41 257.581 224.272 257.508 224.122 257.496C220.482 257.223 217.798 257.985 216.144 259.758C215.125 260.874 214.528 262.337 214.462 263.877H203.003C202.925 263.877 202.848 263.894 202.776 263.925C202.704 263.957 202.639 264.004 202.585 264.063C202.53 264.121 202.488 264.191 202.46 264.267C202.432 264.343 202.419 264.424 202.422 264.506C202.504 266.827 202.589 268.238 202.591 268.252C202.599 268.406 202.663 268.552 202.771 268.659C202.879 268.766 203.021 268.825 203.17 268.826ZM228.879 267.613H203.718C203.691 267.091 203.649 266.228 203.606 265.096H215.037C215.119 265.097 215.199 265.079 215.274 265.045C215.349 265.011 215.415 264.961 215.47 264.898C215.525 264.835 215.567 264.761 215.592 264.68C215.618 264.599 215.627 264.514 215.619 264.429C215.619 264.409 215.444 262.236 216.975 260.588C218.348 259.125 220.646 258.488 223.804 258.688C224.373 259.23 224.97 259.74 225.591 260.214C226.085 260.619 226.56 260.983 226.837 261.253C228.144 262.497 228.865 264.021 228.865 265.549V267.607L228.879 267.613Z" fill="#262424"/>
<path d="M205.495 229.644L197.826 237.665L192.68 235.347L200.667 224.773L205.495 229.644Z" fill="white"/>
<path d="M197.819 238.272C197.973 238.272 198.12 238.208 198.229 238.094L205.9 230.071C205.955 230.014 205.999 229.947 206.028 229.873C206.058 229.799 206.074 229.719 206.074 229.638C206.074 229.558 206.058 229.478 206.028 229.404C205.999 229.33 205.955 229.262 205.9 229.206L201.07 224.334C201.011 224.275 200.942 224.229 200.865 224.2C200.789 224.171 200.707 224.159 200.626 224.164C200.545 224.17 200.466 224.194 200.394 224.233C200.323 224.273 200.26 224.328 200.209 224.395L192.223 234.969C192.168 235.042 192.13 235.127 192.111 235.218C192.093 235.309 192.095 235.403 192.116 235.493C192.138 235.583 192.18 235.667 192.238 235.737C192.295 235.808 192.368 235.864 192.45 235.901L197.596 238.221C197.666 238.253 197.742 238.271 197.819 238.272ZM204.66 229.65L197.685 236.944L193.595 235.1L200.725 225.674L204.66 229.65Z" fill="#262424"/>
<path d="M195.633 266.194L193.709 267.946L176.419 247.283C176.419 247.283 177.367 246.301 179.002 244.7C182.216 241.545 188.087 235.98 194.581 230.74L201.521 237.702C201.521 237.702 198.534 247.227 197.472 257.067C197.362 258.088 197.619 260.301 197.598 261.33C197.559 263.327 196.885 265.054 195.633 266.194Z" fill="#91BED4"/>
<path d="M191.962 251.088C192.091 251.088 192.217 251.043 192.319 250.959C192.421 250.876 192.494 250.76 192.526 250.629C194.479 242.521 198.276 235.543 198.313 235.468C198.39 235.328 198.411 235.163 198.371 235.007C198.33 234.851 198.233 234.719 198.099 234.638C197.965 234.558 197.806 234.536 197.657 234.578C197.508 234.62 197.381 234.722 197.304 234.862C197.265 234.932 193.388 242.054 191.396 250.324C191.373 250.414 191.37 250.509 191.387 250.6C191.405 250.692 191.443 250.778 191.497 250.852C191.552 250.926 191.623 250.986 191.703 251.027C191.784 251.068 191.872 251.088 191.962 251.088Z" fill="#262424"/>
<path d="M184.844 243.742C184.217 242.993 184.76 241.427 186.058 240.245C187.356 239.063 188.916 238.712 189.543 239.462C190.17 240.211 189.627 241.777 188.329 242.959C187.031 244.141 185.471 244.491 184.844 243.742Z" fill="white"/>
<path d="M185.807 244.755C186.025 244.753 186.242 244.727 186.456 244.678C187.295 244.461 188.07 244.03 188.711 243.424C190.274 242.009 190.832 240.089 189.982 239.07C189.131 238.052 187.24 238.373 185.677 239.796C185.015 240.376 184.502 241.119 184.183 241.957C183.879 242.834 183.958 243.612 184.406 244.148C184.583 244.35 184.8 244.509 185.042 244.613C185.284 244.718 185.545 244.766 185.807 244.755ZM187.938 242.513C187.442 242.983 186.843 243.319 186.194 243.493C185.764 243.59 185.419 243.538 185.264 243.354C185.109 243.17 185.109 242.804 185.264 242.373C185.517 241.729 185.916 241.159 186.427 240.712C187.589 239.648 188.784 239.499 189.093 239.871C189.441 240.287 189.011 241.532 187.93 242.513H187.938Z" fill="#262424"/>
<path d="M195.633 266.194L193.709 267.946L176.419 247.283C176.419 247.283 177.367 246.301 179.002 244.7L186.922 254.164C186.922 254.164 191.611 248.953 197.474 257.067C197.363 258.088 197.621 260.301 197.6 261.33C197.559 263.327 196.885 265.054 195.633 266.194Z" fill="white"/>
<path d="M193.709 268.553C193.852 268.554 193.989 268.501 194.097 268.403L196.021 266.651C197.377 265.42 198.14 263.536 198.185 261.344C198.185 260.89 198.154 260.253 198.113 259.58C198.059 258.69 197.997 257.684 198.055 257.136C198.071 256.982 198.03 256.827 197.941 256.703C195.744 253.671 193.428 252.054 191.061 251.92C189.584 251.853 188.134 252.345 186.978 253.307L179.441 244.302C179.39 244.241 179.327 244.192 179.257 244.157C179.186 244.123 179.11 244.103 179.033 244.1C178.955 244.096 178.877 244.108 178.804 244.136C178.73 244.164 178.663 244.208 178.606 244.263C176.985 245.852 176.022 246.849 176.012 246.859C175.907 246.967 175.846 247.113 175.84 247.267C175.835 247.421 175.886 247.571 175.983 247.688L193.271 268.345C193.374 268.464 193.517 268.537 193.67 268.547H193.709V268.553ZM196.875 257.249C196.858 258.052 196.883 258.856 196.949 259.657C196.989 260.303 197.026 260.916 197.018 261.318C196.982 263.164 196.354 264.732 195.251 265.737L193.765 267.091L177.217 247.316C177.576 246.952 178.17 246.351 178.961 245.573L186.484 254.565C186.538 254.627 186.604 254.678 186.678 254.713C186.752 254.748 186.832 254.766 186.912 254.767C186.993 254.767 187.074 254.75 187.148 254.717C187.223 254.684 187.29 254.635 187.346 254.575C187.36 254.56 188.817 252.996 191.012 253.127C192.975 253.249 194.943 254.635 196.875 257.249Z" fill="#262424"/>
<path d="M198.353 226.032L208.639 234.967L231.994 210.186L232.42 209.733C233.993 208.065 235.216 206.074 236.012 203.887C236.808 201.699 237.159 199.363 237.043 197.027L236.985 195.856L234.05 136.157C232.769 119.648 209.963 124.247 209.831 138.468C209.767 145.99 210.501 153.408 211.443 156.661C211.925 158.322 215.872 178.316 219.606 197.411C208.899 212.189 198.353 226.032 198.353 226.032Z" fill="#91BED4"/>
<path d="M199.311 225.377C199.398 225.377 199.485 225.356 199.564 225.316C199.643 225.276 199.712 225.218 199.766 225.147C201.55 222.792 206.311 216.493 211.961 208.854C212.055 208.727 212.097 208.566 212.077 208.406C212.058 208.246 211.978 208.101 211.856 208.003C211.734 207.905 211.58 207.861 211.427 207.881C211.274 207.902 211.135 207.985 211.04 208.112C205.394 215.745 200.638 222.042 198.855 224.393C198.787 224.482 198.745 224.59 198.732 224.703C198.72 224.817 198.739 224.931 198.786 225.034C198.834 225.137 198.908 225.224 199.001 225.285C199.094 225.345 199.201 225.377 199.311 225.377Z" fill="#262424"/>
<path d="M231.639 210.079C231.758 210.119 231.876 210.156 231.994 210.186L232.42 209.733C233.993 208.065 235.216 206.074 236.012 203.887C236.808 201.699 237.159 199.363 237.043 197.027L236.985 195.856C236.777 195.738 236.559 195.639 236.334 195.561C233.412 194.532 229.995 196.95 228.698 200.958C227.402 204.967 228.72 209.052 231.639 210.079Z" fill="white"/>
<path d="M203.552 224.379C203.637 224.378 203.722 224.359 203.799 224.321C203.877 224.282 203.945 224.227 203.999 224.158C204.096 224.037 213.772 211.828 223.231 199.034C223.281 198.966 223.317 198.887 223.336 198.804C223.355 198.72 223.357 198.633 223.342 198.549C220.823 185.027 215.929 164.611 213.577 154.801L213.199 153.226C213.158 153.074 213.062 152.944 212.931 152.865C212.801 152.785 212.645 152.762 212.498 152.8C212.351 152.838 212.224 152.935 212.144 153.069C212.065 153.204 212.038 153.365 212.071 153.519L212.449 155.096C214.774 164.833 219.618 185.013 222.15 198.512C212.755 211.217 203.199 223.267 203.104 223.388C203.035 223.477 202.991 223.584 202.977 223.698C202.964 223.812 202.982 223.927 203.028 224.031C203.075 224.134 203.149 224.222 203.242 224.284C203.335 224.345 203.442 224.378 203.552 224.379Z" fill="#262424"/>
<path d="M212.637 153.97C212.769 153.97 212.898 153.923 213.001 153.837L214.51 152.573C214.911 152.239 215.234 151.815 215.456 151.333C215.678 150.851 215.793 150.323 215.793 149.788V137.457C215.793 137.296 215.732 137.142 215.623 137.028C215.514 136.915 215.366 136.851 215.212 136.851C215.058 136.851 214.91 136.915 214.801 137.028C214.692 137.142 214.63 137.296 214.63 137.457V149.788C214.631 150.143 214.556 150.493 214.409 150.813C214.262 151.133 214.047 151.414 213.782 151.635L213.218 152.106V136.586C213.218 136.425 213.157 136.271 213.048 136.157C212.939 136.043 212.791 135.979 212.637 135.979C212.483 135.979 212.335 136.043 212.226 136.157C212.117 136.271 212.056 136.425 212.056 136.586V153.364C212.056 153.525 212.117 153.679 212.226 153.793C212.335 153.906 212.483 153.97 212.637 153.97Z" fill="#262424"/>
<path d="M209.304 232.438C209.424 232.438 209.541 232.399 209.64 232.327C209.738 232.255 209.812 232.152 209.852 232.034C209.892 231.916 209.896 231.788 209.864 231.667C209.831 231.547 209.764 231.44 209.67 231.361L201.357 224.31C201.237 224.208 201.083 224.16 200.93 224.177C200.776 224.193 200.635 224.273 200.538 224.398C200.441 224.523 200.395 224.683 200.411 224.843C200.426 225.003 200.503 225.15 200.622 225.252L208.936 232.303C209.04 232.391 209.17 232.439 209.304 232.438Z" fill="#262424"/>
<path d="M261.473 98.0433L256.372 103.972L249.914 100.2L250.753 95.0112L261.473 98.0433Z" fill="white"/>
<path d="M256.372 104.579C256.454 104.578 256.534 104.56 256.609 104.526C256.683 104.491 256.75 104.44 256.804 104.376L261.907 98.4436C261.974 98.3665 262.02 98.273 262.042 98.1719C262.064 98.0709 262.06 97.9657 262.032 97.8664C262.004 97.7671 261.952 97.677 261.881 97.6046C261.81 97.5323 261.722 97.4801 261.627 97.4531L250.906 94.4209C250.828 94.3989 250.746 94.3942 250.666 94.4071C250.586 94.4201 250.509 94.4504 250.441 94.496C250.373 94.5417 250.314 94.6018 250.27 94.6724C250.225 94.743 250.195 94.8226 250.182 94.9061L249.343 100.095C249.323 100.218 249.34 100.345 249.391 100.458C249.443 100.571 249.527 100.665 249.631 100.726L256.089 104.508C256.176 104.556 256.274 104.58 256.372 104.579ZM260.412 98.3708L256.25 103.206L250.556 99.8788L251.22 95.7712L260.412 98.3708Z" fill="#262424"/>
<path d="M231.644 121.751C232.462 122.883 233.399 123.917 234.437 124.833C235.257 125.573 236.201 126.147 237.222 126.525C237.382 126.582 237.547 126.632 237.712 126.681C240.812 127.894 244.724 127.455 248.515 124.013C252.307 120.57 256.017 114.033 258.59 103.073L249.595 99.2885L244.915 104.603C241.525 95.181 232.105 70.6429 226.593 72.5673C215.489 76.4524 222.214 109.028 231.644 121.751Z" fill="#ED7631"/>
<path d="M234.438 124.833C235.257 125.573 236.201 126.147 237.222 126.525C237.383 126.582 237.547 126.632 237.712 126.681C240.812 127.894 244.724 127.455 248.515 124.013C247.743 122.751 246.663 121.726 245.385 121.043C244.108 120.36 242.679 120.045 241.246 120.128C239.813 120.212 238.428 120.692 237.231 121.518C236.035 122.345 235.07 123.489 234.438 124.833Z" fill="white"/>
<path d="M243.972 116.473C244.119 116.473 244.261 116.415 244.369 116.311C244.476 116.207 244.542 116.064 244.553 115.911L245.231 106.309C245.243 106.148 245.192 105.989 245.091 105.867C244.99 105.745 244.847 105.67 244.693 105.658C244.539 105.646 244.386 105.699 244.269 105.804C244.152 105.91 244.08 106.059 244.069 106.22L243.391 115.822C243.38 115.982 243.43 116.14 243.53 116.262C243.631 116.384 243.774 116.459 243.927 116.471H243.97L243.972 116.473Z" fill="#262424"/>
<path d="M255.306 106.568C255.442 106.567 255.573 106.518 255.677 106.427C255.781 106.336 255.852 106.21 255.877 106.071C255.901 105.932 255.878 105.788 255.812 105.665C255.746 105.541 255.64 105.446 255.514 105.395L248.151 102.464C248.08 102.436 248.004 102.422 247.927 102.425C247.851 102.427 247.776 102.445 247.706 102.477C247.636 102.51 247.574 102.557 247.521 102.614C247.469 102.672 247.428 102.74 247.4 102.815C247.373 102.889 247.36 102.969 247.362 103.048C247.365 103.128 247.382 103.206 247.413 103.279C247.444 103.352 247.489 103.418 247.544 103.472C247.6 103.527 247.665 103.57 247.737 103.598L255.099 106.529C255.165 106.555 255.236 106.568 255.306 106.568Z" fill="#262424"/>
<path d="M262.047 99.9273L252.882 97.3318C252.629 97.26 252.412 97.0879 252.278 96.8521C252.143 96.6163 252.102 96.3352 252.163 96.0684L256.498 77.067C256.529 76.9294 256.587 76.7997 256.667 76.6858C256.747 76.5718 256.849 76.4759 256.965 76.4036C257.082 76.3314 257.211 76.2844 257.346 76.2653C257.48 76.2463 257.617 76.2556 257.747 76.2928L266.912 78.8964C267.165 78.9682 267.382 79.1403 267.517 79.3761C267.651 79.612 267.692 79.893 267.631 80.1598L263.296 99.1612C263.264 99.2981 263.206 99.4269 263.125 99.54C263.045 99.653 262.943 99.7481 262.827 99.8195C262.71 99.8909 262.581 99.9372 262.447 99.9558C262.313 99.9743 262.177 99.9646 262.047 99.9273Z" fill="white"/>
<path d="M262.314 100.572C262.673 100.572 263.02 100.445 263.301 100.214C263.583 99.9818 263.781 99.6581 263.864 99.2946L268.199 80.2932C268.296 79.8731 268.232 79.4299 268.021 79.0583C267.81 78.6866 267.467 78.4159 267.067 78.3041L257.905 75.7086C257.699 75.6502 257.484 75.6354 257.273 75.6651C257.062 75.6948 256.859 75.7683 256.676 75.8814C256.492 75.9945 256.333 76.1448 256.206 76.3234C256.079 76.5021 255.988 76.7054 255.938 76.9214L251.604 95.9229C251.506 96.3429 251.57 96.7861 251.781 97.1578C251.993 97.5294 252.335 97.8001 252.735 97.9119L261.898 100.507C262.033 100.548 262.173 100.57 262.314 100.572ZM257.482 76.8709C257.521 76.871 257.559 76.8764 257.597 76.8871L266.759 79.4826C266.867 79.5126 266.96 79.5857 267.017 79.6862C267.074 79.7868 267.092 79.9067 267.065 80.0203L262.731 99.0217C262.718 99.0802 262.693 99.1353 262.659 99.1837C262.625 99.2322 262.582 99.273 262.532 99.3037C262.483 99.3344 262.428 99.3545 262.371 99.3626C262.314 99.3708 262.256 99.3669 262.2 99.3512L253.038 96.7456C252.929 96.7156 252.837 96.6425 252.779 96.5419C252.722 96.4414 252.705 96.3215 252.731 96.2079L257.066 77.2065C257.09 77.1103 257.144 77.0252 257.219 76.9644C257.294 76.9037 257.387 76.8708 257.482 76.8709Z" fill="#262424"/>
<path d="M259.697 99.2824L250.534 96.6869C250.281 96.6151 250.064 96.443 249.93 96.2072C249.795 95.9713 249.755 95.6903 249.816 95.4235L254.15 76.4221C254.181 76.2844 254.239 76.1548 254.319 76.0408C254.399 75.9269 254.501 75.8309 254.617 75.7587C254.734 75.6865 254.863 75.6395 254.998 75.6204C255.132 75.6014 255.269 75.6107 255.399 75.6479L264.562 78.2434C264.816 78.3152 265.032 78.4873 265.167 78.7231C265.301 78.959 265.342 79.24 265.281 79.5068L260.947 98.5082C260.915 98.6458 260.858 98.7755 260.777 98.8895C260.697 99.0034 260.595 99.0994 260.479 99.1716C260.362 99.2438 260.233 99.2908 260.099 99.3099C259.964 99.3289 259.828 99.3196 259.697 99.2824Z" fill="white"/>
<path d="M259.964 99.9273C260.323 99.9271 260.67 99.8009 260.952 99.5691C261.233 99.3373 261.431 99.0134 261.514 98.6498L265.848 79.6483C265.946 79.2283 265.882 78.7851 265.671 78.4134C265.459 78.0418 265.117 77.7711 264.717 77.6592L255.556 75.0718C255.351 75.0134 255.136 74.9986 254.925 75.0283C254.714 75.058 254.511 75.1316 254.327 75.2447C254.144 75.3577 253.984 75.5081 253.858 75.6867C253.731 75.8653 253.64 76.0687 253.59 76.2847L249.256 95.2861C249.158 95.7062 249.221 96.1496 249.433 96.5214C249.644 96.8932 249.987 97.1638 250.387 97.2752L259.544 99.8586C259.68 99.9009 259.822 99.924 259.964 99.9273ZM255.132 76.2261C255.171 76.2261 255.209 76.2316 255.246 76.2422L264.409 78.8357C264.517 78.8657 264.61 78.9388 264.667 79.0394C264.724 79.1399 264.742 79.2598 264.715 79.3734L260.381 98.3748C260.367 98.4333 260.343 98.4884 260.309 98.5369C260.275 98.5853 260.232 98.6261 260.182 98.6568C260.133 98.6876 260.078 98.7076 260.021 98.7158C259.964 98.7239 259.906 98.72 259.85 98.7043L250.687 96.1088C250.579 96.0788 250.486 96.0057 250.429 95.9052C250.372 95.8047 250.355 95.6847 250.381 95.5711L254.716 76.5697C254.738 76.472 254.791 76.3851 254.867 76.3228C254.942 76.2605 255.036 76.2264 255.132 76.2261Z" fill="#262424"/>
<path d="M259.697 99.2824L250.534 96.6869C250.281 96.6151 250.064 96.443 249.93 96.2072C249.795 95.9713 249.755 95.6903 249.816 95.4235L254.15 76.4221C254.181 76.2844 254.239 76.1548 254.319 76.0408C254.399 75.9269 254.501 75.8309 254.617 75.7587C254.734 75.6865 254.863 75.6395 254.998 75.6204C255.132 75.6014 255.269 75.6107 255.399 75.6479L264.562 78.2434C264.816 78.3152 265.032 78.4873 265.167 78.7231C265.301 78.959 265.342 79.24 265.281 79.5068L260.947 98.5082C260.915 98.6458 260.858 98.7755 260.777 98.8895C260.697 99.0034 260.595 99.0994 260.479 99.1716C260.362 99.2438 260.233 99.2908 260.099 99.3099C259.964 99.3289 259.828 99.3196 259.697 99.2824Z" fill="white"/>
<path d="M259.964 99.9273C260.323 99.9271 260.67 99.8009 260.952 99.5691C261.233 99.3373 261.431 99.0134 261.514 98.6498L265.848 79.6483C265.946 79.2283 265.882 78.7851 265.671 78.4134C265.459 78.0418 265.117 77.7711 264.717 77.6592L255.556 75.0718C255.351 75.0134 255.136 74.9986 254.925 75.0283C254.714 75.058 254.511 75.1316 254.327 75.2447C254.144 75.3577 253.984 75.5081 253.858 75.6867C253.731 75.8653 253.64 76.0687 253.59 76.2847L249.256 95.2861C249.158 95.7062 249.221 96.1496 249.433 96.5214C249.644 96.8932 249.987 97.1638 250.387 97.2752L259.544 99.8586C259.68 99.9009 259.822 99.924 259.964 99.9273ZM255.132 76.2261C255.171 76.2261 255.209 76.2316 255.246 76.2422L264.409 78.8357C264.517 78.8657 264.61 78.9388 264.667 79.0394C264.724 79.1399 264.742 79.2598 264.715 79.3734L260.381 98.3748C260.367 98.4333 260.343 98.4884 260.309 98.5369C260.275 98.5853 260.232 98.6261 260.182 98.6568C260.133 98.6876 260.078 98.7076 260.021 98.7158C259.964 98.7239 259.906 98.72 259.85 98.7043L250.687 96.1088C250.579 96.0788 250.486 96.0057 250.429 95.9052C250.372 95.8047 250.355 95.6847 250.381 95.5711L254.716 76.5697C254.738 76.472 254.791 76.3851 254.867 76.3228C254.942 76.2605 255.036 76.2264 255.132 76.2261Z" fill="#262424"/>
<path d="M263.535 79.7433L255.599 77.4935L251.559 95.1971L259.495 97.445L263.535 79.7433Z" fill="white"/>
<path d="M259.495 98.0514C259.626 98.0514 259.753 98.0053 259.856 97.9206C259.959 97.8358 260.031 97.7174 260.061 97.5845L264.101 79.8828C264.136 79.7296 264.112 79.5682 264.035 79.4328C263.958 79.2974 263.834 79.1985 263.688 79.1571L255.744 76.9093C255.669 76.8881 255.591 76.8829 255.514 76.894C255.437 76.905 255.362 76.932 255.296 76.9735C255.229 77.015 255.171 77.07 255.124 77.1354C255.078 77.2007 255.045 77.2751 255.027 77.354L250.988 95.0577C250.953 95.2109 250.976 95.3723 251.053 95.5077C251.13 95.6431 251.255 95.742 251.4 95.7834L259.344 98.0332C259.393 98.0462 259.444 98.0523 259.495 98.0514ZM262.839 80.1739L259.069 96.6971L252.262 94.7666L256.033 78.2434L262.839 80.1739Z" fill="#262424"/>
<path d="M265.501 88.8903C267.66 90.0587 266.546 94.0389 265.24 97.3803C263.496 101.827 259.172 99.7474 259.296 96.8325C259.412 94.0651 259.763 85.7813 265.501 88.8903Z" fill="white"/>
<path d="M262.217 100.556C263.484 100.556 264.93 99.7939 265.778 97.6108C267.059 94.33 268.45 89.802 265.778 88.3506C264.133 87.4591 262.723 87.356 261.586 88.0413C259.03 89.5816 258.815 94.6433 258.724 96.8042C258.65 98.5184 259.855 100.095 261.524 100.477C261.752 100.529 261.984 100.555 262.217 100.556ZM265.232 89.428C266.588 90.1658 266.414 92.7654 264.701 97.1539C264.062 98.7933 262.99 99.5796 261.762 99.2926C260.656 99.0399 259.824 97.9726 259.875 96.8669C259.95 95.0718 260.154 90.3053 262.157 89.0985C262.932 88.6336 263.963 88.7468 265.232 89.4341V89.428Z" fill="#262424"/>
<path d="M266.641 86.1755C269.291 87.1559 268.414 90.5378 264.961 89.5533C259.939 88.1222 259.896 83.6871 266.641 86.1755Z" fill="white"/>
<path d="M266.119 90.3356C267.528 90.3356 268.413 89.5675 268.679 88.6801C269.001 87.6087 268.47 86.2078 266.836 85.6034C264.19 84.6251 262.219 84.5644 261.291 85.4336C261.082 85.6282 260.928 85.8795 260.848 86.1596C260.767 86.4397 260.762 86.7377 260.834 87.0205C261.127 88.3081 262.686 89.5331 264.808 90.1375C265.235 90.2641 265.676 90.3307 266.119 90.3356ZM263.238 86.034C263.977 86.034 265.036 86.2361 266.449 86.7476C267.435 87.1114 267.722 87.8169 267.571 88.3182C267.39 88.9246 266.546 89.3754 265.116 88.9691C263.043 88.3789 262.097 87.3136 261.967 86.7455C261.943 86.6753 261.94 86.5989 261.958 86.5266C261.976 86.4543 262.015 86.3896 262.07 86.3413C262.258 86.1593 262.642 86.034 263.236 86.034H263.238Z" fill="#262424"/>
<path d="M183.586 75.1163L182.784 142.695C182.784 142.695 184.502 142.943 187.468 143.228V135.868C187.468 135.727 187.494 135.587 187.546 135.456C187.598 135.325 187.673 135.207 187.769 135.107C187.865 135.007 187.979 134.928 188.104 134.874C188.229 134.82 188.364 134.792 188.499 134.793C188.635 134.793 188.769 134.82 188.894 134.874C189.019 134.928 189.133 135.007 189.229 135.107C189.324 135.207 189.4 135.326 189.452 135.456C189.504 135.587 189.53 135.727 189.53 135.868V143.414C199.272 144.241 218.029 145.031 235.449 141.239C235.449 141.239 233.226 87.5157 227.615 72.4723C227.615 72.4723 217.759 66.6101 206.45 66.8426C195.141 67.075 183.586 75.1163 183.586 75.1163Z" fill="#ED7631"/>
<path d="M234.47 124.378H234.511C234.665 124.367 234.808 124.293 234.909 124.171C235.01 124.05 235.06 123.892 235.05 123.732C233.963 107.427 232.033 85.7288 229.018 74.9485C228.975 74.7941 228.875 74.6639 228.74 74.5866C228.605 74.5092 228.445 74.4911 228.297 74.5361C228.149 74.5812 228.025 74.6857 227.951 74.8267C227.876 74.9677 227.859 75.1337 227.902 75.2881C230.89 85.9633 232.808 107.57 233.891 123.815C233.901 123.968 233.967 124.111 234.074 124.215C234.182 124.32 234.323 124.378 234.47 124.378Z" fill="#262424"/>
<path d="M204.48 141.51C214.086 141.482 223.682 140.838 233.213 139.582C233.286 139.571 233.356 139.546 233.419 139.507C233.482 139.468 233.537 139.417 233.581 139.355C233.626 139.294 233.658 139.225 233.676 139.151C233.695 139.077 233.699 138.999 233.689 138.924C233.679 138.848 233.654 138.775 233.617 138.709C233.58 138.643 233.53 138.585 233.472 138.539C233.413 138.493 233.347 138.46 233.276 138.44C233.205 138.421 233.131 138.417 233.058 138.427C232.849 138.458 211.875 141.474 192.177 139.881C192.103 139.873 192.028 139.88 191.956 139.902C191.885 139.925 191.818 139.962 191.761 140.012C191.703 140.061 191.656 140.123 191.622 140.192C191.587 140.261 191.567 140.337 191.561 140.414C191.555 140.492 191.564 140.57 191.588 140.644C191.611 140.718 191.649 140.786 191.698 140.844C191.748 140.903 191.808 140.95 191.875 140.984C191.942 141.018 192.015 141.037 192.09 141.041C196.234 141.377 200.431 141.51 204.48 141.51Z" fill="#262424"/>
<path d="M198.076 70.2507C198.647 71.6501 199.505 72.9017 200.59 73.9171C201.675 74.9325 202.96 75.6869 204.356 76.127C204.824 73.4466 206.113 70.0748 206.113 70.0748C207.547 72.1327 208.304 74.8535 208.49 76.0967C213.13 74.7666 213.659 70.1112 213.659 70.1112C213.094 65.4498 209.25 61.9386 205.956 62.0579C198.659 62.3146 198.076 70.2507 198.076 70.2507Z" fill="white"/>
<path d="M204.356 76.7335C204.494 76.7358 204.628 76.6871 204.734 76.596C204.84 76.505 204.912 76.3775 204.937 76.2362C205.262 74.5989 205.704 72.9893 206.261 71.4212C207.061 72.9058 207.624 74.5174 207.925 76.1917C207.937 76.2761 207.967 76.3568 208.012 76.4285C208.056 76.5002 208.115 76.5612 208.184 76.6076C208.252 76.6539 208.33 76.6846 208.411 76.6976C208.492 76.7106 208.574 76.7056 208.653 76.6829C213.613 75.2679 214.222 70.3922 214.245 70.184C214.251 70.135 214.251 70.0855 214.245 70.0365C213.611 64.8252 209.357 61.3261 205.939 61.4494C198.216 61.7223 197.513 70.1214 197.505 70.2063C197.498 70.3036 197.513 70.4014 197.55 70.4913C198.156 71.9693 199.064 73.2914 200.211 74.365C201.358 75.4387 202.716 76.238 204.189 76.7072C204.243 76.7243 204.299 76.7332 204.356 76.7335ZM206.113 69.4685H206.042C205.939 69.482 205.841 69.5239 205.759 69.5901C205.677 69.6562 205.613 69.744 205.575 69.8444C204.902 71.6269 204.349 73.456 203.92 75.3185C202.76 74.8612 201.699 74.1684 200.798 73.28C199.897 72.3917 199.174 71.3257 198.671 70.1436C198.788 69.0783 199.739 62.8665 205.97 62.6522C208.876 62.5511 212.501 65.7086 213.073 70.1012C212.991 70.6409 212.356 73.9904 208.934 75.3043C208.624 73.8994 207.886 71.5829 206.584 69.711C206.529 69.6353 206.458 69.574 206.376 69.5322C206.294 69.4904 206.204 69.4693 206.113 69.4705V69.4685Z" fill="#262424"/>
<path d="M240.467 85.6904C241.193 85.0115 242.115 84.6034 243.087 84.5302C244.059 84.457 245.028 84.7229 245.84 85.2861C248.602 87.2064 252.642 90.0203 254.436 91.314C254.698 91.5034 254.886 91.7844 254.965 92.1061C255.045 92.4277 255.011 92.7684 254.871 93.0664C254.73 93.3643 254.491 93.5996 254.198 93.7295C253.905 93.8594 253.577 93.8752 253.274 93.7741L247.754 91.9103L247.248 93.2707C246.667 94.8331 245.617 96.1574 244.255 97.046C242.893 97.9346 241.293 98.3398 239.692 98.201L237.1 97.9746L231.868 93.7296L240.467 85.6904Z" fill="white"/>
<path d="M240.295 98.8337C241.913 98.8286 243.492 98.3166 244.828 97.364C246.164 96.4114 247.195 95.0621 247.787 93.4911L248.095 92.6644L253.094 94.3522C253.53 94.5001 254.003 94.4791 254.426 94.2933C254.848 94.1075 255.193 93.7691 255.396 93.3401C255.6 92.9111 255.648 92.4201 255.533 91.9568C255.418 91.4935 255.147 91.0888 254.77 90.8168C253.009 89.5473 249.118 86.8346 246.165 84.7828C245.246 84.1445 244.15 83.8428 243.049 83.9252C241.948 84.0075 240.904 84.4692 240.082 85.2376L231.477 93.2789C231.414 93.3381 231.364 93.4111 231.331 93.4928C231.297 93.5744 231.281 93.6627 231.284 93.7513C231.287 93.84 231.309 93.9269 231.348 94.006C231.386 94.085 231.441 94.1542 231.508 94.2087L236.739 98.4537C236.828 98.5257 236.935 98.5693 237.047 98.5791L239.64 98.8055C239.863 98.8257 240.078 98.8337 240.295 98.8337ZM247.75 91.3039C247.633 91.3039 247.518 91.3409 247.421 91.4102C247.324 91.4795 247.25 91.5778 247.208 91.692L246.702 93.0525C246.161 94.4906 245.19 95.7088 243.934 96.5272C242.678 97.3455 241.203 97.7205 239.727 97.5966L237.307 97.3945L232.762 93.7054L240.849 86.1493C241.479 85.5601 242.279 85.206 243.123 85.1428C243.967 85.0795 244.808 85.3105 245.512 85.7996C248.463 87.8493 252.348 90.556 254.101 91.8214C254.25 91.9277 254.357 92.0862 254.402 92.268C254.448 92.4499 254.429 92.6427 254.349 92.8111C254.269 92.9795 254.133 93.1121 253.967 93.1847C253.801 93.2573 253.616 93.2649 253.445 93.2061L247.925 91.3423C247.869 91.3209 247.81 91.3087 247.75 91.3059V91.3039Z" fill="#262424"/>
<path d="M204.997 119.826C207.516 121.381 209.889 122.228 211.873 122.098C214.471 121.929 217.172 120.835 219.817 119.214C229.797 113.093 238.998 99.4442 238.998 99.4442L233.135 90.9643L213.66 101.611C213.66 101.611 188.257 71.2756 182.784 76.129C173.863 84.0389 191.71 111.672 204.997 119.826Z" fill="#ED7631"/>
<path d="M204.997 119.826C207.516 121.381 209.889 122.228 211.873 122.098C214.472 121.929 217.172 120.835 219.817 119.214C219.13 117.736 218.045 116.5 216.695 115.656C215.345 114.811 213.788 114.397 212.215 114.462C210.642 114.527 209.122 115.069 207.84 116.021C206.558 116.974 205.57 118.297 204.997 119.826Z" fill="white"/>
<path d="M212.972 112.329C213.119 112.329 213.261 112.271 213.369 112.166C213.477 112.062 213.543 111.918 213.553 111.765L214.241 101.658C214.252 101.497 214.201 101.338 214.099 101.216C213.998 101.095 213.854 101.02 213.7 101.009C213.546 100.998 213.394 101.051 213.277 101.156C213.161 101.262 213.089 101.412 213.078 101.573L212.39 111.68C212.385 111.759 212.394 111.839 212.419 111.915C212.443 111.991 212.481 112.061 212.531 112.121C212.581 112.181 212.642 112.231 212.71 112.266C212.778 112.302 212.853 112.323 212.929 112.329H212.972Z" fill="#262424"/>
<path d="M211.484 122.717C211.629 122.717 211.77 122.717 211.91 122.703C217.199 122.357 223.456 118.385 230.51 110.892C233.75 107.422 236.746 103.713 239.475 99.7939C239.545 99.6912 239.583 99.5683 239.583 99.4422C239.583 99.3161 239.545 99.1931 239.475 99.0904L233.612 90.6146C233.53 90.4966 233.41 90.4132 233.274 90.3798C233.138 90.3464 232.996 90.3652 232.872 90.4327L213.801 100.857C212.445 99.2663 206.793 92.6744 200.682 86.6122C190.96 76.9679 184.988 73.388 182.415 75.6661C179.158 78.5527 178.94 83.954 181.778 91.3059C184.434 98.1788 189.571 106.097 195.519 112.488C201.589 119.02 207.374 122.717 211.484 122.717ZM238.283 99.4543C236.332 102.246 222.977 120.776 211.838 121.502C208.097 121.749 202.31 118.066 196.338 111.654C190.491 105.367 185.446 97.5946 182.842 90.8612C181.005 86.1088 179.567 79.7777 183.154 76.598C184.062 75.7894 187.509 75.2416 199.866 87.4996C206.801 94.3724 213.152 101.947 213.216 102.022C213.302 102.124 213.418 102.193 213.547 102.218C213.675 102.243 213.807 102.222 213.923 102.159L232.953 91.7567L238.283 99.4543Z" fill="#262424"/>
<path d="M233.136 101.312C233.241 101.312 233.345 101.282 233.436 101.225C233.526 101.168 233.6 101.087 233.65 100.989C233.699 100.892 233.722 100.782 233.716 100.672C233.71 100.561 233.676 100.455 233.616 100.364L228.943 93.1879C228.856 93.0538 228.722 92.9612 228.57 92.9303C228.418 92.8994 228.26 92.9328 228.132 93.0231C228.003 93.1134 227.915 93.2533 227.885 93.412C227.855 93.5706 227.887 93.735 227.974 93.8691L232.655 101.045C232.708 101.127 232.78 101.194 232.863 101.241C232.947 101.287 233.041 101.312 233.136 101.312Z" fill="#262424"/>
<path d="M235.447 100.073C234.832 100.073 234.333 99.5524 234.333 98.9105C234.333 98.2686 234.832 97.7482 235.447 97.7482C236.062 97.7482 236.561 98.2686 236.561 98.9105C236.561 99.5524 236.062 100.073 235.447 100.073Z" fill="white"/>
<path d="M235.447 100.679C235.782 100.679 236.11 100.575 236.389 100.381C236.668 100.187 236.885 99.9105 237.013 99.5873C237.142 99.2642 237.175 98.9085 237.11 98.5654C237.044 98.2223 236.883 97.9071 236.646 97.6598C236.409 97.4124 236.107 97.244 235.778 97.1757C235.449 97.1075 235.108 97.1425 234.798 97.2764C234.488 97.4102 234.224 97.6369 234.037 97.9278C233.851 98.2187 233.752 98.5607 233.752 98.9105C233.752 99.3794 233.931 99.829 234.249 100.161C234.567 100.492 234.998 100.679 235.447 100.679ZM235.447 98.3546C235.552 98.3546 235.655 98.3872 235.743 98.4483C235.831 98.5094 235.899 98.5962 235.939 98.6977C235.98 98.7993 235.99 98.9111 235.97 99.0189C235.949 99.1268 235.898 99.2258 235.824 99.3036C235.749 99.3813 235.654 99.4342 235.551 99.4557C235.448 99.4771 235.34 99.4661 235.243 99.4241C235.146 99.382 235.063 99.3107 235.004 99.2193C234.945 99.1279 234.914 99.0204 234.914 98.9105C234.914 98.763 234.97 98.6217 235.07 98.5174C235.17 98.4132 235.306 98.3546 235.447 98.3546Z" fill="#262424"/>
<path d="M201.68 52.6542L201.798 57.3318L201.992 65.3326C204.571 67.2125 207.08 67.4126 209.5 65.5165L209.145 61.7991L208.609 56.1694L201.68 52.6542Z" fill="white"/>
<path d="M206.009 67.453C207.337 67.453 208.62 66.9685 209.858 65.9996C209.938 65.9368 210.001 65.8536 210.041 65.758C210.081 65.6624 210.097 65.5576 210.087 65.4538L209.196 56.1088C209.186 56.0058 209.151 55.9072 209.095 55.8223C209.038 55.7374 208.961 55.669 208.872 55.6236L201.934 52.1083C201.844 52.0628 201.745 52.0422 201.645 52.0485C201.545 52.0547 201.449 52.0877 201.365 52.1442C201.281 52.2007 201.213 52.2787 201.166 52.3709C201.119 52.463 201.096 52.5662 201.099 52.6703L201.421 65.3467C201.423 65.4415 201.447 65.5345 201.49 65.618C201.533 65.7016 201.594 65.7734 201.669 65.8278C203.155 66.9092 204.6 67.453 206.009 67.453ZM208.899 65.2294C206.921 66.6444 204.846 66.5676 202.577 65.0071L202.289 53.6386L208.074 56.5696L208.899 65.2294Z" fill="#262424"/>
<path d="M204.077 53.8691C204.112 55.9815 203.926 63.1677 209.36 63.954L208.618 56.1715L204.077 53.8691Z" fill="#262424"/>
<path d="M215.471 55.5367C214.352 59.2218 212.399 63.4971 208.21 61.8497C203.228 59.8909 200.663 55.3649 201.643 50.2446C202.624 45.1244 205.46 42.735 211.209 44.6028C211.698 44.7632 212.174 44.9661 212.631 45.2093C215.816 46.8972 216.926 50.186 216.029 53.5658C215.867 54.1743 215.685 54.8414 215.471 55.5367Z" fill="white"/>
<path d="M209.968 62.8179C210.642 62.8207 211.306 62.6557 211.906 62.3368C214.471 60.9784 215.667 57.1761 216.587 53.7175C217.749 49.3128 215.667 45.4155 211.379 44.0146C211.306 43.9908 211.229 43.9823 211.153 43.9895C211.077 43.9966 211.003 44.0193 210.936 44.0563C210.868 44.0933 210.808 44.1438 210.759 44.205C210.71 44.2661 210.673 44.3368 210.65 44.4128C210.628 44.4889 210.619 44.5689 210.626 44.6482C210.633 44.7276 210.655 44.8047 210.69 44.8753C210.726 44.9459 210.774 45.0085 210.833 45.0596C210.892 45.1106 210.959 45.1491 211.032 45.1729C214.733 46.3857 216.473 49.5998 215.465 53.3859C214.853 55.7106 213.706 60.0243 211.381 61.2493C210.511 61.7102 209.54 61.7183 208.413 61.2756C206.578 60.5539 205.088 59.4826 203.982 58.0898C203.933 58.0285 203.873 57.9778 203.806 57.9406C203.738 57.9034 203.664 57.8804 203.588 57.873C203.512 57.8656 203.435 57.8739 203.362 57.8974C203.29 57.9209 203.222 57.9591 203.163 58.01C203.104 58.0608 203.056 58.1232 203.02 58.1936C202.984 58.2641 202.962 58.3411 202.955 58.4205C202.948 58.4998 202.956 58.5797 202.979 58.6559C203.001 58.732 203.038 58.8027 203.086 58.864C204.403 60.47 206.097 61.6923 208.002 62.4116C208.628 62.6702 209.295 62.8078 209.968 62.8179Z" fill="#262424"/>
<path d="M199.917 50.8672C200.262 51.7247 200.679 52.5491 201.161 53.3313L203.724 54.0672L204.664 52.2701C204.664 52.2701 206.326 52.5531 206.9 51.4615C206.914 51.4368 206.927 51.4111 206.939 51.3847C207.101 51.0229 207.779 49.4017 208.062 46.7152C208.062 46.7152 211.656 49.4057 213.764 50.1153C214.522 50.37 215.491 50.2568 216.421 50.0081C218.283 49.5068 220.334 46.9618 220.429 44.9545V44.9161C220.538 41.9729 218.722 43.6305 218.722 43.6305C218.722 43.6305 218.777 41.2533 217.436 40.7884C216.095 40.3235 214.795 42.2479 214.795 42.2479C212.286 41.0296 209.579 40.3138 206.817 40.1375C201.335 39.8221 201.888 43.9358 201.888 43.9358C201.888 43.9358 197.72 44.3926 199.917 50.8672Z" fill="#262424"/>
<path d="M203.218 53.6528C203.869 51.5667 202.831 49.2683 200.833 48.575C200.411 48.4257 199.965 48.3618 199.52 48.387C196.842 48.5467 196.269 54.8556 202.567 55.7369L203.218 53.6528Z" fill="white"/>
<path d="M202.568 56.3453C202.722 56.356 202.874 56.3024 202.99 56.1963C203.106 56.0901 203.178 55.9401 203.188 55.7793C203.198 55.6185 203.147 55.46 203.045 55.3387C202.943 55.2173 202.799 55.1432 202.645 55.1324C199.264 54.6554 198.135 52.5774 198.189 50.94C198.224 50.0081 198.701 49.0378 199.545 48.9893C199.918 48.9684 200.291 49.022 200.644 49.147C201.458 49.4436 202.127 50.0637 202.505 50.8724C202.883 51.681 202.94 52.6127 202.663 53.4648C202.639 53.5406 202.63 53.6205 202.636 53.6999C202.642 53.7794 202.663 53.8569 202.697 53.9279C202.732 53.999 202.78 54.0622 202.838 54.114C202.896 54.1658 202.963 54.2052 203.036 54.2299C203.108 54.2546 203.185 54.2641 203.261 54.2579C203.337 54.2517 203.412 54.2299 203.48 54.1938C203.548 54.1576 203.608 54.1079 203.658 54.0473C203.708 53.9867 203.745 53.9165 203.769 53.8408C204.529 51.415 203.292 48.7872 201.016 48.0008C200.523 47.8281 200.004 47.7547 199.485 47.7846C198.129 47.8654 197.096 49.1753 197.032 50.8996C196.947 53.2141 198.6 55.7935 202.488 56.3413L202.568 56.3453Z" fill="#262424"/>
<path d="M193.455 25.2679C194.443 25.2675 195.398 25.6451 196.137 26.3291C196.44 24.858 197.253 23.5551 198.418 22.6691C199.584 21.7832 201.022 21.3765 202.457 21.5265C203.892 21.6765 205.224 22.3728 206.198 23.4825C207.173 24.5921 207.721 26.0373 207.739 27.542C208.161 27.2621 208.64 27.0888 209.137 27.0358C209.635 26.9828 210.138 27.0516 210.606 27.2367C211.073 27.4218 211.493 27.7182 211.832 28.1022C212.171 28.4862 212.419 28.9473 212.557 29.4489C212.695 29.9506 212.72 30.4789 212.628 30.992C212.536 31.505 212.331 31.9887 212.029 32.4046C211.726 32.8205 211.335 33.1572 210.887 33.3879C210.438 33.6186 209.944 33.7369 209.444 33.7336H193.448C192.904 33.7506 192.363 33.6535 191.856 33.4482C191.35 33.2428 190.888 32.9334 190.498 32.5382C190.108 32.143 189.798 31.6701 189.587 31.1477C189.375 30.6252 189.267 30.0637 189.267 29.4966C189.268 28.9294 189.377 28.3682 189.59 27.8461C189.802 27.324 190.113 26.8518 190.503 26.4574C190.894 26.063 191.357 25.7545 191.864 25.5501C192.371 25.3458 192.912 25.2498 193.455 25.2679Z" fill="#91BED4"/>
<path d="M62.7964 14.7807C64.5019 14.7807 66.1375 15.4876 67.3435 16.7458C68.5495 18.004 69.227 19.7105 69.227 21.4898C69.227 21.5929 69.227 21.692 69.227 21.7991C69.6457 21.3675 70.1597 21.0501 70.7239 20.875C71.288 20.6999 71.8847 20.6723 72.4615 20.7949C73.0382 20.9174 73.5771 21.1862 74.0306 21.5776C74.4842 21.9689 74.8384 22.4708 75.0619 23.0388C75.2855 23.6069 75.3715 24.2236 75.3125 24.8346C75.2534 25.4455 75.0511 26.0319 74.7233 26.5419C74.3955 27.0519 73.9524 27.4699 73.4331 27.7589C72.9138 28.0479 72.3343 28.199 71.7457 28.1989H62.8042C61.0987 28.2 59.4626 27.4942 58.2559 26.2367C57.0493 24.9793 56.3707 23.2732 56.3697 21.4939C56.3687 19.7145 57.0452 18.0076 58.2505 16.7486C59.4557 15.4897 61.0909 14.7818 62.7964 14.7807Z" fill="#91BED4"/>
<path d="M45.5002 150.328C45.5002 150.229 45.5002 150.125 45.5002 150.03C45.5002 147.028 46.6434 144.149 48.6781 142.026C50.7129 139.903 53.4726 138.71 56.3502 138.71C59.2278 138.71 61.9876 139.903 64.0224 142.026C66.0571 144.149 67.2002 147.028 67.2002 150.03C68.639 150.03 70.0189 150.627 71.0363 151.688C72.0537 152.75 72.6252 154.189 72.6252 155.69C72.6252 157.192 72.0537 158.631 71.0363 159.693C70.0189 160.754 68.639 161.35 67.2002 161.35H47.244C45.9568 161.353 44.7107 160.877 43.7285 160.009C42.7463 159.141 42.0919 157.937 41.8823 156.612C41.6727 155.287 41.9215 153.927 42.5843 152.776C43.2471 151.625 44.2806 150.757 45.5002 150.328Z" fill="#91BED4"/>
<path d="M167.458 16.9168L171.842 21.4907L167.458 26.0647L163.074 21.4907L167.458 16.9168Z" fill="#91BED4"/>
<path d="M252.137 153.363L256.521 157.937L252.137 162.511L247.753 157.937L252.137 153.363Z" fill="#91BED4"/>
<path d="M47.7209 91.3727L52.105 95.9467L47.7209 100.521L43.3369 95.9467L47.7209 91.3727Z" fill="#91BED4"/>
<path d="M54.8269 172.405L59.2109 176.979L54.8269 181.553L50.4428 176.979L54.8269 172.405Z" fill="#ED7631"/>
<path d="M177.711 37.538C176.508 37.538 175.532 36.5198 175.532 35.2639C175.532 34.0079 176.508 32.9897 177.711 32.9897C178.915 32.9897 179.891 34.0079 179.891 35.2639C179.891 36.5198 178.915 37.538 177.711 37.538Z" fill="#ED7631"/>
<path d="M56.3657 87.542C55.1619 87.542 54.186 86.5238 54.186 85.2679C54.186 84.0119 55.1619 82.9938 56.3657 82.9938C57.5695 82.9938 58.5454 84.0119 58.5454 85.2679C58.5454 86.5238 57.5695 87.542 56.3657 87.542Z" fill="#ED7631"/>
<path d="M234.333 65.7995C232.434 65.7995 230.894 64.1931 230.894 62.2115C230.894 60.2298 232.434 58.6234 234.333 58.6234C236.232 58.6234 237.772 60.2298 237.772 62.2115C237.772 64.1931 236.232 65.7995 234.333 65.7995Z" fill="#ED7631"/>
<path d="M127.647 106.141L133.406 115.153H129.567V121.161L123.808 112.149H127.647V106.141Z" fill="#F8F8F8"/>
<path fill-rule="evenodd" clip-rule="evenodd" d="M115.257 113.423C115.548 116.002 116.541 118.44 118.12 120.448C119.043 121.624 121.389 124.986 121.888 127.169H135.325C135.824 124.984 138.174 121.622 139.097 120.445C140.674 118.436 141.667 115.997 141.957 113.418C142.243 110.845 141.812 108.239 140.717 105.914C139.611 103.571 137.892 101.603 135.759 100.237C133.607 98.8572 131.13 98.1279 128.605 98.13C126.073 98.13 123.593 98.861 121.451 100.24C119.318 101.607 117.6 103.575 116.495 105.918C115.4 108.244 114.97 110.85 115.257 113.423ZM123.248 125.166H133.966C134.375 124.182 134.921 123.195 135.43 122.357C136.099 121.256 136.827 120.194 137.61 119.178C138.956 117.465 139.802 115.386 140.05 113.187C140.294 110.995 139.927 108.777 138.994 106.797C138.048 104.793 136.577 103.11 134.752 101.942C132.903 100.757 130.775 100.131 128.605 100.133C126.426 100.133 124.296 100.763 122.458 101.945C120.633 103.113 119.163 104.796 118.217 106.8C117.285 108.78 116.919 110.999 117.164 113.191C117.412 115.39 118.26 117.468 119.605 119.18C120.389 120.196 121.117 121.257 121.785 122.359C122.294 123.197 122.839 124.182 123.248 125.166H123.248Z" fill="#F8F8F8"/>
<path d="M135.325 130.172C135.325 129.907 135.224 129.652 135.044 129.464C134.864 129.277 134.62 129.171 134.365 129.171H122.848C122.594 129.171 122.35 129.277 122.17 129.464C121.99 129.652 121.888 129.907 121.888 130.172C121.888 130.438 121.99 130.693 122.17 130.881C122.35 131.068 122.594 131.174 122.848 131.174H134.365C134.62 131.174 134.864 131.068 135.044 130.881C135.224 130.693 135.325 130.438 135.325 130.172Z" fill="#F8F8F8"/>
<path fill-rule="evenodd" clip-rule="evenodd" d="M135.325 133.176H121.888V136.18C121.888 136.712 122.091 137.221 122.451 137.597C122.811 137.972 123.299 138.183 123.808 138.183H133.405C133.915 138.183 134.403 137.972 134.763 137.597C135.123 137.221 135.325 136.712 135.325 136.18V133.176ZM133.405 135.179H123.808V136.18H133.405V135.179Z" fill="#F8F8F8"/>
</svg>
